<?xml version="1.0" encoding="UTF-8"?>
<!DOCTYPE svg PUBLIC "-//W3C//DTD SVG 1.1//EN" "http://www.w3.org/Graphics/SVG/1.1/DTD/svg11.dtd">
<svg xmlns="http://www.w3.org/2000/svg" version="1.1" width="276px" height="282px" style="shape-rendering:geometricPrecision; text-rendering:geometricPrecision; image-rendering:optimizeQuality; fill-rule:evenodd; clip-rule:evenodd" xmlns:xlink="http://www.w3.org/1999/xlink">
<g><path style="opacity:1" fill="#fbfbfb" d="M -0.5,-0.5 C 91.5,-0.5 183.5,-0.5 275.5,-0.5C 275.5,93.5 275.5,187.5 275.5,281.5C 256.833,281.5 238.167,281.5 219.5,281.5C 219.195,276.238 219.529,271.072 220.5,266C 229.159,263.256 236.992,259.089 244,253.5C 248.431,256.135 252.931,258.301 257.5,260C 262.807,251.857 267.474,243.357 271.5,234.5C 271.167,233.833 270.833,233.167 270.5,232.5C 266.303,230.239 262.303,227.739 258.5,225C 260.971,216.269 260.971,207.602 258.5,199C 261.502,196.497 264.835,194.497 268.5,193C 269.99,192.255 270.99,191.088 271.5,189.5C 267.27,181.375 262.77,173.375 258,165.5C 256.951,164.483 255.784,164.316 254.5,165C 250.833,167.167 247.167,169.333 243.5,171.5C 236.649,165.074 228.649,160.741 219.5,158.5C 219.5,153.167 219.5,147.833 219.5,142.5C 209.167,142.5 198.833,142.5 188.5,142.5C 188.5,147.833 188.5,153.167 188.5,158.5C 179.351,160.741 171.351,165.074 164.5,171.5C 160.08,168.452 155.413,166.285 150.5,165C 145.438,172.96 140.771,181.127 136.5,189.5C 140.851,193.005 145.185,196.505 149.5,200C 146.852,208.185 146.852,216.352 149.5,224.5C 149.167,225.167 148.833,225.833 148.5,226.5C 144.583,228.708 140.75,231.041 137,233.5C 136.743,236.017 137.41,238.35 139,240.5C 142.959,246.918 146.793,253.418 150.5,260C 155.179,258.165 159.846,255.998 164.5,253.5C 171.35,259.097 179.017,263.43 187.5,266.5C 188.494,271.456 188.827,276.456 188.5,281.5C 125.5,281.5 62.5,281.5 -0.5,281.5C -0.5,187.5 -0.5,93.5 -0.5,-0.5 Z"/></g>
<g><path style="opacity:1" fill="#131313" d="M 102.5,2.5 C 127.686,-0.149111 147.853,8.51756 163,28.5C 180.782,58.9815 177.282,86.8149 152.5,112C 148.668,114.75 144.668,117.25 140.5,119.5C 139.167,121.833 139.167,124.167 140.5,126.5C 152.728,129.199 163.895,134.199 174,141.5C 174.667,143.833 174.667,146.167 174,148.5C 170.419,150.374 166.919,152.374 163.5,154.5C 154.723,148.681 146.557,149.347 139,156.5C 133.667,165.833 128.333,175.167 123,184.5C 121.208,193.916 124.541,200.916 133,205.5C 133.667,210.167 133.667,214.833 133,219.5C 124.347,223.473 121.013,230.14 123,239.5C 128.333,248.833 133.667,258.167 139,267.5C 141.219,270.361 144.053,272.361 147.5,273.5C 148.386,274.325 148.719,275.325 148.5,276.5C 117.318,276.982 86.3176,274.815 55.5,270C 44.2867,267.865 33.6201,264.198 23.5,259C 20.2098,256.386 17.7098,253.219 16,249.5C 14.1598,227.86 15.8265,206.527 21,185.5C 30.356,153.643 51.1893,133.977 83.5,126.5C 84.8333,124.167 84.8333,121.833 83.5,119.5C 58.9253,105.356 47.7587,84.0228 50,55.5C 56.3621,26.6385 73.8621,8.97183 102.5,2.5 Z"/></g>
<g><path style="opacity:1" fill="#fbfbfb" d="M 103.5,5.5 C 136.267,4.11903 158.1,18.7857 169,49.5C 174.409,79.6754 163.909,102.342 137.5,117.5C 136.509,121.445 136.176,125.445 136.5,129.5C 147.083,131.306 157.083,134.806 166.5,140C 168.466,141.46 170.132,143.127 171.5,145C 168.935,147.202 166.102,149.036 163,150.5C 151.743,143.819 142.41,145.819 135,156.5C 129.746,165.339 124.746,174.339 120,183.5C 117.468,193.895 120.801,201.895 130,207.5C 130.824,210.882 130.657,214.216 129.5,217.5C 121.21,222.081 117.71,229.081 119,238.5C 124.687,250.711 131.52,262.211 139.5,273C 104.982,274.063 70.982,270.396 37.5,262C 31.2971,259.984 25.7971,256.817 21,252.5C 20.3333,251.167 19.6667,249.833 19,248.5C 17.3757,224.648 20.0424,201.314 27,178.5C 37.8353,151.01 57.8353,134.344 87,128.5C 87.8253,124.789 87.6586,121.122 86.5,117.5C 58.5562,101.199 48.3895,77.1993 56,45.5C 64.7373,23.5855 80.5706,10.2522 103.5,5.5 Z"/></g>
<g><path style="opacity:1" fill="#141414" d="M 219.5,281.5 C 209.167,281.5 198.833,281.5 188.5,281.5C 188.827,276.456 188.494,271.456 187.5,266.5C 179.017,263.43 171.35,259.097 164.5,253.5C 159.846,255.998 155.179,258.165 150.5,260C 146.793,253.418 142.959,246.918 139,240.5C 137.41,238.35 136.743,236.017 137,233.5C 140.75,231.041 144.583,228.708 148.5,226.5C 148.833,225.833 149.167,225.167 149.5,224.5C 146.852,216.352 146.852,208.185 149.5,200C 145.185,196.505 140.851,193.005 136.5,189.5C 140.771,181.127 145.438,172.96 150.5,165C 155.413,166.285 160.08,168.452 164.5,171.5C 171.351,165.074 179.351,160.741 188.5,158.5C 188.5,153.167 188.5,147.833 188.5,142.5C 198.833,142.5 209.167,142.5 219.5,142.5C 219.5,147.833 219.5,153.167 219.5,158.5C 228.649,160.741 236.649,165.074 243.5,171.5C 247.167,169.333 250.833,167.167 254.5,165C 255.784,164.316 256.951,164.483 258,165.5C 262.77,173.375 267.27,181.375 271.5,189.5C 270.99,191.088 269.99,192.255 268.5,193C 264.835,194.497 261.502,196.497 258.5,199C 260.971,207.602 260.971,216.269 258.5,225C 262.303,227.739 266.303,230.239 270.5,232.5C 270.833,233.167 271.167,233.833 271.5,234.5C 267.474,243.357 262.807,251.857 257.5,260C 252.931,258.301 248.431,256.135 244,253.5C 236.992,259.089 229.159,263.256 220.5,266C 219.529,271.072 219.195,276.238 219.5,281.5 Z"/></g>
<g><path style="opacity:1" fill="#f8f8f8" d="M 216.5,264.5 C 215.514,268.97 215.181,273.637 215.5,278.5C 207.833,278.5 200.167,278.5 192.5,278.5C 192.803,273.57 192.469,268.737 191.5,264C 181.367,261.018 172.534,255.852 165,248.5C 161.148,251.093 157.148,253.426 153,255.5C 148.267,249.25 144.101,242.584 140.5,235.5C 143.837,232.829 147.504,230.663 151.5,229C 152.574,228.261 153.241,227.261 153.5,226C 150.833,216.667 150.833,207.333 153.5,198C 149.159,194.831 144.826,191.664 140.5,188.5C 144.5,181.833 148.5,175.167 152.5,168.5C 156.602,170.967 160.768,173.3 165,175.5C 172.478,168.206 181.312,163.206 191.5,160.5C 192.494,155.544 192.827,150.544 192.5,145.5C 200.167,145.5 207.833,145.5 215.5,145.5C 215.173,150.544 215.506,155.544 216.5,160.5C 226.503,163.581 235.336,168.581 243,175.5C 247.232,173.3 251.398,170.967 255.5,168.5C 259.5,175.167 263.5,181.833 267.5,188.5C 264.374,190.902 261.04,193.069 257.5,195C 256.056,196.126 255.39,197.626 255.5,199.5C 256.353,209.201 256.687,218.867 256.5,228.5C 260.336,230.584 264.003,232.917 267.5,235.5C 264,241.833 260.5,248.167 257,254.5C 255.951,255.517 254.784,255.684 253.5,255C 250.29,252.896 246.957,251.063 243.5,249.5C 239.364,252.074 235.364,254.908 231.5,258C 226.358,260.094 221.358,262.26 216.5,264.5 Z"/></g>
<g><path style="opacity:1" fill="#141414" d="M 194.5,169.5 C 220.597,166.788 237.764,177.788 246,202.5C 249.273,229.132 238.106,246.299 212.5,254C 186.809,256.906 169.976,246.072 162,221.5C 158.923,195.297 169.756,177.964 194.5,169.5 Z"/></g>
<g><path style="opacity:1" fill="#fafafa" d="M 197.5,172.5 C 224.162,171.976 239.495,184.809 243.5,211C 241.402,235.598 228.069,249.098 203.5,251.5C 184.462,250.295 171.962,240.629 166,222.5C 162.063,196.703 172.563,180.036 197.5,172.5 Z"/></g>
<g><path style="opacity:1" fill="#7f7f7f" d="M 216.5,264.5 C 216.5,269.5 216.5,274.5 216.5,279.5C 208.316,279.826 200.316,279.492 192.5,278.5C 200.167,278.5 207.833,278.5 215.5,278.5C 215.181,273.637 215.514,268.97 216.5,264.5 Z"/></g>
</svg>
