<?xml version="1.0" encoding="UTF-8"?>
<!DOCTYPE svg PUBLIC "-//W3C//DTD SVG 1.1//EN" "http://www.w3.org/Graphics/SVG/1.1/DTD/svg11.dtd">
<svg xmlns="http://www.w3.org/2000/svg" version="1.1" width="745px" height="603px" style="shape-rendering:geometricPrecision; text-rendering:geometricPrecision; image-rendering:optimizeQuality; fill-rule:evenodd; clip-rule:evenodd" xmlns:xlink="http://www.w3.org/1999/xlink">
<g><path style="opacity:1" fill="#fd5869" d="M -0.5,-0.5 C 2.16667,-0.5 4.83333,-0.5 7.5,-0.5C 4.8587,1.80437 2.19204,4.13771 -0.5,6.5C -0.5,4.16667 -0.5,1.83333 -0.5,-0.5 Z"/></g>
<g><path style="opacity:1" fill="#fefefe" d="M 7.5,-0.5 C 88.8333,-0.5 170.167,-0.5 251.5,-0.5C 246.338,0.505854 241.005,1.33919 235.5,2C 231.681,3.07352 228.348,4.90685 225.5,7.5C 221.474,8.85143 217.474,10.1848 213.5,11.5C 212.692,14.47 210.692,16.3034 207.5,17C 193.777,28.9201 182.277,42.7534 173,58.5C 163.86,78.1232 153.193,96.7899 141,114.5C 135.389,119.377 129.555,123.877 123.5,128C 103.206,134.956 83.0396,142.456 63,150.5C 58.9127,153.46 54.746,156.293 50.5,159C 35.9928,171.533 27.4928,187.366 25,206.5C 22.756,233.164 27.0893,258.497 38,282.5C 41.4973,285.107 44.9973,287.607 48.5,290C 61.1667,290.333 73.8333,290.667 86.5,291C 92.5685,292.347 97.4018,295.514 101,300.5C 103.497,307.641 105.163,314.974 106,322.5C 107.193,327.767 109.693,332.267 113.5,336C 122.89,341.934 133.223,344.934 144.5,345C 149.417,346.083 154.084,347.749 158.5,350C 165.085,356.664 171.085,363.831 176.5,371.5C 177.325,372.386 178.325,372.719 179.5,372.5C 182.177,378.019 186.177,382.519 191.5,386C 196.186,388.845 201.186,390.845 206.5,392C 172.664,392.168 138.998,392.668 105.5,393.5C 104.5,393.833 103.833,394.5 103.5,395.5C 103.5,395.833 103.5,396.167 103.5,396.5C 98.7259,399.572 94.7259,403.405 91.5,408C 68.5,408.333 45.5,408.667 22.5,409C 18.3986,409.925 16.3986,412.425 16.5,416.5C 15.1667,442.5 15.1667,468.5 16.5,494.5C 53.9963,495.498 91.663,495.832 129.5,495.5C 129.5,498.833 129.5,502.167 129.5,505.5C 91.5,505.5 53.5,505.5 15.5,505.5C 15.19,508.713 15.5233,511.713 16.5,514.5C 54.1667,514.5 91.8333,514.5 129.5,514.5C 129.5,517.833 129.5,521.167 129.5,524.5C 91.663,524.168 53.9963,524.502 16.5,525.5C 15.1667,534.167 15.1667,542.833 16.5,551.5C 17.7013,556.795 20.0346,561.461 23.5,565.5C 28.5976,570.045 34.5976,572.378 41.5,572.5C 45.5907,574.083 49.924,575.25 54.5,576C 63.4229,577.685 72.4229,578.518 81.5,578.5C 82.8333,578.5 84.1667,578.5 85.5,578.5C 87.1581,581.088 88.8248,583.755 90.5,586.5C 66.6471,587.39 42.6471,588.557 18.5,590C 17.062,590.219 15.7287,590.719 14.5,591.5C 27.8105,592.666 41.1438,593.499 54.5,594C 96.1615,594.976 137.828,595.476 179.5,595.5C 218.332,596.167 257.332,596.5 296.5,596.5C 349.343,596.717 402.01,596.05 454.5,594.5C 473.174,594.333 491.841,593.833 510.5,593C 515.946,592.899 521.279,592.232 526.5,591C 504.743,589.225 483.076,588.058 461.5,587.5C 462.925,586.078 463.925,584.411 464.5,582.5C 465.404,581.791 465.737,580.791 465.5,579.5C 479.504,579.667 493.504,579.5 507.5,579C 508.416,578.722 509.082,578.222 509.5,577.5C 510.5,576.833 511.5,576.167 512.5,575.5C 513.537,574.07 514.204,572.403 514.5,570.5C 515.833,552.833 515.833,535.167 514.5,517.5C 514.5,516.833 514.5,516.167 514.5,515.5C 514.81,512.287 514.477,509.287 513.5,506.5C 513.731,497.088 513.064,487.755 511.5,478.5C 511.02,473.178 510.687,467.845 510.5,462.5C 514.313,468.565 518.313,474.565 522.5,480.5C 548.977,467.021 574.977,452.688 600.5,437.5C 601.728,438.306 602.728,439.306 603.5,440.5C 603.328,441.492 603.662,442.158 604.5,442.5C 605.209,443.404 606.209,443.737 607.5,443.5C 609.842,443.775 609.842,444.608 607.5,446C 608.416,446.278 609.082,446.778 609.5,447.5C 609.196,448.15 608.863,448.817 608.5,449.5C 596.05,455.558 584.05,462.391 572.5,470C 559.752,476.68 547.085,483.347 534.5,490C 530.575,491.999 529.741,494.832 532,498.5C 540.425,511.271 551.925,519.771 566.5,524C 604.492,526.93 632.325,511.763 650,478.5C 658.003,470.592 667.503,465.092 678.5,462C 689.496,459.667 700.496,457.334 711.5,455C 718.339,451.498 722.505,445.998 724,438.5C 723.412,425.188 722.912,411.855 722.5,398.5C 718.195,397.765 714.195,396.432 710.5,394.5C 709.737,393.732 708.737,393.232 707.5,393C 709.806,390.656 711.14,388.156 711.5,385.5C 711.5,385.167 711.5,384.833 711.5,384.5C 711.389,383.883 711.056,383.383 710.5,383C 713,382.167 715.5,381.333 718,380.5C 720.569,380.951 722.902,381.951 725,383.5C 727.171,382.222 728.338,380.222 728.5,377.5C 727.067,374.33 727.233,371.33 729,368.5C 729.333,369.833 729.667,371.167 730,372.5C 730.391,367.718 731.224,363.051 732.5,358.5C 737.078,349.642 741.078,340.642 744.5,331.5C 744.5,421.833 744.5,512.167 744.5,602.5C 496.167,602.5 247.833,602.5 -0.5,602.5C -0.5,403.833 -0.5,205.167 -0.5,6.5C 2.19204,4.13771 4.8587,1.80437 7.5,-0.5 Z"/></g>
<g><path style="opacity:1" fill="#dff5fb" d="M 251.5,-0.5 C 283.833,-0.5 316.167,-0.5 348.5,-0.5C 357.39,1.64055 366.39,3.97388 375.5,6.5C 384.814,11.1559 393.814,16.3226 402.5,22C 404.923,23.5707 406.256,25.7374 406.5,28.5C 407.552,28.3505 408.552,28.5172 409.5,29C 419.555,41.8478 423.055,56.3478 420,72.5C 416.994,79.1707 412.828,85.0041 407.5,90C 392.147,98.3397 375.814,103.84 358.5,106.5C 346.697,110.242 335.03,114.242 323.5,118.5C 318.891,121.11 314.558,124.11 310.5,127.5C 293.811,146.409 287.311,168.409 291,193.5C 294.794,209.268 296.961,225.268 297.5,241.5C 297.486,246.265 296.819,250.932 295.5,255.5C 288.252,272.251 277.418,286.251 263,297.5C 256.014,305.173 251.681,314.173 250,324.5C 249.764,337.017 249.264,349.517 248.5,362C 246.043,369.919 242.043,376.919 236.5,383C 231.613,385.023 226.947,387.523 222.5,390.5C 220.5,391 218.5,391.5 216.5,392C 267.499,392.5 318.499,392.667 369.5,392.5C 369.833,392.5 370.167,392.5 370.5,392.5C 370.5,392.833 370.5,393.167 370.5,393.5C 356.167,393.5 341.833,393.5 327.5,393.5C 253.5,393.5 179.5,393.5 105.5,393.5C 138.998,392.668 172.664,392.168 206.5,392C 201.186,390.845 196.186,388.845 191.5,386C 186.177,382.519 182.177,378.019 179.5,372.5C 178.325,372.719 177.325,372.386 176.5,371.5C 171.085,363.831 165.085,356.664 158.5,350C 154.084,347.749 149.417,346.083 144.5,345C 133.223,344.934 122.89,341.934 113.5,336C 109.693,332.267 107.193,327.767 106,322.5C 105.163,314.974 103.497,307.641 101,300.5C 97.4018,295.514 92.5685,292.347 86.5,291C 73.8333,290.667 61.1667,290.333 48.5,290C 44.9973,287.607 41.4973,285.107 38,282.5C 27.0893,258.497 22.756,233.164 25,206.5C 27.4928,187.366 35.9928,171.533 50.5,159C 54.746,156.293 58.9127,153.46 63,150.5C 83.0396,142.456 103.206,134.956 123.5,128C 129.555,123.877 135.389,119.377 141,114.5C 153.193,96.7899 163.86,78.1232 173,58.5C 182.277,42.7534 193.777,28.9201 207.5,17C 210.692,16.3034 212.692,14.47 213.5,11.5C 217.474,10.1848 221.474,8.85143 225.5,7.5C 228.348,4.90685 231.681,3.07352 235.5,2C 241.005,1.33919 246.338,0.505854 251.5,-0.5 Z"/></g>
<g><path style="opacity:1" fill="#fefefd" d="M 348.5,-0.5 C 480.5,-0.5 612.5,-0.5 744.5,-0.5C 744.5,107.167 744.5,214.833 744.5,322.5C 743.833,321.833 743.167,321.167 742.5,320.5C 742.138,316.797 740.471,313.797 737.5,311.5C 730.971,304.804 723.971,298.637 716.5,293C 711.798,288.377 707.465,283.543 703.5,278.5C 702.387,271.841 702.387,265.341 703.5,259C 681.184,246.085 658.684,233.252 636,220.5C 590.982,246.085 546.149,271.751 501.5,297.5C 499.883,298.038 498.216,298.371 496.5,298.5C 496.859,300.766 496.192,302.599 494.5,304C 502.375,305.941 502.042,306.774 493.5,306.5C 489.503,305.397 485.836,303.731 482.5,301.5C 483.609,300.71 484.942,300.21 486.5,300C 485.062,299.781 483.729,299.281 482.5,298.5C 485.076,297.117 484.742,296.283 481.5,296C 484.26,294.257 486.593,292.09 488.5,289.5C 532.74,263.93 576.74,237.93 620.5,211.5C 607.072,202.865 593.406,194.699 579.5,187C 577.323,185.798 574.989,185.298 572.5,185.5C 573.598,184.603 573.598,183.77 572.5,183C 568.225,180.532 563.892,178.365 559.5,176.5C 557.353,174.53 555.02,172.697 552.5,171C 534.628,161.235 516.962,151.235 499.5,141C 498.167,140.333 496.833,140.333 495.5,141C 494.295,142.376 492.962,143.542 491.5,144.5C 490.883,144.389 490.383,144.056 490,143.5C 489.751,144.624 489.251,145.624 488.5,146.5C 486.556,145.811 484.556,145.311 482.5,145C 481.663,143.989 481.33,142.822 481.5,141.5C 482.945,139.214 484.612,137.047 486.5,135C 486.241,133.739 485.574,132.739 484.5,132C 466.732,121.7 448.899,111.533 431,101.5C 415.153,114.897 396.653,121.397 375.5,121C 330.341,128.168 308.508,154.668 310,200.5C 312.862,212.948 316.196,225.281 320,237.5C 337.36,243.931 354.86,249.931 372.5,255.5C 373.451,256.919 373.784,258.585 373.5,260.5C 372.524,261.815 371.524,263.148 370.5,264.5C 371.09,265.799 372.09,266.632 373.5,267C 412.145,281.157 450.811,294.991 489.5,308.5C 489.67,309.822 489.337,310.989 488.5,312C 485.854,312.497 483.187,312.664 480.5,312.5C 478.011,312.298 475.677,312.798 473.5,314C 435.757,336.976 397.757,359.143 359.5,380.5C 358.614,381.325 358.281,382.325 358.5,383.5C 363.939,384.347 367.606,387.347 369.5,392.5C 318.499,392.667 267.499,392.5 216.5,392C 218.5,391.5 220.5,391 222.5,390.5C 226.947,387.523 231.613,385.023 236.5,383C 242.043,376.919 246.043,369.919 248.5,362C 249.264,349.517 249.764,337.017 250,324.5C 251.681,314.173 256.014,305.173 263,297.5C 277.418,286.251 288.252,272.251 295.5,255.5C 296.819,250.932 297.486,246.265 297.5,241.5C 296.961,225.268 294.794,209.268 291,193.5C 287.311,168.409 293.811,146.409 310.5,127.5C 314.558,124.11 318.891,121.11 323.5,118.5C 335.03,114.242 346.697,110.242 358.5,106.5C 375.814,103.84 392.147,98.3397 407.5,90C 412.828,85.0041 416.994,79.1707 420,72.5C 423.055,56.3478 419.555,41.8478 409.5,29C 408.552,28.5172 407.552,28.3505 406.5,28.5C 406.256,25.7374 404.923,23.5707 402.5,22C 393.814,16.3226 384.814,11.1559 375.5,6.5C 366.39,3.97388 357.39,1.64055 348.5,-0.5 Z"/></g>
<g><path style="opacity:1" fill="#fdfefe" d="M 261.5,19.5 C 285.674,19.3319 299.341,31.3319 302.5,55.5C 303.331,62.4764 303.831,69.4764 304,76.5C 310.207,66.5906 319.04,62.9239 330.5,65.5C 333.126,66.2929 334.96,67.9595 336,70.5C 336.802,75.419 336.635,80.2523 335.5,85C 348.603,76.7377 358.603,79.571 365.5,93.5C 303.833,93.5 242.167,93.5 180.5,93.5C 185.71,82.3643 194.377,75.1976 206.5,72C 211.788,71.2121 216.954,71.7121 222,73.5C 227.59,76.4322 232.59,80.0989 237,84.5C 236.81,72.5054 236.81,60.5054 237,48.5C 240.386,34.6275 248.552,24.9609 261.5,19.5 Z"/></g>
<g><path style="opacity:1" fill="#f1cbad" d="M 482.5,57.5 C 499.31,56.0478 512.81,62.0478 523,75.5C 525.958,79.4433 528.458,83.61 530.5,88C 530.045,89.724 529.212,91.224 528,92.5C 517.652,102.681 507.486,113.014 497.5,123.5C 479.847,113.339 462.18,103.173 444.5,93C 442.673,92.1007 441.34,90.7674 440.5,89C 446.625,81.0399 453.292,73.5399 460.5,66.5C 467.675,62.9061 475.008,59.9061 482.5,57.5 Z"/></g>
<g><path style="opacity:1" fill="#f1cbad" d="M 632.5,123.5 C 621.542,138.899 607.542,150.732 590.5,159C 587.587,162.591 583.921,164.924 579.5,166C 577.937,166.759 576.937,167.926 576.5,169.5C 553.353,156.093 530.353,142.426 507.5,128.5C 517.516,118.318 527.349,107.985 537,97.5C 542.745,107.146 549.578,115.98 557.5,124C 568.009,131.192 579.676,133.526 592.5,131C 605.674,127.618 619.008,125.118 632.5,123.5 Z"/></g>
<g><path style="opacity:1" fill="#f2caac" d="M 481.5,141.5 C 467.445,155.887 453.445,170.22 439.5,184.5C 442.987,177.851 445.654,170.851 447.5,163.5C 448.222,163.082 448.722,162.416 449,161.5C 449.667,156.833 449.667,152.167 449,147.5C 448.722,146.584 448.222,145.918 447.5,145.5C 439.125,131.433 427.458,127.933 412.5,135C 405.477,139.547 402.144,146.047 402.5,154.5C 405.756,172.678 413.09,189.011 424.5,203.5C 423.448,203.351 422.448,203.517 421.5,204C 419.317,206.35 416.984,208.517 414.5,210.5C 400.429,225.567 386.429,240.567 372.5,255.5C 354.86,249.931 337.36,243.931 320,237.5C 316.196,225.281 312.862,212.948 310,200.5C 308.508,154.668 330.341,128.168 375.5,121C 396.653,121.397 415.153,114.897 431,101.5C 448.899,111.533 466.732,121.7 484.5,132C 485.574,132.739 486.241,133.739 486.5,135C 484.612,137.047 482.945,139.214 481.5,141.5 Z"/></g>
<g><path style="opacity:1" fill="#f1caac" d="M 647.5,124.5 C 654.928,126.626 661.095,130.626 666,136.5C 671.888,143.844 673.888,152.177 672,161.5C 669.949,170.051 667.449,178.384 664.5,186.5C 654.998,192.419 645.331,198.086 635.5,203.5C 621.374,194.913 607.04,186.747 592.5,179C 591.619,178.292 590.953,177.458 590.5,176.5C 604.959,167.395 618.626,157.062 631.5,145.5C 637.75,138.954 643.083,131.954 647.5,124.5 Z"/></g>
<g><path style="opacity:1" fill="#f1caac" d="M 559.5,176.5 C 540.066,186.445 520.399,195.945 500.5,205C 475.102,220.075 452.436,238.409 432.5,260C 427.938,263.741 423.271,267.241 418.5,270.5C 417.849,271.091 417.182,271.757 416.5,272.5C 406.143,268.493 395.81,264.493 385.5,260.5C 384.479,259.998 384.312,259.332 385,258.5C 421.027,220.974 456.527,182.974 491.5,144.5C 492.962,143.542 494.295,142.376 495.5,141C 496.833,140.333 498.167,140.333 499.5,141C 516.962,151.235 534.628,161.235 552.5,171C 555.02,172.697 557.353,174.53 559.5,176.5 Z"/></g>
<g><path style="opacity:1" fill="#f19677" d="M 447.5,145.5 C 448.222,145.918 448.722,146.584 449,147.5C 449.667,152.167 449.667,156.833 449,161.5C 448.722,162.416 448.222,163.082 447.5,163.5C 448.833,157.5 448.833,151.5 447.5,145.5 Z"/></g>
<g><path style="opacity:1" fill="#82bce0" d="M 647.5,124.5 C 643.083,131.954 637.75,138.954 631.5,145.5C 618.626,157.062 604.959,167.395 590.5,176.5C 585.592,174.713 580.925,172.379 576.5,169.5C 576.937,167.926 577.937,166.759 579.5,166C 583.921,164.924 587.587,162.591 590.5,159C 607.542,150.732 621.542,138.899 632.5,123.5C 637.579,122.174 642.579,122.507 647.5,124.5 Z"/></g>
<g><path style="opacity:1" fill="#f44837" d="M 447.5,145.5 C 448.833,151.5 448.833,157.5 447.5,163.5C 445.654,170.851 442.987,177.851 439.5,184.5C 435.589,190.928 431.423,197.262 427,203.5C 426.23,204.598 425.397,204.598 424.5,203.5C 413.09,189.011 405.756,172.678 402.5,154.5C 402.144,146.047 405.477,139.547 412.5,135C 427.458,127.933 439.125,131.433 447.5,145.5 Z"/></g>
<g><path style="opacity:1" fill="#f1c7a8" d="M 420.5,141.5 C 433.736,140.566 439.569,146.566 438,159.5C 434.024,166.236 428.191,168.736 420.5,167C 409.886,158.509 409.886,150.009 420.5,141.5 Z"/></g>
<g><path style="opacity:1" fill="#fdfefe" d="M 96.5,179.5 C 112.78,177.717 122.946,184.717 127,200.5C 128.337,209.525 128.671,218.525 128,227.5C 139.995,211.426 154.828,208.26 172.5,218C 175.273,220.383 177.439,223.217 179,226.5C 181.441,215.81 187.607,207.976 197.5,203C 216.568,202.063 225.901,211.23 225.5,230.5C 226.769,228.82 228.436,227.653 230.5,227C 237.874,225.4 244.541,226.734 250.5,231C 251.872,232.242 252.872,233.742 253.5,235.5C 182.17,236.5 110.836,236.833 39.5,236.5C 43.023,226.26 50.3563,221.26 61.5,221.5C 66.2893,221.575 70.956,222.241 75.5,223.5C 74.1991,211.584 76.6991,200.584 83,190.5C 87.1525,186.205 91.6525,182.538 96.5,179.5 Z"/></g>
<g><path style="opacity:1" fill="#f1caac" d="M 572.5,185.5 C 574.989,185.298 577.323,185.798 579.5,187C 593.406,194.699 607.072,202.865 620.5,211.5C 576.74,237.93 532.74,263.93 488.5,289.5C 486.22,290.64 483.886,291.807 481.5,293C 479.5,293.667 477.5,293.667 475.5,293C 461.632,288.62 447.966,283.787 434.5,278.5C 433.702,278.043 433.369,277.376 433.5,276.5C 442.965,267.536 452.298,258.369 461.5,249C 471.833,241 482.167,233 492.5,225C 518.533,210.806 545.2,197.639 572.5,185.5 Z"/></g>
<g><path style="opacity:1" fill="#efccaf" d="M 661.5,204.5 C 664.251,208.757 667.584,212.59 671.5,216C 681.833,220.333 692.167,224.667 702.5,229C 708.363,233.022 710.696,238.522 709.5,245.5C 690.103,234.963 670.769,224.13 651.5,213C 650.289,212.107 650.289,211.274 651.5,210.5C 655.135,208.835 658.469,206.835 661.5,204.5 Z"/></g>
<g><path style="opacity:1" fill="#80bce2" d="M 559.5,176.5 C 563.892,178.365 568.225,180.532 572.5,183C 573.598,183.77 573.598,184.603 572.5,185.5C 545.2,197.639 518.533,210.806 492.5,225C 482.167,233 471.833,241 461.5,249C 452.298,258.369 442.965,267.536 433.5,276.5C 428.623,276.938 423.956,275.771 419.5,273C 418.748,272.329 418.414,271.496 418.5,270.5C 423.271,267.241 427.938,263.741 432.5,260C 452.436,238.409 475.102,220.075 500.5,205C 520.399,195.945 540.066,186.445 559.5,176.5 Z"/></g>
<g><path style="opacity:1" fill="#bec172" d="M 703.5,278.5 C 707.465,283.543 711.798,288.377 716.5,293C 723.971,298.637 730.971,304.804 737.5,311.5C 740.471,313.797 742.138,316.797 742.5,320.5C 736.696,322.985 730.862,325.651 725,328.5C 716.092,332.325 707.258,332.158 698.5,328C 672.477,327.516 646.477,327.849 620.5,329C 615.008,327.149 609.342,326.149 603.5,326C 589.134,321.636 575.134,316.303 561.5,310C 554.749,304.666 552.415,297.833 554.5,289.5C 558.978,284.236 563.978,279.402 569.5,275C 573.994,273.725 578.327,272.058 582.5,270C 596.304,270.34 609.637,268.173 622.5,263.5C 625.493,262.007 627.493,259.674 628.5,256.5C 629.325,255.614 630.325,255.281 631.5,255.5C 631.304,246.529 635.638,241.363 644.5,240C 652.16,238.773 659.16,240.44 665.5,245C 668.97,249.142 672.47,253.308 676,257.5C 678.264,260.433 681.098,262.6 684.5,264C 688.987,271.245 695.321,276.078 703.5,278.5 Z"/></g>
<g><path style="opacity:1" fill="#bec173" d="M 321.5,264.5 C 336.185,267.011 349.185,273.011 360.5,282.5C 362.757,293.821 358.423,301.321 347.5,305C 334.097,308.455 320.764,312.122 307.5,316C 296.304,319.782 285.637,324.616 275.5,330.5C 275.305,326.085 275.805,321.751 277,317.5C 280.294,311.553 284.294,306.22 289,301.5C 289.483,300.552 289.649,299.552 289.5,298.5C 290.552,298.649 291.552,298.483 292.5,298C 300,291.167 307.5,284.333 315,277.5C 317.198,273.105 319.364,268.771 321.5,264.5 Z"/></g>
<g><path style="opacity:1" fill="#ec5546" d="M 482.5,301.5 C 485.836,303.731 489.503,305.397 493.5,306.5C 565.916,332.785 638.582,358.785 711.5,384.5C 711.5,384.833 711.5,385.167 711.5,385.5C 676.598,404.287 641.932,423.621 607.5,443.5C 606.209,443.737 605.209,443.404 604.5,442.5C 609.597,438.775 614.93,435.275 620.5,432C 648.006,416.413 675.672,401.08 703.5,386C 632.304,359.878 560.97,334.045 489.5,308.5C 450.811,294.991 412.145,281.157 373.5,267C 372.09,266.632 371.09,265.799 370.5,264.5C 371.524,263.148 372.524,261.815 373.5,260.5C 390.478,242.52 407.478,224.52 424.5,206.5C 426.815,207.421 426.982,208.754 425,210.5C 408.667,227.833 392.333,245.167 376,262.5C 375.333,263.167 375.333,263.833 376,264.5C 408.801,276.323 441.634,288.157 474.5,300C 477.063,301.079 479.729,301.579 482.5,301.5 Z"/></g>
<g><path style="opacity:1" fill="#f9f6f1" d="M 481.5,141.5 C 481.33,142.822 481.663,143.989 482.5,145C 484.556,145.311 486.556,145.811 488.5,146.5C 489.251,145.624 489.751,144.624 490,143.5C 490.383,144.056 490.883,144.389 491.5,144.5C 456.527,182.974 421.027,220.974 385,258.5C 384.312,259.332 384.479,259.998 385.5,260.5C 395.81,264.493 406.143,268.493 416.5,272.5C 417.182,271.757 417.849,271.091 418.5,270.5C 418.414,271.496 418.748,272.329 419.5,273C 423.956,275.771 428.623,276.938 433.5,276.5C 433.369,277.376 433.702,278.043 434.5,278.5C 447.966,283.787 461.632,288.62 475.5,293C 477.5,293.667 479.5,293.667 481.5,293C 483.886,291.807 486.22,290.64 488.5,289.5C 486.593,292.09 484.26,294.257 481.5,296C 484.742,296.283 485.076,297.117 482.5,298.5C 483.729,299.281 485.062,299.781 486.5,300C 484.942,300.21 483.609,300.71 482.5,301.5C 479.729,301.579 477.063,301.079 474.5,300C 441.634,288.157 408.801,276.323 376,264.5C 375.333,263.833 375.333,263.167 376,262.5C 392.333,245.167 408.667,227.833 425,210.5C 426.982,208.754 426.815,207.421 424.5,206.5C 407.478,224.52 390.478,242.52 373.5,260.5C 373.784,258.585 373.451,256.919 372.5,255.5C 386.429,240.567 400.429,225.567 414.5,210.5C 416.984,208.517 419.317,206.35 421.5,204C 422.448,203.517 423.448,203.351 424.5,203.5C 425.397,204.598 426.23,204.598 427,203.5C 431.423,197.262 435.589,190.928 439.5,184.5C 453.445,170.22 467.445,155.887 481.5,141.5 Z"/></g>
<g><path style="opacity:1" fill="#f1caac" d="M 290.5,355.5 C 293.231,354.973 295.898,354.14 298.5,353C 320.55,341.975 342.55,330.975 364.5,320C 381.474,311.227 397.807,301.727 413.5,291.5C 414.695,291.322 415.862,290.989 417,290.5C 430.955,295.483 444.789,300.65 458.5,306C 420.317,328.925 381.984,351.591 343.5,374C 331.094,371.315 318.76,367.982 306.5,364C 300.711,361.81 295.378,358.977 290.5,355.5 Z"/></g>
<g><path style="opacity:1" fill="#f2caac" d="M 480.5,312.5 C 549.39,337.8 618.39,362.634 687.5,387C 687.833,387.333 688.167,387.667 688.5,388C 681.211,392.81 673.545,396.81 665.5,400C 652.911,409.464 639.244,417.131 624.5,423C 619.978,426.424 615.311,429.591 610.5,432.5C 616.456,422.253 621.623,411.586 626,400.5C 630.101,381.453 622.601,370.453 603.5,367.5C 586.957,369.544 579.457,378.878 581,395.5C 582.82,404.297 585.82,412.63 590,420.5C 594.009,425.85 597.509,431.517 600.5,437.5C 574.977,452.688 548.977,467.021 522.5,480.5C 518.313,474.565 514.313,468.565 510.5,462.5C 509.833,460.167 509.167,457.833 508.5,455.5C 507.57,449.054 506.237,442.72 504.5,436.5C 506.903,436.393 508.736,437.393 510,439.5C 509.765,448.43 511.098,457.097 514,465.5C 517.207,468.099 520.374,468.099 523.5,465.5C 524.117,465.389 524.617,465.056 525,464.5C 525.817,458.984 525.651,453.65 524.5,448.5C 525.47,439.582 521.803,433.749 513.5,431C 509.514,430.501 505.514,430.334 501.5,430.5C 500.833,430.5 500.5,430.167 500.5,429.5C 499.66,427.147 498.326,425.147 496.5,423.5C 495.797,421.284 494.464,419.451 492.5,418C 487.277,414.221 481.61,411.221 475.5,409C 453.857,407.914 432.191,407.081 410.5,406.5C 406.812,402.146 402.812,398.146 398.5,394.5C 398.389,393.883 398.056,393.383 397.5,393C 388.506,392.5 379.506,392.334 370.5,392.5C 370.167,392.5 369.833,392.5 369.5,392.5C 367.606,387.347 363.939,384.347 358.5,383.5C 358.281,382.325 358.614,381.325 359.5,380.5C 397.757,359.143 435.757,336.976 473.5,314C 475.677,312.798 478.011,312.298 480.5,312.5 Z"/></g>
<g><path style="opacity:1" fill="#f1caac" d="M 703.5,278.5 C 695.321,276.078 688.987,271.245 684.5,264C 681.098,262.6 678.264,260.433 676,257.5C 672.47,253.308 668.97,249.142 665.5,245C 659.16,240.44 652.16,238.773 644.5,240C 635.638,241.363 631.304,246.529 631.5,255.5C 630.325,255.281 629.325,255.614 628.5,256.5C 627.493,259.674 625.493,262.007 622.5,263.5C 609.637,268.173 596.304,270.34 582.5,270C 578.327,272.058 573.994,273.725 569.5,275C 563.978,279.402 558.978,284.236 554.5,289.5C 552.415,297.833 554.749,304.666 561.5,310C 575.134,316.303 589.134,321.636 603.5,326C 609.342,326.149 615.008,327.149 620.5,329C 646.477,327.849 672.477,327.516 698.5,328C 707.258,332.158 716.092,332.325 725,328.5C 730.862,325.651 736.696,322.985 742.5,320.5C 743.167,321.167 743.833,321.833 744.5,322.5C 744.5,325.5 744.5,328.5 744.5,331.5C 741.078,340.642 737.078,349.642 732.5,358.5C 730.554,360.353 729.054,362.686 728,365.5C 726.667,370.167 725.333,374.833 724,379.5C 723.439,380.022 722.772,380.355 722,380.5C 647.631,354.655 573.464,328.322 499.5,301.5C 499.167,301.167 498.833,300.833 498.5,300.5C 499.77,299.712 500.77,298.712 501.5,297.5C 546.149,271.751 590.982,246.085 636,220.5C 658.684,233.252 681.184,246.085 703.5,259C 702.387,265.341 702.387,271.841 703.5,278.5 Z"/></g>
<g><path style="opacity:1" fill="#efcaab" d="M 397.5,285.5 C 383.168,292.976 369.168,301.143 355.5,310C 331.02,321.909 306.687,333.742 282.5,345.5C 280.112,344.781 278.612,343.115 278,340.5C 276.85,337.232 276.016,333.899 275.5,330.5C 285.637,324.616 296.304,319.782 307.5,316C 320.764,312.122 334.097,308.455 347.5,305C 358.423,301.321 362.757,293.821 360.5,282.5C 349.185,273.011 336.185,267.011 321.5,264.5C 322.219,262.236 322.552,259.903 322.5,257.5C 347.299,265.163 371.799,273.83 396,283.5C 397.03,283.836 397.53,284.503 397.5,285.5 Z"/></g>
<g><path style="opacity:1" fill="#81bce1" d="M 413.5,291.5 C 397.807,301.727 381.474,311.227 364.5,320C 342.55,330.975 320.55,341.975 298.5,353C 295.898,354.14 293.231,354.973 290.5,355.5C 285.918,353.596 283.252,350.263 282.5,345.5C 306.687,333.742 331.02,321.909 355.5,310C 369.168,301.143 383.168,292.976 397.5,285.5C 398.416,285.018 399.416,284.685 400.5,284.5C 404.737,286.246 409.07,287.58 413.5,288.5C 413.5,289.5 413.5,290.5 413.5,291.5 Z"/></g>
<g><path style="opacity:1" fill="#f9f6f2" d="M 501.5,297.5 C 500.77,298.712 499.77,299.712 498.5,300.5C 498.833,300.833 499.167,301.167 499.5,301.5C 573.464,328.322 647.631,354.655 722,380.5C 722.772,380.355 723.439,380.022 724,379.5C 725.333,374.833 726.667,370.167 728,365.5C 729.054,362.686 730.554,360.353 732.5,358.5C 731.224,363.051 730.391,367.718 730,372.5C 729.667,371.167 729.333,369.833 729,368.5C 727.233,371.33 727.067,374.33 728.5,377.5C 728.338,380.222 727.171,382.222 725,383.5C 722.902,381.951 720.569,380.951 718,380.5C 715.5,381.333 713,382.167 710.5,383C 711.056,383.383 711.389,383.883 711.5,384.5C 638.582,358.785 565.916,332.785 493.5,306.5C 502.042,306.774 502.375,305.941 494.5,304C 496.192,302.599 496.859,300.766 496.5,298.5C 498.216,298.371 499.883,298.038 501.5,297.5 Z"/></g>
<g><path style="opacity:1" fill="#f8f6f1" d="M 489.5,308.5 C 560.97,334.045 632.304,359.878 703.5,386C 675.672,401.08 648.006,416.413 620.5,432C 614.93,435.275 609.597,438.775 604.5,442.5C 603.662,442.158 603.328,441.492 603.5,440.5C 605.833,437.833 608.167,435.167 610.5,432.5C 615.311,429.591 619.978,426.424 624.5,423C 639.244,417.131 652.911,409.464 665.5,400C 673.545,396.81 681.211,392.81 688.5,388C 688.167,387.667 687.833,387.333 687.5,387C 618.39,362.634 549.39,337.8 480.5,312.5C 483.187,312.664 485.854,312.497 488.5,312C 489.337,310.989 489.67,309.822 489.5,308.5 Z"/></g>
<g><path style="opacity:1" fill="#d5cebf" d="M 370.5,393.5 C 370.5,393.167 370.5,392.833 370.5,392.5C 379.506,392.334 388.506,392.5 397.5,393C 398.056,393.383 398.389,393.883 398.5,394.5C 389.22,393.553 379.886,393.22 370.5,393.5 Z"/></g>
<g><path style="opacity:1" fill="#4fd1fe" d="M 105.5,393.5 C 179.5,393.5 253.5,393.5 327.5,393.5C 327.5,393.833 327.5,394.167 327.5,394.5C 252.792,394.173 178.125,394.506 103.5,395.5C 103.833,394.5 104.5,393.833 105.5,393.5 Z"/></g>
<g><path style="opacity:1" fill="#f44937" d="M 610.5,432.5 C 608.167,435.167 605.833,437.833 603.5,440.5C 602.728,439.306 601.728,438.306 600.5,437.5C 597.509,431.517 594.009,425.85 590,420.5C 585.82,412.63 582.82,404.297 581,395.5C 579.457,378.878 586.957,369.544 603.5,367.5C 622.601,370.453 630.101,381.453 626,400.5C 621.623,411.586 616.456,422.253 610.5,432.5 Z"/></g>
<g><path style="opacity:1" fill="#f1c8a9" d="M 599.5,378.5 C 615.451,378.105 620.118,385.105 613.5,399.5C 609.195,403.274 604.195,404.44 598.5,403C 592.024,398.918 589.857,393.085 592,385.5C 593.767,382.228 596.267,379.895 599.5,378.5 Z"/></g>
<g><path style="opacity:1" fill="#16b5f9" d="M 327.5,394.5 C 330.109,395.443 332.109,397.11 333.5,399.5C 273.614,398.12 213.781,397.786 154,398.5C 137.091,398.426 120.258,397.759 103.5,396.5C 103.5,396.167 103.5,395.833 103.5,395.5C 178.125,394.506 252.792,394.173 327.5,394.5 Z"/></g>
<g><path style="opacity:1" fill="#f2caac" d="M 710.5,394.5 C 714.195,396.432 718.195,397.765 722.5,398.5C 722.912,411.855 723.412,425.188 724,438.5C 722.505,445.998 718.339,451.498 711.5,455C 700.496,457.334 689.496,459.667 678.5,462C 667.503,465.092 658.003,470.592 650,478.5C 632.325,511.763 604.492,526.93 566.5,524C 551.925,519.771 540.425,511.271 532,498.5C 529.741,494.832 530.575,491.999 534.5,490C 547.085,483.347 559.752,476.68 572.5,470C 584.05,462.391 596.05,455.558 608.5,449.5C 608.863,448.817 609.196,448.15 609.5,447.5C 619.23,443.133 628.563,437.966 637.5,432C 659.848,420.224 681.848,407.89 703.5,395C 705.81,394.503 708.143,394.337 710.5,394.5 Z"/></g>
<g><path style="opacity:1" fill="#18b5fd" d="M 103.5,396.5 C 120.258,397.759 137.091,398.426 154,398.5C 213.781,397.786 273.614,398.12 333.5,399.5C 336.933,401.882 339.933,404.715 342.5,408C 345.817,408.498 349.15,408.665 352.5,408.5C 356.833,408.5 361.167,408.5 365.5,408.5C 376.116,409.335 376.116,410.501 365.5,412C 369.863,412.369 374.196,412.869 378.5,413.5C 379.543,416.056 381.21,418.223 383.5,420C 381.633,420.711 380.133,420.211 379,418.5C 378.383,419.449 378.549,420.282 379.5,421C 378.5,421.333 377.5,421.667 376.5,422C 261.999,422.167 147.666,422.667 33.5,423.5C 29.2088,424.236 26.0421,426.569 24,430.5C 20.3346,448.241 25.1679,463.074 38.5,475C 42.1328,477.65 46.1328,479.483 50.5,480.5C 51.5676,481.434 52.901,481.768 54.5,481.5C 79.9946,482.498 105.661,482.831 131.5,482.5C 131.5,485.833 131.5,489.167 131.5,492.5C 128.941,492.198 126.607,492.532 124.5,493.5C 88.5,493.5 52.5,493.5 16.5,493.5C 16.5,467.833 16.5,442.167 16.5,416.5C 16.3986,412.425 18.3986,409.925 22.5,409C 45.5,408.667 68.5,408.333 91.5,408C 94.7259,403.405 98.7259,399.572 103.5,396.5 Z"/></g>
<g><path style="opacity:1" fill="#5fc7f7" d="M 327.5,394.5 C 327.5,394.167 327.5,393.833 327.5,393.5C 341.833,393.5 356.167,393.5 370.5,393.5C 379.886,393.22 389.22,393.553 398.5,394.5C 402.812,398.146 406.812,402.146 410.5,406.5C 432.191,407.081 453.857,407.914 475.5,409C 481.61,411.221 487.277,414.221 492.5,418C 494.464,419.451 495.797,421.284 496.5,423.5C 494.146,423.162 491.813,422.662 489.5,422C 459.833,421.333 430.167,421.333 400.5,422C 396.138,423.736 394.471,426.736 395.5,431C 401.523,431.359 407.523,431.859 413.5,432.5C 418.385,434.555 421.219,438.222 422,443.5C 422.667,449.5 422.667,455.5 422,461.5C 421.764,463.811 420.931,465.811 419.5,467.5C 415.626,469.468 412.96,468.468 411.5,464.5C 411.808,454.447 411.475,444.447 410.5,434.5C 409.975,433.808 409.308,433.308 408.5,433C 402.509,432.501 396.509,432.334 390.5,432.5C 390.421,431.07 390.754,429.736 391.5,428.5C 388.322,422.464 383.989,417.464 378.5,413.5C 374.196,412.869 369.863,412.369 365.5,412C 376.116,410.501 376.116,409.335 365.5,408.5C 377.838,408.667 390.171,408.5 402.5,408C 401.956,407.283 401.289,406.783 400.5,406.5C 399.71,405.206 398.71,404.039 397.5,403C 381.156,402.167 364.823,402.334 348.5,403.5C 349.521,405.188 350.855,406.521 352.5,407.5C 352.5,407.833 352.5,408.167 352.5,408.5C 349.15,408.665 345.817,408.498 342.5,408C 339.933,404.715 336.933,401.882 333.5,399.5C 332.109,397.11 330.109,395.443 327.5,394.5 Z"/></g>
<g><path style="opacity:1" fill="#286583" d="M 400.5,406.5 C 401.289,406.783 401.956,407.283 402.5,408C 390.171,408.5 377.838,408.667 365.5,408.5C 361.167,408.5 356.833,408.5 352.5,408.5C 352.5,408.167 352.5,407.833 352.5,407.5C 368.675,407.83 384.675,407.496 400.5,406.5 Z"/></g>
<g><path style="opacity:1" fill="#323a56" d="M 400.5,406.5 C 384.675,407.496 368.675,407.83 352.5,407.5C 350.855,406.521 349.521,405.188 348.5,403.5C 364.823,402.334 381.156,402.167 397.5,403C 398.71,404.039 399.71,405.206 400.5,406.5 Z"/></g>
<g><path style="opacity:1" fill="#f6f2ed" d="M 711.5,385.5 C 711.14,388.156 709.806,390.656 707.5,393C 708.737,393.232 709.737,393.732 710.5,394.5C 708.143,394.337 705.81,394.503 703.5,395C 681.848,407.89 659.848,420.224 637.5,432C 628.563,437.966 619.23,443.133 609.5,447.5C 609.082,446.778 608.416,446.278 607.5,446C 609.842,444.608 609.842,443.775 607.5,443.5C 641.932,423.621 676.598,404.287 711.5,385.5 Z"/></g>
<g><path style="opacity:1" fill="#3290cd" d="M 496.5,423.5 C 498.326,425.147 499.66,427.147 500.5,429.5C 497.899,426.456 494.566,424.623 490.5,424C 460.167,423.333 429.833,423.333 399.5,424C 397.549,425.734 396.549,427.901 396.5,430.5C 398.833,430.5 401.167,430.5 403.5,430.5C 407.16,430.159 410.493,430.825 413.5,432.5C 407.523,431.859 401.523,431.359 395.5,431C 394.471,426.736 396.138,423.736 400.5,422C 430.167,421.333 459.833,421.333 489.5,422C 491.813,422.662 494.146,423.162 496.5,423.5 Z"/></g>
<g><path style="opacity:1" fill="#34394c" d="M 34.5,423.5 C 147.668,423.167 260.668,423.5 373.5,424.5C 372.378,425.156 371.045,425.489 369.5,425.5C 257.677,424.841 146.01,424.175 34.5,423.5 Z"/></g>
<g><path style="opacity:1" fill="#323c56" d="M 500.5,429.5 C 500.5,430.167 500.833,430.5 501.5,430.5C 501.992,432.819 502.992,434.819 504.5,436.5C 506.237,442.72 507.57,449.054 508.5,455.5C 508.657,456.873 508.49,458.207 508,459.5C 506.135,449.653 502.801,440.32 498,431.5C 495.742,429.57 493.242,428.07 490.5,427C 462.5,426.333 434.5,426.333 406.5,427C 404.944,427.72 403.944,428.887 403.5,430.5C 401.167,430.5 398.833,430.5 396.5,430.5C 396.549,427.901 397.549,425.734 399.5,424C 429.833,423.333 460.167,423.333 490.5,424C 494.566,424.623 497.899,426.456 500.5,429.5 Z"/></g>
<g><path style="opacity:1" fill="#323a57" d="M 33.5,423.5 C 33.8333,423.5 34.1667,423.5 34.5,423.5C 146.01,424.175 257.677,424.841 369.5,425.5C 371.045,425.489 372.378,425.156 373.5,424.5C 381.159,425.982 386.659,430.315 390,437.5C 394.336,452.185 396.503,467.185 396.5,482.5C 397.149,494.339 397.149,506.006 396.5,517.5C 396.5,513.5 396.5,509.5 396.5,505.5C 383.384,501.607 370.717,496.607 358.5,490.5C 357.081,489.549 355.415,489.216 353.5,489.5C 344.091,485.037 334.091,482.371 323.5,481.5C 275.668,480.667 227.668,480.167 179.5,480C 225.167,479.667 270.833,479.333 316.5,479C 270.665,478.833 224.998,478.333 179.5,477.5C 188.5,477.5 197.5,477.5 206.5,477.5C 206.5,460.833 206.5,444.167 206.5,427.5C 194.833,427.5 183.167,427.5 171.5,427.5C 171.5,444.167 171.5,460.833 171.5,477.5C 171.167,477.5 170.833,477.5 170.5,477.5C 170.5,460.833 170.5,444.167 170.5,427.5C 158.833,427.5 147.167,427.5 135.5,427.5C 135.5,443.5 135.5,459.5 135.5,475.5C 134.833,459.5 134.167,443.5 133.5,427.5C 121.833,427.5 110.167,427.5 98.5,427.5C 98.5,444.167 98.5,460.833 98.5,477.5C 109.167,477.5 119.833,477.5 130.5,477.5C 108.004,478.332 85.337,478.832 62.5,479C 85.5,479.333 108.5,479.667 131.5,480C 104.502,480.5 77.5021,480.667 50.5,480.5C 46.1328,479.483 42.1328,477.65 38.5,475C 25.1679,463.074 20.3346,448.241 24,430.5C 26.0421,426.569 29.2088,424.236 33.5,423.5 Z"/></g>
<g><path style="opacity:1" fill="#3d445f" d="M 39.5,427.5 C 58.5,426.167 77.5,426.167 96.5,427.5C 85.1667,427.5 73.8333,427.5 62.5,427.5C 62.5,443.833 62.5,460.167 62.5,476.5C 73.8333,476.5 85.1667,476.5 96.5,476.5C 84.2946,477.803 71.9612,477.803 59.5,476.5C 59.5,460.167 59.5,443.833 59.5,427.5C 52.8333,427.5 46.1667,427.5 39.5,427.5 Z"/></g>
<g><path style="opacity:1" fill="#525974" d="M 508.5,455.5 C 509.167,457.833 509.833,460.167 510.5,462.5C 510.687,467.845 511.02,473.178 511.5,478.5C 510.144,481.577 509.311,484.91 509,488.5C 506.032,490.991 502.865,491.157 499.5,489C 494.013,484.424 488.347,480.091 482.5,476C 477.757,474.53 473.091,472.864 468.5,471C 452.23,469.002 435.897,467.835 419.5,467.5C 420.931,465.811 421.764,463.811 422,461.5C 422.667,455.5 422.667,449.5 422,443.5C 421.219,438.222 418.385,434.555 413.5,432.5C 410.493,430.825 407.16,430.159 403.5,430.5C 403.944,428.887 404.944,427.72 406.5,427C 434.5,426.333 462.5,426.333 490.5,427C 493.242,428.07 495.742,429.57 498,431.5C 502.801,440.32 506.135,449.653 508,459.5C 508.49,458.207 508.657,456.873 508.5,455.5 Z"/></g>
<g><path style="opacity:1" fill="#525973" d="M 39.5,427.5 C 46.1667,427.5 52.8333,427.5 59.5,427.5C 59.5,443.833 59.5,460.167 59.5,476.5C 49.8324,476.779 41.6658,473.446 35,466.5C 29.0295,457.024 27.0295,446.69 29,435.5C 30.764,430.537 34.264,427.87 39.5,427.5 Z"/></g>
<g><path style="opacity:1" fill="#525973" d="M 96.5,427.5 C 96.5,443.833 96.5,460.167 96.5,476.5C 85.1667,476.5 73.8333,476.5 62.5,476.5C 62.5,460.167 62.5,443.833 62.5,427.5C 73.8333,427.5 85.1667,427.5 96.5,427.5 Z"/></g>
<g><path style="opacity:1" fill="#525973" d="M 133.5,427.5 C 133.5,444.167 133.5,460.833 133.5,477.5C 132.5,477.5 131.5,477.5 130.5,477.5C 119.833,477.5 109.167,477.5 98.5,477.5C 98.5,460.833 98.5,444.167 98.5,427.5C 110.167,427.5 121.833,427.5 133.5,427.5 Z"/></g>
<g><path style="opacity:1" fill="#525973" d="M 170.5,477.5 C 158.452,478.145 146.785,477.478 135.5,475.5C 135.5,459.5 135.5,443.5 135.5,427.5C 147.167,427.5 158.833,427.5 170.5,427.5C 170.5,444.167 170.5,460.833 170.5,477.5 Z"/></g>
<g><path style="opacity:1" fill="#525973" d="M 179.5,477.5 C 176.833,477.5 174.167,477.5 171.5,477.5C 171.5,460.833 171.5,444.167 171.5,427.5C 183.167,427.5 194.833,427.5 206.5,427.5C 206.5,444.167 206.5,460.833 206.5,477.5C 197.5,477.5 188.5,477.5 179.5,477.5 Z"/></g>
<g><path style="opacity:1" fill="#525973" d="M 208.5,427.5 C 220.167,427.5 231.833,427.5 243.5,427.5C 243.5,444.167 243.5,460.833 243.5,477.5C 231.833,477.5 220.167,477.5 208.5,477.5C 208.5,460.833 208.5,444.167 208.5,427.5 Z"/></g>
<g><path style="opacity:1" fill="#525973" d="M 245.5,427.5 C 257.167,427.5 268.833,427.5 280.5,427.5C 280.5,444.167 280.5,460.833 280.5,477.5C 268.833,477.5 257.167,477.5 245.5,477.5C 245.5,460.833 245.5,444.167 245.5,427.5 Z"/></g>
<g><path style="opacity:1" fill="#515872" d="M 281.5,427.5 C 293.5,427.5 305.5,427.5 317.5,427.5C 317.5,444.167 317.5,460.833 317.5,477.5C 305.5,477.5 293.5,477.5 281.5,477.5C 281.5,460.833 281.5,444.167 281.5,427.5 Z"/></g>
<g><path style="opacity:1" fill="#525973" d="M 318.5,427.5 C 330.167,427.5 341.833,427.5 353.5,427.5C 353.833,446.512 353.5,465.512 352.5,484.5C 351.914,484.709 351.414,485.043 351,485.5C 344.712,481.735 337.878,479.402 330.5,478.5C 326.555,477.509 322.555,477.176 318.5,477.5C 318.5,460.833 318.5,444.167 318.5,427.5 Z"/></g>
<g><path style="opacity:1" fill="#525973" d="M 355.5,427.5 C 366.98,425.329 376.48,428.662 384,437.5C 390.394,457.974 393.227,478.974 392.5,500.5C 380.391,495.959 368.225,491.292 356,486.5C 355.5,466.836 355.333,447.169 355.5,427.5 Z"/></g>
<g><path style="opacity:1" fill="#58c5f6" d="M 501.5,430.5 C 505.514,430.334 509.514,430.501 513.5,431C 521.803,433.749 525.47,439.582 524.5,448.5C 524.687,454.212 524.354,459.879 523.5,465.5C 520.374,468.099 517.207,468.099 514,465.5C 511.098,457.097 509.765,448.43 510,439.5C 508.736,437.393 506.903,436.393 504.5,436.5C 502.992,434.819 501.992,432.819 501.5,430.5 Z"/></g>
<g><path style="opacity:1" fill="#c0ccc1" d="M 524.5,448.5 C 525.651,453.65 525.817,458.984 525,464.5C 524.617,465.056 524.117,465.389 523.5,465.5C 524.354,459.879 524.687,454.212 524.5,448.5 Z"/></g>
<g><path style="opacity:1" fill="#323853" d="M 411.5,464.5 C 412.96,468.468 415.626,469.468 419.5,467.5C 435.897,467.835 452.23,469.002 468.5,471C 473.091,472.864 477.757,474.53 482.5,476C 488.347,480.091 494.013,484.424 499.5,489C 502.865,491.157 506.032,490.991 509,488.5C 509.311,484.91 510.144,481.577 511.5,478.5C 513.064,487.755 513.731,497.088 513.5,506.5C 513.98,509.685 513.314,512.519 511.5,515C 505.717,516.931 500.051,519.264 494.5,522C 475.21,523.603 455.877,523.936 436.5,523C 426.348,519.545 416.681,515.045 407.5,509.5C 406.261,494.676 404.927,480.009 403.5,465.5C 404.034,458.464 403.034,451.798 400.5,445.5C 400.452,442.687 399.785,440.021 398.5,437.5C 402.441,435.98 405.608,436.98 408,440.5C 408.313,447.868 408.98,455.201 410,462.5C 410.278,463.416 410.778,464.082 411.5,464.5 Z"/></g>
<g><path style="opacity:1" fill="#25435e" d="M 133.5,427.5 C 134.167,443.5 134.833,459.5 135.5,475.5C 146.785,477.478 158.452,478.145 170.5,477.5C 170.833,477.5 171.167,477.5 171.5,477.5C 174.167,477.5 176.833,477.5 179.5,477.5C 224.998,478.333 270.665,478.833 316.5,479C 270.833,479.333 225.167,479.667 179.5,480C 227.668,480.167 275.668,480.667 323.5,481.5C 273.167,481.5 222.833,481.5 172.5,481.5C 171.833,509.5 171.167,537.5 170.5,565.5C 170.5,537.5 170.5,509.5 170.5,481.5C 159.167,481.5 147.833,481.5 136.5,481.5C 136.167,481.5 135.833,481.5 135.5,481.5C 134.833,509.5 134.167,537.5 133.5,565.5C 133.5,537.5 133.5,509.5 133.5,481.5C 107.167,481.5 80.8333,481.5 54.5,481.5C 52.901,481.768 51.5676,481.434 50.5,480.5C 77.5021,480.667 104.502,480.5 131.5,480C 108.5,479.667 85.5,479.333 62.5,479C 85.337,478.832 108.004,478.332 130.5,477.5C 131.5,477.5 132.5,477.5 133.5,477.5C 133.5,460.833 133.5,444.167 133.5,427.5 Z"/></g>
<g><path style="opacity:1" fill="#18b4fc" d="M 172.5,481.5 C 222.833,481.5 273.167,481.5 323.5,481.5C 334.091,482.371 344.091,485.037 353.5,489.5C 353.5,514.833 353.5,540.167 353.5,565.5C 352.668,542.67 352.168,519.67 352,496.5C 351.5,508.162 351.333,519.829 351.5,531.5C 294.167,531.5 236.833,531.5 179.5,531.5C 199.822,530.167 220.489,529.5 241.5,529.5C 264.523,529.705 287.523,529.871 310.5,530C 309.167,529.667 307.833,529.333 306.5,529C 308.813,528.338 311.146,527.838 313.5,527.5C 313.912,525.027 312.912,523.694 310.5,523.5C 308.18,521.774 305.513,521.107 302.5,521.5C 299.645,520.883 296.978,519.883 294.5,518.5C 291.987,516.074 288.987,514.408 285.5,513.5C 281.515,510.233 277.015,509.566 272,511.5C 269.806,510.921 267.64,510.254 265.5,509.5C 262.28,510.148 258.947,509.981 255.5,509C 258.432,508.047 261.432,507.547 264.5,507.5C 264.5,506.167 264.5,504.833 264.5,503.5C 262.5,503.5 260.5,503.5 258.5,503.5C 257.508,503.672 256.842,503.338 256.5,502.5C 253.84,500.503 250.84,499.003 247.5,498C 248.167,497.667 248.833,497.333 249.5,497C 246.854,496.503 244.187,496.336 241.5,496.5C 241.082,495.778 240.416,495.278 239.5,495C 241.271,494.465 241.604,493.631 240.5,492.5C 239.554,492.987 238.554,493.32 237.5,493.5C 236.524,492.805 235.524,492.138 234.5,491.5C 215.961,490.821 197.294,490.155 178.5,489.5C 177.281,490.263 176.281,491.263 175.5,492.5C 175.331,491.603 174.998,490.603 174.5,489.5C 173.818,490.243 173.151,490.909 172.5,491.5C 172.5,488.167 172.5,484.833 172.5,481.5 Z"/></g>
<g><path style="opacity:1" fill="#13baf3" d="M 124.5,489.5 C 126.379,489.393 126.712,489.893 125.5,491C 90.5,491.667 55.5,491.667 20.5,491C 55.3357,490.832 90.0024,490.332 124.5,489.5 Z"/></g>
<g><path style="opacity:1" fill="#5bbbd8" d="M 16.5,416.5 C 16.5,442.167 16.5,467.833 16.5,493.5C 52.5,493.5 88.5,493.5 124.5,493.5C 126.735,493.205 128.735,493.539 130.5,494.5C 92.5,494.5 54.5,494.5 16.5,494.5C 15.1667,468.5 15.1667,442.5 16.5,416.5 Z"/></g>
<g><path style="opacity:1" fill="#c6dee6" d="M 16.5,494.5 C 54.5,494.5 92.5,494.5 130.5,494.5C 130.5,498.167 130.5,501.833 130.5,505.5C 130.167,505.5 129.833,505.5 129.5,505.5C 129.5,502.167 129.5,498.833 129.5,495.5C 91.663,495.832 53.9963,495.498 16.5,494.5 Z"/></g>
<g><path style="opacity:1" fill="#78e3fe" d="M 129.5,505.5 C 129.833,505.5 130.167,505.5 130.5,505.5C 129.791,506.404 128.791,506.737 127.5,506.5C 91.8333,506.5 56.1667,506.5 20.5,506.5C 19.1667,506.5 17.8333,506.5 16.5,506.5C 16.5,509.167 16.5,511.833 16.5,514.5C 15.5233,511.713 15.19,508.713 15.5,505.5C 53.5,505.5 91.5,505.5 129.5,505.5 Z"/></g>
<g><path style="opacity:1" fill="#20afee" d="M 378.5,413.5 C 383.989,417.464 388.322,422.464 391.5,428.5C 390.754,429.736 390.421,431.07 390.5,432.5C 396.509,432.334 402.509,432.501 408.5,433C 409.308,433.308 409.975,433.808 410.5,434.5C 411.475,444.447 411.808,454.447 411.5,464.5C 410.778,464.082 410.278,463.416 410,462.5C 408.98,455.201 408.313,447.868 408,440.5C 405.608,436.98 402.441,435.98 398.5,437.5C 399.785,440.021 400.452,442.687 400.5,445.5C 398.661,442.471 397.327,439.138 396.5,435.5C 395.28,435.887 394.613,436.72 394.5,438C 395.573,439.416 395.573,440.75 394.5,442C 396.057,445.978 396.89,450.145 397,454.5C 397.333,452.5 397.667,450.5 398,448.5C 399.657,457.763 400.657,467.096 401,476.5C 402.296,508.823 403.129,541.156 403.5,573.5C 402.891,563.272 401.891,552.939 400.5,542.5C 400.167,543 399.833,543.5 399.5,544C 400.117,549.047 400.783,554.047 401.5,559C 401.024,562.68 400.024,566.18 398.5,569.5C 399.167,570.167 399.833,570.833 400.5,571.5C 400.167,571.833 399.833,572.167 399.5,572.5C 385.533,571.85 371.533,571.183 357.5,570.5C 355.577,569.692 353.577,569.192 351.5,569C 351.957,568.586 352.291,568.086 352.5,567.5C 351.746,564.223 351.246,560.89 351,557.5C 350.563,562.706 349.73,567.706 348.5,572.5C 348.666,567.489 348.499,562.489 348,557.5C 347.434,555.277 346.6,553.277 345.5,551.5C 344.318,546.458 341.651,542.458 337.5,539.5C 327.918,532.338 319.418,533.671 312,543.5C 305.57,554.401 303.736,566.068 306.5,578.5C 284.5,578.5 262.5,578.5 240.5,578.5C 226.167,578.5 211.833,578.5 197.5,578.5C 174.833,578.5 152.167,578.5 129.5,578.5C 126.753,578.813 124.086,578.48 121.5,577.5C 122.448,572.565 122.781,567.565 122.5,562.5C 123.485,566.634 123.818,570.968 123.5,575.5C 158.179,575.766 192.845,575.266 227.5,574C 216.125,573.856 204.792,573.189 193.5,572C 202.5,571.667 211.5,571.333 220.5,571C 217.639,571.03 215.305,570.197 213.5,568.5C 215.833,568.5 218.167,568.5 220.5,568.5C 222.698,569.165 225.031,569.832 227.5,570.5C 236.482,571.332 245.482,571.832 254.5,572C 247.792,572.289 241.125,572.955 234.5,574C 257.477,573.742 280.477,573.409 303.5,573C 304.504,569.959 304.17,566.959 302.5,564C 302.929,559.254 304.263,554.921 306.5,551C 305.946,549.449 305.28,547.949 304.5,546.5C 304.833,545.833 305.167,545.167 305.5,544.5C 306.167,545.5 306.833,546.5 307.5,547.5C 307.833,547.333 308.167,547.167 308.5,547C 309.737,543.645 311.737,540.812 314.5,538.5C 314.167,538.167 313.833,537.833 313.5,537.5C 271.284,537.352 228.951,537.518 186.5,538C 211.167,538.333 235.833,538.667 260.5,539C 261.738,539.69 261.738,540.19 260.5,540.5C 235.402,539.173 210.402,539.173 185.5,540.5C 183.896,541.287 183.229,542.62 183.5,544.5C 182.671,551.321 182.171,558.321 182,565.5C 181.667,556.833 181.333,548.167 181,539.5C 180.5,538.5 180,537.5 179.5,536.5C 225.163,535.667 270.83,535.167 316.5,535C 268.352,535.146 220.352,534.313 172.5,532.5C 172.5,518.833 172.5,505.167 172.5,491.5C 173.151,490.909 173.818,490.243 174.5,489.5C 174.998,490.603 175.331,491.603 175.5,492.5C 176.281,491.263 177.281,490.263 178.5,489.5C 197.294,490.155 215.961,490.821 234.5,491.5C 215.021,493.163 195.355,494.163 175.5,494.5C 175.5,495.167 175.5,495.833 175.5,496.5C 175.5,499.5 175.5,502.5 175.5,505.5C 204.336,506.83 233.336,506.83 262.5,505.5C 261.675,504.614 260.675,504.281 259.5,504.5C 258.833,504.5 258.5,504.167 258.5,503.5C 260.5,503.5 262.5,503.5 264.5,503.5C 264.5,504.833 264.5,506.167 264.5,507.5C 261.432,507.547 258.432,508.047 255.5,509C 258.947,509.981 262.28,510.148 265.5,509.5C 267.64,510.254 269.806,510.921 272,511.5C 277.015,509.566 281.515,510.233 285.5,513.5C 248.5,513.5 211.5,513.5 174.5,513.5C 174.232,515.099 174.566,516.432 175.5,517.5C 175.5,520.167 175.5,522.833 175.5,525.5C 220.668,526.831 266.002,526.831 311.5,525.5C 311.137,524.817 310.804,524.15 310.5,523.5C 312.912,523.694 313.912,525.027 313.5,527.5C 311.146,527.838 308.813,528.338 306.5,529C 307.833,529.333 309.167,529.667 310.5,530C 287.523,529.871 264.523,529.705 241.5,529.5C 220.489,529.5 199.822,530.167 179.5,531.5C 236.569,532.169 293.736,532.835 351,533.5C 351.464,532.906 351.631,532.239 351.5,531.5C 351.333,519.829 351.5,508.162 352,496.5C 352.168,519.67 352.668,542.67 353.5,565.5C 353.953,566.458 354.619,567.292 355.5,568C 369.5,568.667 383.5,568.667 397.5,568C 398.49,553.579 398.824,539.079 398.5,524.5C 398.75,510.302 398.084,496.302 396.5,482.5C 396.503,467.185 394.336,452.185 390,437.5C 386.659,430.315 381.159,425.982 373.5,424.5C 260.668,423.5 147.668,423.167 34.5,423.5C 34.1667,423.5 33.8333,423.5 33.5,423.5C 147.666,422.667 261.999,422.167 376.5,422C 377.5,421.667 378.5,421.333 379.5,421C 378.549,420.282 378.383,419.449 379,418.5C 380.133,420.211 381.633,420.711 383.5,420C 381.21,418.223 379.543,416.056 378.5,413.5 Z"/></g>
<g><path style="opacity:1" fill="#75e3fe" d="M 259.5,504.5 C 260.675,504.281 261.675,504.614 262.5,505.5C 233.336,506.83 204.336,506.83 175.5,505.5C 203.672,505.831 231.672,505.498 259.5,504.5 Z"/></g>
<g><path style="opacity:1" fill="#56bbe1" d="M 241.5,496.5 C 244.187,496.336 246.854,496.503 249.5,497C 248.833,497.333 248.167,497.667 247.5,498C 250.84,499.003 253.84,500.503 256.5,502.5C 251.12,501.305 246.12,499.305 241.5,496.5 Z"/></g>
<g><path style="opacity:1" fill="#275e8a" d="M 353.5,489.5 C 355.415,489.216 357.081,489.549 358.5,490.5C 357.5,490.5 356.5,490.5 355.5,490.5C 355.5,515.833 355.5,541.167 355.5,566.5C 369.167,566.5 382.833,566.5 396.5,566.5C 397.167,552.5 397.833,538.5 398.5,524.5C 398.824,539.079 398.49,553.579 397.5,568C 383.5,568.667 369.5,568.667 355.5,568C 354.619,567.292 353.953,566.458 353.5,565.5C 353.5,540.167 353.5,514.833 353.5,489.5 Z"/></g>
<g><path style="opacity:1" fill="#fafdfc" d="M 237.5,495.5 C 238.708,496.234 240.041,496.567 241.5,496.5C 246.12,499.305 251.12,501.305 256.5,502.5C 256.842,503.338 257.508,503.672 258.5,503.5C 258.5,504.167 258.833,504.5 259.5,504.5C 231.672,505.498 203.672,505.831 175.5,505.5C 175.5,502.5 175.5,499.5 175.5,496.5C 196.091,495.512 216.758,495.179 237.5,495.5 Z"/></g>
<g><path style="opacity:1" fill="#18b5fc" d="M 358.5,490.5 C 370.717,496.607 383.384,501.607 396.5,505.5C 396.5,509.5 396.5,513.5 396.5,517.5C 396.5,533.833 396.5,550.167 396.5,566.5C 382.833,566.5 369.167,566.5 355.5,566.5C 355.5,541.167 355.5,515.833 355.5,490.5C 356.5,490.5 357.5,490.5 358.5,490.5 Z"/></g>
<g><path style="opacity:1" fill="#c5dee4" d="M 175.5,494.5 C 196.34,494.169 217.007,494.503 237.5,495.5C 216.758,495.179 196.091,495.512 175.5,496.5C 175.5,495.833 175.5,495.167 175.5,494.5 Z"/></g>
<g><path style="opacity:1" fill="#37add1" d="M 234.5,491.5 C 235.524,492.138 236.524,492.805 237.5,493.5C 238.554,493.32 239.554,492.987 240.5,492.5C 241.604,493.631 241.271,494.465 239.5,495C 240.416,495.278 241.082,495.778 241.5,496.5C 240.041,496.567 238.708,496.234 237.5,495.5C 217.007,494.503 196.34,494.169 175.5,494.5C 195.355,494.163 215.021,493.163 234.5,491.5 Z"/></g>
<g><path style="opacity:1" fill="#2277a7" d="M 396.5,482.5 C 398.084,496.302 398.75,510.302 398.5,524.5C 397.833,538.5 397.167,552.5 396.5,566.5C 396.5,550.167 396.5,533.833 396.5,517.5C 397.149,506.006 397.149,494.339 396.5,482.5 Z"/></g>
<g><path style="opacity:1" fill="#51aeda" d="M 285.5,513.5 C 288.987,514.408 291.987,516.074 294.5,518.5C 291.327,517.83 288.327,516.664 285.5,515C 249.168,514.5 212.835,514.333 176.5,514.5C 175.596,515.209 175.263,516.209 175.5,517.5C 174.566,516.432 174.232,515.099 174.5,513.5C 211.5,513.5 248.5,513.5 285.5,513.5 Z"/></g>
<g><path style="opacity:1" fill="#fafcfb" d="M 176.5,514.5 C 212.835,514.333 249.168,514.5 285.5,515C 288.327,516.664 291.327,517.83 294.5,518.5C 296.978,519.883 299.645,520.883 302.5,521.5C 302.5,522.167 302.833,522.5 303.5,522.5C 303.082,523.222 302.416,523.722 301.5,524C 259.835,524.5 218.168,524.667 176.5,524.5C 176.5,521.167 176.5,517.833 176.5,514.5 Z"/></g>
<g><path style="opacity:1" fill="#2e9fdc" d="M 403.5,465.5 C 404.927,480.009 406.261,494.676 407.5,509.5C 416.681,515.045 426.348,519.545 436.5,523C 455.877,523.936 475.21,523.603 494.5,522C 500.051,519.264 505.717,516.931 511.5,515C 513.314,512.519 513.98,509.685 513.5,506.5C 514.477,509.287 514.81,512.287 514.5,515.5C 507.744,518.042 501.077,520.876 494.5,524C 474.5,524.667 454.5,524.667 434.5,524C 432.122,523.489 429.788,522.822 427.5,522C 420.147,517.779 412.647,513.945 405,510.5C 404.084,495.512 403.584,480.512 403.5,465.5 Z"/></g>
<g><path style="opacity:1" fill="#ddfdfd" d="M 129.5,514.5 C 130.482,517.962 130.815,521.629 130.5,525.5C 92.5,525.5 54.5,525.5 16.5,525.5C 53.9963,524.502 91.663,524.168 129.5,524.5C 129.5,521.167 129.5,517.833 129.5,514.5 Z"/></g>
<g><path style="opacity:1" fill="#23a9e3" d="M 54.5,481.5 C 80.8333,481.5 107.167,481.5 133.5,481.5C 133.5,509.5 133.5,537.5 133.5,565.5C 133.557,566.609 133.89,567.609 134.5,568.5C 130.432,570.21 130.765,571.377 135.5,572C 133.866,572.494 132.199,572.66 130.5,572.5C 130.328,570.508 130.995,568.842 132.5,567.5C 131.522,556.552 131.189,545.552 131.5,534.5C 123.826,534.334 116.159,534.5 108.5,535C 109.833,535.333 111.167,535.667 112.5,536C 111.748,536.671 111.414,537.504 111.5,538.5C 106.891,535.867 101.891,534.867 96.5,535.5C 71.3367,534.337 46.0033,534.17 20.5,535C 19.1837,540.803 19.1837,546.636 20.5,552.5C 19.8333,553.5 19.1667,554.5 18.5,555.5C 20.2319,558.871 21.8986,562.204 23.5,565.5C 20.0346,561.461 17.7013,556.795 16.5,551.5C 16.5,549.167 16.5,546.833 16.5,544.5C 17.3195,547.305 17.8195,550.305 18,553.5C 18.4291,546.199 18.5958,539.199 18.5,532.5C 56.0037,532.832 93.3371,532.498 130.5,531.5C 130.822,530.142 130.822,528.475 130.5,526.5C 130.5,526.167 130.5,525.833 130.5,525.5C 130.815,521.629 130.482,517.962 129.5,514.5C 91.8333,514.5 54.1667,514.5 16.5,514.5C 16.5,511.833 16.5,509.167 16.5,506.5C 17.8333,506.5 19.1667,506.5 20.5,506.5C 18.8843,508.416 19.2177,509.916 21.5,511C 38.6667,511.167 55.8333,511.333 73,511.5C 91.7477,511.136 110.414,511.136 129,511.5C 130.059,511.37 130.892,510.87 131.5,510C 94.5,509.667 57.5,509.333 20.5,509C 52.8333,508.667 85.1667,508.333 117.5,508C 121.025,507.821 124.359,507.321 127.5,506.5C 128.791,506.737 129.791,506.404 130.5,505.5C 130.5,501.833 130.5,498.167 130.5,494.5C 128.735,493.539 126.735,493.205 124.5,493.5C 126.607,492.532 128.941,492.198 131.5,492.5C 131.5,489.167 131.5,485.833 131.5,482.5C 105.661,482.831 79.9946,482.498 54.5,481.5 Z"/></g>
<g><path style="opacity:1" fill="#1ab4fd" d="M 20.5,506.5 C 56.1667,506.5 91.8333,506.5 127.5,506.5C 124.359,507.321 121.025,507.821 117.5,508C 85.1667,508.333 52.8333,508.667 20.5,509C 57.5,509.333 94.5,509.667 131.5,510C 130.892,510.87 130.059,511.37 129,511.5C 110.414,511.136 91.7477,511.136 73,511.5C 55.8333,511.333 38.6667,511.167 21.5,511C 19.2177,509.916 18.8843,508.416 20.5,506.5 Z"/></g>
<g><path style="opacity:1" fill="#dffdfd" d="M 176.5,514.5 C 176.5,517.833 176.5,521.167 176.5,524.5C 218.168,524.667 259.835,524.5 301.5,524C 302.416,523.722 303.082,523.222 303.5,522.5C 305.512,523.228 307.512,524.062 309.5,525C 264.835,525.5 220.168,525.667 175.5,525.5C 175.5,522.833 175.5,520.167 175.5,517.5C 175.263,516.209 175.596,515.209 176.5,514.5 Z"/></g>
<g><path style="opacity:1" fill="#69d5fa" d="M 16.5,525.5 C 54.5,525.5 92.5,525.5 130.5,525.5C 130.5,525.833 130.5,526.167 130.5,526.5C 92.5,526.5 54.5,526.5 16.5,526.5C 16.5,532.5 16.5,538.5 16.5,544.5C 16.5,546.833 16.5,549.167 16.5,551.5C 15.1667,542.833 15.1667,534.167 16.5,525.5 Z"/></g>
<g><path style="opacity:1" fill="#5ad1f8" d="M 302.5,521.5 C 305.513,521.107 308.18,521.774 310.5,523.5C 310.804,524.15 311.137,524.817 311.5,525.5C 266.002,526.831 220.668,526.831 175.5,525.5C 220.168,525.667 264.835,525.5 309.5,525C 307.512,524.062 305.512,523.228 303.5,522.5C 302.833,522.5 302.5,522.167 302.5,521.5 Z"/></g>
<g><path style="opacity:1" fill="#1ab5fc" d="M 130.5,526.5 C 130.822,528.475 130.822,530.142 130.5,531.5C 121.779,531.804 113.112,531.471 104.5,530.5C 75.7059,531.159 47.0392,531.826 18.5,532.5C 18.5958,539.199 18.4291,546.199 18,553.5C 17.8195,550.305 17.3195,547.305 16.5,544.5C 16.5,538.5 16.5,532.5 16.5,526.5C 54.5,526.5 92.5,526.5 130.5,526.5 Z"/></g>
<g><path style="opacity:1" fill="#27b2e2" d="M 130.5,531.5 C 93.3371,532.498 56.0037,532.832 18.5,532.5C 47.0392,531.826 75.7059,531.159 104.5,530.5C 113.112,531.471 121.779,531.804 130.5,531.5 Z"/></g>
<g><path style="opacity:1" fill="#28b2e2" d="M 179.5,531.5 C 236.833,531.5 294.167,531.5 351.5,531.5C 351.631,532.239 351.464,532.906 351,533.5C 293.736,532.835 236.569,532.169 179.5,531.5 Z"/></g>
<g><path style="opacity:1" fill="#256695" d="M 135.5,481.5 C 135.5,509.833 135.5,538.167 135.5,566.5C 146.833,566.5 158.167,566.5 169.5,566.5C 170.167,566.5 170.5,566.167 170.5,565.5C 171.167,537.5 171.833,509.5 172.5,481.5C 172.5,484.833 172.5,488.167 172.5,491.5C 172.5,505.167 172.5,518.833 172.5,532.5C 172.667,543.838 172.5,555.172 172,566.5C 171.5,567 171,567.5 170.5,568C 158.505,568.5 146.505,568.667 134.5,568.5C 133.89,567.609 133.557,566.609 133.5,565.5C 134.167,537.5 134.833,509.5 135.5,481.5 Z"/></g>
<g><path style="opacity:1" fill="#1b93d0" d="M 136.5,481.5 C 147.833,481.5 159.167,481.5 170.5,481.5C 170.5,509.5 170.5,537.5 170.5,565.5C 170.5,566.167 170.167,566.5 169.5,566.5C 169.5,538.5 169.5,510.5 169.5,482.5C 158.321,482.828 147.321,482.495 136.5,481.5 Z"/></g>
<g><path style="opacity:1" fill="#18b5fd" d="M 135.5,481.5 C 135.833,481.5 136.167,481.5 136.5,481.5C 147.321,482.495 158.321,482.828 169.5,482.5C 169.5,510.5 169.5,538.5 169.5,566.5C 158.167,566.5 146.833,566.5 135.5,566.5C 135.5,538.167 135.5,509.833 135.5,481.5 Z"/></g>
<g><path style="opacity:1" fill="#18b4fc" d="M 172.5,532.5 C 220.352,534.313 268.352,535.146 316.5,535C 270.83,535.167 225.163,535.667 179.5,536.5C 180,537.5 180.5,538.5 181,539.5C 181.333,548.167 181.667,556.833 182,565.5C 182.171,558.321 182.671,551.321 183.5,544.5C 183.334,552.174 183.5,559.841 184,567.5C 184.671,568.252 185.504,568.586 186.5,568.5C 195.5,568.5 204.5,568.5 213.5,568.5C 215.305,570.197 217.639,571.03 220.5,571C 211.5,571.333 202.5,571.667 193.5,572C 204.792,573.189 216.125,573.856 227.5,574C 192.845,575.266 158.179,575.766 123.5,575.5C 123.818,570.968 123.485,566.634 122.5,562.5C 122.057,553.113 118.391,545.446 111.5,539.5C 111.5,539.167 111.5,538.833 111.5,538.5C 111.414,537.504 111.748,536.671 112.5,536C 111.167,535.667 109.833,535.333 108.5,535C 116.159,534.5 123.826,534.334 131.5,534.5C 131.189,545.552 131.522,556.552 132.5,567.5C 130.995,568.842 130.328,570.508 130.5,572.5C 132.199,572.66 133.866,572.494 135.5,572C 130.765,571.377 130.432,570.21 134.5,568.5C 146.505,568.667 158.505,568.5 170.5,568C 171,567.5 171.5,567 172,566.5C 172.5,555.172 172.667,543.838 172.5,532.5 Z"/></g>
<g><path style="opacity:1" fill="#5e6f78" d="M 514.5,534.5 C 511.764,537.032 508.43,538.365 504.5,538.5C 507.625,536.874 510.958,535.54 514.5,534.5 Z"/></g>
<g><path style="opacity:1" fill="#1db4f8" d="M 96.5,535.5 C 92.6587,536.992 89.3253,539.325 86.5,542.5C 83.3147,542.722 82.3147,544.222 83.5,547C 79.23,547.666 78.23,549.499 80.5,552.5C 79.3887,553.611 78.722,554.945 78.5,556.5C 79.5423,560.799 79.7089,565.132 79,569.5C 78.3333,564.833 77.6667,560.167 77,555.5C 76.6258,556.416 76.1258,557.25 75.5,558C 76.4692,562.737 76.8025,567.57 76.5,572.5C 71.9361,572.974 67.4361,572.974 63,572.5C 62.0546,572.905 61.3879,573.572 61,574.5C 58.3659,572.587 55.3659,571.587 52,571.5C 48.5274,572.163 45.0274,572.496 41.5,572.5C 34.5976,572.378 28.5976,570.045 23.5,565.5C 21.8986,562.204 20.2319,558.871 18.5,555.5C 19.1667,554.5 19.8333,553.5 20.5,552.5C 19.1837,546.636 19.1837,540.803 20.5,535C 46.0033,534.17 71.3367,534.337 96.5,535.5 Z"/></g>
<g><path style="opacity:1" fill="#18b5fe" d="M 220.5,568.5 C 233.504,568.667 246.504,568.5 259.5,568C 260.485,558.917 260.818,549.751 260.5,540.5C 261.738,540.19 261.738,539.69 260.5,539C 235.833,538.667 211.167,538.333 186.5,538C 228.951,537.518 271.284,537.352 313.5,537.5C 313.833,537.833 314.167,538.167 314.5,538.5C 311.737,540.812 309.737,543.645 308.5,547C 308.167,547.167 307.833,547.333 307.5,547.5C 306.833,546.5 306.167,545.5 305.5,544.5C 305.167,545.167 304.833,545.833 304.5,546.5C 305.28,547.949 305.946,549.449 306.5,551C 304.263,554.921 302.929,559.254 302.5,564C 304.17,566.959 304.504,569.959 303.5,573C 280.477,573.409 257.477,573.742 234.5,574C 241.125,572.955 247.792,572.289 254.5,572C 245.482,571.832 236.482,571.332 227.5,570.5C 225.031,569.832 222.698,569.165 220.5,568.5 Z"/></g>
<g><path style="opacity:1" fill="#43525e" d="M 504.5,538.5 C 503.22,539.931 501.553,540.598 499.5,540.5C 500.78,539.069 502.447,538.402 504.5,538.5 Z"/></g>
<g><path style="opacity:1" fill="#ecf1f2" d="M 514.5,517.5 C 515.833,535.167 515.833,552.833 514.5,570.5C 514.5,562.5 514.5,554.5 514.5,546.5C 514.44,545.957 514.107,545.624 513.5,545.5C 506.894,549.3 499.894,550.3 492.5,548.5C 494.856,545.814 497.189,543.147 499.5,540.5C 501.553,540.598 503.22,539.931 504.5,538.5C 508.43,538.365 511.764,537.032 514.5,534.5C 514.5,528.833 514.5,523.167 514.5,517.5 Z"/></g>
<g><path style="opacity:1" fill="#343d47" d="M 104.5,539.5 C 114.346,545.182 119.013,553.849 118.5,565.5C 119.006,575.647 115.339,583.814 107.5,590C 111.152,590.499 114.818,590.665 118.5,590.5C 111.679,591.655 104.679,591.821 97.5,591C 94.7982,589.988 92.4649,588.488 90.5,586.5C 88.8248,583.755 87.1581,581.088 85.5,578.5C 83.8086,569.04 84.3086,559.706 87,550.5C 90.608,543.121 96.4413,539.454 104.5,539.5 Z"/></g>
<g><path style="opacity:1" fill="#09334d" d="M 337.5,539.5 C 335.167,539.5 332.833,539.5 330.5,539.5C 322.114,538.95 316.281,542.617 313,550.5C 308.943,559.634 308.443,568.967 311.5,578.5C 310.167,578.5 308.833,578.5 307.5,578.5C 307.167,578.5 306.833,578.5 306.5,578.5C 303.736,566.068 305.57,554.401 312,543.5C 319.418,533.671 327.918,532.338 337.5,539.5 Z"/></g>
<g><path style="opacity:1" fill="#18b5fd" d="M 254.5,541.5 C 256.167,541.5 257.833,541.5 259.5,541.5C 259.802,549.918 259.469,558.252 258.5,566.5C 234.167,566.5 209.833,566.5 185.5,566.5C 185.5,558.167 185.5,549.833 185.5,541.5C 208.5,541.5 231.5,541.5 254.5,541.5 Z"/></g>
<g><path style="opacity:1" fill="#1e6189" d="M 39.5,543.5 C 49.1896,543.168 58.8563,543.502 68.5,544.5C 63.6667,544.833 58.8333,545.167 54,545.5C 48.7843,545.494 43.951,544.827 39.5,543.5 Z"/></g>
<g><path style="opacity:1" fill="#315971" d="M 499.5,540.5 C 497.189,543.147 494.856,545.814 492.5,548.5C 499.894,550.3 506.894,549.3 513.5,545.5C 514.107,545.624 514.44,545.957 514.5,546.5C 510.946,548.109 507.279,549.442 503.5,550.5C 498.968,550.818 494.634,550.485 490.5,549.5C 492.522,545.478 495.522,542.478 499.5,540.5 Z"/></g>
<g><path style="opacity:1" fill="#1c628d" d="M 39.5,547.5 C 49.1896,547.168 58.8563,547.502 68.5,548.5C 63.6667,548.833 58.8333,549.167 54,549.5C 48.7843,549.494 43.951,548.827 39.5,547.5 Z"/></g>
<g><path style="opacity:1" fill="#2c719b" d="M 39.5,550.5 C 49.1896,550.168 58.8563,550.502 68.5,551.5C 68.2907,552.086 67.9574,552.586 67.5,553C 58.1726,553.5 48.8393,553.666 39.5,553.5C 39.5,552.5 39.5,551.5 39.5,550.5 Z"/></g>
<g><path style="opacity:1" fill="#27749d" d="M 39.5,554.5 C 49.1896,554.168 58.8563,554.502 68.5,555.5C 68.2907,556.086 67.9574,556.586 67.5,557C 58.1726,557.5 48.8393,557.666 39.5,557.5C 39.5,556.5 39.5,555.5 39.5,554.5 Z"/></g>
<g><path style="opacity:1" fill="#0a364f" d="M 96.5,535.5 C 101.891,534.867 106.891,535.867 111.5,538.5C 111.5,538.833 111.5,539.167 111.5,539.5C 109.167,539.5 106.833,539.5 104.5,539.5C 96.4413,539.454 90.608,543.121 87,550.5C 84.3086,559.706 83.8086,569.04 85.5,578.5C 84.1667,578.5 82.8333,578.5 81.5,578.5C 80.3671,570.579 80.2004,562.579 81,554.5C 83.0619,550.605 84.8952,546.605 86.5,542.5C 89.3253,539.325 92.6587,536.992 96.5,535.5 Z"/></g>
<g><path style="opacity:1" fill="#333d47" d="M 330.5,539.5 C 340.068,545.132 344.735,553.632 344.5,565C 345.237,575.702 341.237,584.036 332.5,590C 336.486,590.499 340.486,590.666 344.5,590.5C 337.345,591.655 330.012,591.822 322.5,591C 319.669,588.999 317.003,586.833 314.5,584.5C 313.793,580.672 311.46,579.005 307.5,579.5C 307.5,579.167 307.5,578.833 307.5,578.5C 308.833,578.5 310.167,578.5 311.5,578.5C 308.443,568.967 308.943,559.634 313,550.5C 316.281,542.617 322.114,538.95 330.5,539.5 Z"/></g>
<g><path style="opacity:1" fill="#325b7c" d="M 39.5,558.5 C 49.333,558.028 58.9997,558.528 68.5,560C 63.6667,560.167 58.8333,560.333 54,560.5C 48.7843,560.494 43.951,559.827 39.5,558.5 Z"/></g>
<g><path style="opacity:1" fill="#a4cae2" d="M 323.5,547.5 C 332.438,547.267 337.604,551.6 339,560.5C 339.731,567.245 338.398,573.578 335,579.5C 328.398,585.226 322.398,584.559 317,577.5C 313.357,568.975 313.69,560.641 318,552.5C 319.73,550.598 321.563,548.931 323.5,547.5 Z"/></g>
<g><path style="opacity:1" fill="#3f535e" d="M 332.5,554.5 C 333.497,554.47 334.164,554.97 334.5,556C 330.25,562.029 329.583,561.529 332.5,554.5 Z"/></g>
<g><path style="opacity:1" fill="#5d7085" d="M 325.5,550.5 C 326.5,550.5 327.5,550.5 328.5,550.5C 327.499,561.164 326.499,561.164 325.5,550.5 Z"/></g>
<g><path style="opacity:1" fill="#506577" d="M 319.5,554.5 C 322.195,555.884 323.195,557.884 322.5,560.5C 320.585,558.929 319.585,556.929 319.5,554.5 Z"/></g>
<g><path style="opacity:1" fill="#5ac8fc" d="M 400.5,445.5 C 403.034,451.798 404.034,458.464 403.5,465.5C 403.584,480.512 404.084,495.512 405,510.5C 412.647,513.945 420.147,517.779 427.5,522C 429.788,522.822 432.122,523.489 434.5,524C 454.5,524.667 474.5,524.667 494.5,524C 501.077,520.876 507.744,518.042 514.5,515.5C 514.5,516.167 514.5,516.833 514.5,517.5C 514.5,523.167 514.5,528.833 514.5,534.5C 510.958,535.54 507.625,536.874 504.5,538.5C 502.447,538.402 500.78,539.069 499.5,540.5C 495.522,542.478 492.522,545.478 490.5,549.5C 475.5,549.5 460.5,549.5 445.5,549.5C 444.5,548.833 443.5,548.167 442.5,547.5C 441.167,544.167 438.833,541.833 435.5,540.5C 433.447,540.598 431.78,539.931 430.5,538.5C 426.105,536.313 421.438,534.646 416.5,533.5C 413.645,530.433 410.311,529.433 406.5,530.5C 405.167,533.833 405.167,537.167 406.5,540.5C 406.953,541.458 407.619,542.292 408.5,543C 413.596,545.384 418.929,546.884 424.5,547.5C 426.493,549.163 428.826,550.33 431.5,551C 436.167,551.333 440.833,551.667 445.5,552C 446.044,552.717 446.711,553.217 447.5,553.5C 448.625,555.129 449.959,556.629 451.5,558C 463.167,558.667 474.833,558.667 486.5,558C 487.422,555.706 488.422,553.539 489.5,551.5C 494.363,551.819 499.03,551.486 503.5,550.5C 507.279,549.442 510.946,548.109 514.5,546.5C 514.5,554.5 514.5,562.5 514.5,570.5C 514.204,572.403 513.537,574.07 512.5,575.5C 505.232,573.695 497.565,572.861 489.5,573C 488.5,571.333 487.5,569.667 486.5,568C 474.833,567.333 463.167,567.333 451.5,568C 449.833,569.667 448.167,571.333 446.5,573C 432.171,573.5 417.837,573.667 403.5,573.5C 403.129,541.156 402.296,508.823 401,476.5C 400.657,467.096 399.657,457.763 398,448.5C 397.667,450.5 397.333,452.5 397,454.5C 396.89,450.145 396.057,445.978 394.5,442C 395.573,440.75 395.573,439.416 394.5,438C 394.613,436.72 395.28,435.887 396.5,435.5C 397.327,439.138 398.661,442.471 400.5,445.5 Z"/></g>
<g><path style="opacity:1" fill="#2e3b4e" d="M 446.5,550.5 C 461.01,550.171 475.343,550.504 489.5,551.5C 488.422,553.539 487.422,555.706 486.5,558C 474.833,558.667 463.167,558.667 451.5,558C 449.959,556.629 448.625,555.129 447.5,553.5C 447.443,552.391 447.11,551.391 446.5,550.5 Z"/></g>
<g><path style="opacity:1" fill="#1f719b" d="M 424.5,547.5 C 428.377,548.789 432.377,549.456 436.5,549.5C 438.952,549.461 440.952,548.794 442.5,547.5C 443.5,548.167 444.5,548.833 445.5,549.5C 445.5,550.167 445.833,550.5 446.5,550.5C 447.11,551.391 447.443,552.391 447.5,553.5C 446.711,553.217 446.044,552.717 445.5,552C 440.833,551.667 436.167,551.333 431.5,551C 428.826,550.33 426.493,549.163 424.5,547.5 Z"/></g>
<g><path style="opacity:1" fill="#559abd" d="M 445.5,549.5 C 460.5,549.5 475.5,549.5 490.5,549.5C 494.634,550.485 498.968,550.818 503.5,550.5C 499.03,551.486 494.363,551.819 489.5,551.5C 475.343,550.504 461.01,550.171 446.5,550.5C 445.833,550.5 445.5,550.167 445.5,549.5 Z"/></g>
<g><path style="opacity:1" fill="#2b678c" d="M 407.5,539.5 C 408.267,540.172 408.934,541.005 409.5,542C 414.857,543.171 419.857,545.004 424.5,547.5C 418.929,546.884 413.596,545.384 408.5,543C 407.619,542.292 406.953,541.458 406.5,540.5C 407.167,540.5 407.5,540.167 407.5,539.5 Z"/></g>
<g><path style="opacity:1" fill="#485c69" d="M 435.5,540.5 C 438.833,541.833 441.167,544.167 442.5,547.5C 439.833,545.5 437.5,543.167 435.5,540.5 Z"/></g>
<g><path style="opacity:1" fill="#f2f5f3" d="M 407.5,532.5 C 410.545,532.508 413.545,532.841 416.5,533.5C 420.664,536.334 425.331,538.001 430.5,538.5C 431.78,539.931 433.447,540.598 435.5,540.5C 437.5,543.167 439.833,545.5 442.5,547.5C 440.952,548.794 438.952,549.461 436.5,549.5C 432.377,549.456 428.377,548.789 424.5,547.5C 419.857,545.004 414.857,543.171 409.5,542C 408.934,541.005 408.267,540.172 407.5,539.5C 407.5,537.167 407.5,534.833 407.5,532.5 Z"/></g>
<g><path style="opacity:1" fill="#5b6d75" d="M 416.5,533.5 C 421.438,534.646 426.105,536.313 430.5,538.5C 425.331,538.001 420.664,536.334 416.5,533.5 Z"/></g>
<g><path style="opacity:1" fill="#17262a" d="M 406.5,530.5 C 408.698,530.409 409.031,531.075 407.5,532.5C 407.5,534.833 407.5,537.167 407.5,539.5C 407.5,540.167 407.167,540.5 406.5,540.5C 405.167,537.167 405.167,533.833 406.5,530.5 Z"/></g>
<g><path style="opacity:1" fill="#5d7d8a" d="M 406.5,530.5 C 410.311,529.433 413.645,530.433 416.5,533.5C 413.545,532.841 410.545,532.508 407.5,532.5C 409.031,531.075 408.698,530.409 406.5,530.5 Z"/></g>
<g><path style="opacity:1" fill="#39434f" d="M 325.5,561.5 C 326.822,561.33 327.989,561.663 329,562.5C 329.667,564.5 329.667,566.5 329,568.5C 327.667,569.833 326.333,569.833 325,568.5C 324.297,566.071 324.463,563.738 325.5,561.5 Z"/></g>
<g><path style="opacity:1" fill="#2a6598" d="M 218.5,561.5 C 220.833,561.5 223.167,561.5 225.5,561.5C 225.5,562.5 225.5,563.5 225.5,564.5C 223.167,564.5 220.833,564.5 218.5,564.5C 218.5,563.5 218.5,562.5 218.5,561.5 Z"/></g>
<g><path style="opacity:1" fill="#1a5370" d="M 345.5,551.5 C 346.6,553.277 347.434,555.277 348,557.5C 348.499,562.489 348.666,567.489 348.5,572.5C 348.167,572.5 347.833,572.5 347.5,572.5C 347.824,565.357 347.158,558.357 345.5,551.5 Z"/></g>
<g><path style="opacity:1" fill="#384a57" d="M 316.5,564.5 C 318.429,564.231 320.095,564.731 321.5,566C 320.667,566.167 319.833,566.333 319,566.5C 317.624,566.316 316.791,565.649 316.5,564.5 Z"/></g>
<g><path style="opacity:1" fill="#475768" d="M 332.5,564.5 C 334.167,564.5 335.833,564.5 337.5,564.5C 337.5,565.5 337.5,566.5 337.5,567.5C 335.345,567.628 333.345,567.128 331.5,566C 332.056,565.617 332.389,565.117 332.5,564.5 Z"/></g>
<g><path style="opacity:1" fill="#2486c2" d="M 185.5,540.5 C 208.673,540.169 231.673,540.502 254.5,541.5C 231.5,541.5 208.5,541.5 185.5,541.5C 185.5,549.833 185.5,558.167 185.5,566.5C 209.833,566.5 234.167,566.5 258.5,566.5C 234.5,567.167 210.5,567.833 186.5,568.5C 185.504,568.586 184.671,568.252 184,567.5C 183.5,559.841 183.334,552.174 183.5,544.5C 183.229,542.62 183.896,541.287 185.5,540.5 Z"/></g>
<g><path style="opacity:1" fill="#a5cce4" d="M 97.5,547.5 C 105.985,547.146 111.151,551.146 113,559.5C 113.952,565.362 113.285,571.028 111,576.5C 107.578,583.296 102.411,585.129 95.5,582C 89.8021,574.862 87.9688,566.695 90,557.5C 91.803,553.523 94.303,550.189 97.5,547.5 Z"/></g>
<g><path style="opacity:1" fill="#3d4553" d="M 99.5,561.5 C 103.648,561.453 105.148,563.453 104,567.5C 102.688,569.658 101.022,569.991 99,568.5C 98.2967,566.071 98.4634,563.738 99.5,561.5 Z"/></g>
<g><path style="opacity:1" fill="#405361" d="M 106.5,564.5 C 108.288,564.215 109.955,564.548 111.5,565.5C 110.667,565.833 109.833,566.167 109,566.5C 107.624,566.316 106.791,565.649 106.5,564.5 Z"/></g>
<g><path style="opacity:1" fill="#445561" d="M 90.5,564.5 C 98.4677,565.484 98.4677,566.484 90.5,567.5C 90.5,566.5 90.5,565.5 90.5,564.5 Z"/></g>
<g><path style="opacity:1" fill="#506171" d="M 107.5,554.5 C 108.289,554.783 108.956,555.283 109.5,556C 108.695,557.972 107.361,559.472 105.5,560.5C 105.167,560.167 104.833,559.833 104.5,559.5C 105.763,557.971 106.763,556.305 107.5,554.5 Z"/></g>
<g><path style="opacity:1" fill="#445063" d="M 93.5,554.5 C 95.952,555.736 97.1187,557.736 97,560.5C 94.7355,559.084 93.5688,557.084 93.5,554.5 Z"/></g>
<g><path style="opacity:1" fill="#48576b" d="M 100.5,550.5 C 101.586,550.62 102.253,551.287 102.5,552.5C 102,554.5 101.5,556.5 101,558.5C 100.503,555.854 100.336,553.187 100.5,550.5 Z"/></g>
<g><path style="opacity:1" fill="#29789f" d="M 185.5,540.5 C 210.402,539.173 235.402,539.173 260.5,540.5C 260.818,549.751 260.485,558.917 259.5,568C 246.504,568.5 233.504,568.667 220.5,568.5C 218.167,568.5 215.833,568.5 213.5,568.5C 204.5,568.5 195.5,568.5 186.5,568.5C 210.5,567.833 234.5,567.167 258.5,566.5C 259.469,558.252 259.802,549.918 259.5,541.5C 257.833,541.5 256.167,541.5 254.5,541.5C 231.673,540.502 208.673,540.169 185.5,540.5 Z"/></g>
<g><path style="opacity:1" fill="#2eb4f0" d="M 86.5,542.5 C 84.8952,546.605 83.0619,550.605 81,554.5C 80.2004,562.579 80.3671,570.579 81.5,578.5C 72.4229,578.518 63.4229,577.685 54.5,576C 49.924,575.25 45.5907,574.083 41.5,572.5C 45.0274,572.496 48.5274,572.163 52,571.5C 55.3659,571.587 58.3659,572.587 61,574.5C 61.3879,573.572 62.0546,572.905 63,572.5C 67.4361,572.974 71.9361,572.974 76.5,572.5C 76.8025,567.57 76.4692,562.737 75.5,558C 76.1258,557.25 76.6258,556.416 77,555.5C 77.6667,560.167 78.3333,564.833 79,569.5C 79.7089,565.132 79.5423,560.799 78.5,556.5C 78.722,554.945 79.3887,553.611 80.5,552.5C 78.23,549.499 79.23,547.666 83.5,547C 82.3147,544.222 83.3147,542.722 86.5,542.5 Z"/></g>
<g><path style="opacity:1" fill="#445c69" d="M 96.5,570.5 C 97.3764,570.369 98.0431,570.702 98.5,571.5C 97.396,573.389 96.0627,575.055 94.5,576.5C 94.1667,576.167 93.8333,575.833 93.5,575.5C 94.9524,574.06 95.9524,572.394 96.5,570.5 Z"/></g>
<g><path style="opacity:1" fill="#47596c" d="M 322.5,570.5 C 322.973,572.97 322.139,575.304 320,577.5C 319.333,576.167 319.333,574.833 320,573.5C 321.045,572.627 321.878,571.627 322.5,570.5 Z"/></g>
<g><path style="opacity:1" fill="#1ab6fb" d="M 403.5,573.5 C 417.837,573.667 432.171,573.5 446.5,573C 448.167,571.333 449.833,569.667 451.5,568C 463.167,567.333 474.833,567.333 486.5,568C 487.5,569.667 488.5,571.333 489.5,573C 497.565,572.861 505.232,573.695 512.5,575.5C 511.5,576.167 510.5,576.833 509.5,577.5C 471.161,578.913 432.828,578.58 394.5,576.5C 379.859,577.634 365.193,577.801 350.5,577C 348.893,575.951 348.227,574.451 348.5,572.5C 349.73,567.706 350.563,562.706 351,557.5C 351.246,560.89 351.746,564.223 352.5,567.5C 352.291,568.086 351.957,568.586 351.5,569C 353.577,569.192 355.577,569.692 357.5,570.5C 371.533,571.183 385.533,571.85 399.5,572.5C 399.833,572.167 400.167,571.833 400.5,571.5C 399.833,570.833 399.167,570.167 398.5,569.5C 400.024,566.18 401.024,562.68 401.5,559C 400.783,554.047 400.117,549.047 399.5,544C 399.833,543.5 400.167,543 400.5,542.5C 401.891,552.939 402.891,563.272 403.5,573.5 Z"/></g>
<g><path style="opacity:1" fill="#485c6c" d="M 330.5,570.5 C 333.698,571.854 334.864,574.187 334,577.5C 332.121,575.473 330.954,573.14 330.5,570.5 Z"/></g>
<g><path style="opacity:1" fill="#485b6d" d="M 104.5,570.5 C 106.193,571.475 107.693,572.808 109,574.5C 109.563,575.725 109.23,576.725 108,577.5C 106.807,575.114 105.64,572.78 104.5,570.5 Z"/></g>
<g><path style="opacity:1" fill="#192024" d="M 330.5,539.5 C 332.833,539.5 335.167,539.5 337.5,539.5C 341.651,542.458 344.318,546.458 345.5,551.5C 347.158,558.357 347.824,565.357 347.5,572.5C 347.5,573.167 347.5,573.833 347.5,574.5C 346.549,575.919 346.216,577.585 346.5,579.5C 349.698,578.964 352.365,579.631 354.5,581.5C 353.833,582.833 353.167,584.167 352.5,585.5C 350.348,587.985 347.681,589.651 344.5,590.5C 340.486,590.666 336.486,590.499 332.5,590C 341.237,584.036 345.237,575.702 344.5,565C 344.735,553.632 340.068,545.132 330.5,539.5 Z"/></g>
<g><path style="opacity:1" fill="#1cb1fe" d="M 241.5,575.5 C 257.514,575.167 273.514,575.501 289.5,576.5C 254.838,577.667 220.171,577.833 185.5,577C 204.338,576.832 223.004,576.332 241.5,575.5 Z"/></g>
<g><path style="opacity:1" fill="#3eafe4" d="M 347.5,572.5 C 347.833,572.5 348.167,572.5 348.5,572.5C 348.227,574.451 348.893,575.951 350.5,577C 365.193,577.801 379.859,577.634 394.5,576.5C 432.828,578.58 471.161,578.913 509.5,577.5C 509.082,578.222 508.416,578.722 507.5,579C 493.504,579.5 479.504,579.667 465.5,579.5C 451.5,579.5 437.5,579.5 423.5,579.5C 400.833,579.5 378.167,579.5 355.5,579.5C 353.052,578.527 350.385,578.194 347.5,578.5C 347.5,577.167 347.5,575.833 347.5,574.5C 347.5,573.833 347.5,573.167 347.5,572.5 Z"/></g>
<g><path style="opacity:1" fill="#192125" d="M 104.5,539.5 C 106.833,539.5 109.167,539.5 111.5,539.5C 118.391,545.446 122.057,553.113 122.5,562.5C 122.781,567.565 122.448,572.565 121.5,577.5C 124.086,578.48 126.753,578.813 129.5,578.5C 129.5,579.167 129.5,579.833 129.5,580.5C 128.833,581.833 128.167,583.167 127.5,584.5C 125.37,586.127 123.37,587.96 121.5,590C 120.552,590.483 119.552,590.649 118.5,590.5C 114.818,590.665 111.152,590.499 107.5,590C 115.339,583.814 119.006,575.647 118.5,565.5C 119.013,553.849 114.346,545.182 104.5,539.5 Z"/></g>
<g><path style="opacity:1" fill="#9bc3ca" d="M 129.5,578.5 C 152.167,578.5 174.833,578.5 197.5,578.5C 197.5,578.833 197.5,579.167 197.5,579.5C 174.758,579.178 152.092,579.511 129.5,580.5C 129.5,579.833 129.5,579.167 129.5,578.5 Z"/></g>
<g><path style="opacity:1" fill="#4a7c9c" d="M 197.5,578.5 C 211.833,578.5 226.167,578.5 240.5,578.5C 240.5,578.833 240.5,579.167 240.5,579.5C 235.833,579.5 231.167,579.5 226.5,579.5C 216.985,579.173 207.652,579.506 198.5,580.5C 197.833,580.5 197.5,580.167 197.5,579.5C 197.5,579.167 197.5,578.833 197.5,578.5 Z"/></g>
<g><path style="opacity:1" fill="#78b5cf" d="M 240.5,578.5 C 262.5,578.5 284.5,578.5 306.5,578.5C 306.833,578.5 307.167,578.5 307.5,578.5C 307.5,578.833 307.5,579.167 307.5,579.5C 285.092,579.178 262.758,579.511 240.5,580.5C 240.5,580.167 240.5,579.833 240.5,579.5C 240.5,579.167 240.5,578.833 240.5,578.5 Z"/></g>
<g><path style="opacity:1" fill="#677d92" d="M 326.5,572.5 C 328.118,575.171 328.785,578.171 328.5,581.5C 327.5,581.5 326.5,581.5 325.5,581.5C 325.508,578.455 325.841,575.455 326.5,572.5 Z"/></g>
<g><path style="opacity:1" fill="#3f7fa1" d="M 347.5,574.5 C 347.5,575.833 347.5,577.167 347.5,578.5C 350.385,578.194 353.052,578.527 355.5,579.5C 355.672,580.492 355.338,581.158 354.5,581.5C 352.365,579.631 349.698,578.964 346.5,579.5C 346.216,577.585 346.549,575.919 347.5,574.5 Z"/></g>
<g><path style="opacity:1" fill="#486070" d="M 100.5,572.5 C 102.026,573.492 102.693,574.992 102.5,577C 102.167,578.167 101.833,579.333 101.5,580.5C 100.52,577.914 100.187,575.247 100.5,572.5 Z"/></g>
<g><path style="opacity:1" fill="#fafcfc" d="M 197.5,579.5 C 197.5,580.167 197.833,580.5 198.5,580.5C 198.893,582.284 199.559,583.95 200.5,585.5C 188.505,586.167 176.338,586.5 164,586.5C 151.481,586.499 139.314,585.832 127.5,584.5C 128.167,583.167 128.833,581.833 129.5,580.5C 152.092,579.511 174.758,579.178 197.5,579.5 Z"/></g>
<g><path style="opacity:1" fill="#343d45" d="M 226.5,579.5 C 224.81,583.697 222.143,587.197 218.5,590C 223.194,590.564 227.86,590.397 232.5,589.5C 231.737,590.268 230.737,590.768 229.5,591C 222.167,591.667 214.833,591.667 207.5,591C 205.004,589.334 202.671,587.5 200.5,585.5C 199.559,583.95 198.893,582.284 198.5,580.5C 207.652,579.506 216.985,579.173 226.5,579.5 Z"/></g>
<g><path style="opacity:1" fill="#181f22" d="M 226.5,579.5 C 231.167,579.5 235.833,579.5 240.5,579.5C 240.5,579.833 240.5,580.167 240.5,580.5C 239.833,581.833 239.167,583.167 238.5,584.5C 236.5,586.167 234.5,587.833 232.5,589.5C 227.86,590.397 223.194,590.564 218.5,590C 222.143,587.197 224.81,583.697 226.5,579.5 Z"/></g>
<g><path style="opacity:1" fill="#f6fbfb" d="M 307.5,579.5 C 311.46,579.005 313.793,580.672 314.5,584.5C 302.185,585.832 289.518,586.499 276.5,586.5C 263.482,586.499 250.815,585.832 238.5,584.5C 239.167,583.167 239.833,581.833 240.5,580.5C 262.758,579.511 285.092,579.178 307.5,579.5 Z"/></g>
<g><path style="opacity:1" fill="#f8fbfb" d="M 355.5,579.5 C 378.167,579.5 400.833,579.5 423.5,579.5C 423.893,581.284 424.559,582.95 425.5,584.5C 413.686,585.832 401.519,586.499 389,586.5C 376.662,586.5 364.495,586.167 352.5,585.5C 353.167,584.167 353.833,582.833 354.5,581.5C 355.338,581.158 355.672,580.492 355.5,579.5 Z"/></g>
<g><path style="opacity:1" fill="#1a2024" d="M 464.5,582.5 C 463.925,584.411 462.925,586.078 461.5,587.5C 459.784,589.025 457.784,590.025 455.5,590.5C 451.486,590.666 447.486,590.499 443.5,590C 447.026,587.974 449.693,585.141 451.5,581.5C 453.667,581.167 455.833,580.833 458,580.5C 460.61,580.533 462.777,581.2 464.5,582.5 Z"/></g>
<g><path style="opacity:1" fill="#353f47" d="M 423.5,579.5 C 437.5,579.5 451.5,579.5 465.5,579.5C 465.737,580.791 465.404,581.791 464.5,582.5C 462.777,581.2 460.61,580.533 458,580.5C 455.833,580.833 453.667,581.167 451.5,581.5C 449.693,585.141 447.026,587.974 443.5,590C 447.486,590.499 451.486,590.666 455.5,590.5C 448.345,591.655 441.012,591.822 433.5,591C 430.669,588.999 428.003,586.833 425.5,584.5C 424.559,582.95 423.893,581.284 423.5,579.5 Z"/></g>
<g><path style="opacity:1" fill="#b6cbdb" d="M 127.5,584.5 C 139.314,585.832 151.481,586.499 164,586.5C 176.338,586.5 188.505,586.167 200.5,585.5C 202.671,587.5 205.004,589.334 207.5,591C 214.833,591.667 222.167,591.667 229.5,591C 230.737,590.768 231.737,590.268 232.5,589.5C 234.5,587.833 236.5,586.167 238.5,584.5C 250.815,585.832 263.482,586.499 276.5,586.5C 289.518,586.499 302.185,585.832 314.5,584.5C 317.003,586.833 319.669,588.999 322.5,591C 330.012,591.822 337.345,591.655 344.5,590.5C 347.681,589.651 350.348,587.985 352.5,585.5C 364.495,586.167 376.662,586.5 389,586.5C 401.519,586.499 413.686,585.832 425.5,584.5C 428.003,586.833 430.669,588.999 433.5,591C 441.012,591.822 448.345,591.655 455.5,590.5C 457.784,590.025 459.784,589.025 461.5,587.5C 483.076,588.058 504.743,589.225 526.5,591C 521.279,592.232 515.946,592.899 510.5,593C 491.841,593.833 473.174,594.333 454.5,594.5C 362.836,595.348 271.169,595.682 179.5,595.5C 137.828,595.476 96.1615,594.976 54.5,594C 41.1438,593.499 27.8105,592.666 14.5,591.5C 15.7287,590.719 17.062,590.219 18.5,590C 42.6471,588.557 66.6471,587.39 90.5,586.5C 92.4649,588.488 94.7982,589.988 97.5,591C 104.679,591.821 111.679,591.655 118.5,590.5C 119.552,590.649 120.552,590.483 121.5,590C 123.37,587.96 125.37,586.127 127.5,584.5 Z"/></g>
<g><path style="opacity:1" fill="#ebf2f2" d="M 454.5,594.5 C 402.01,596.05 349.343,596.717 296.5,596.5C 257.332,596.5 218.332,596.167 179.5,595.5C 271.169,595.682 362.836,595.348 454.5,594.5 Z"/></g>
</svg>
