<?xml version="1.0" encoding="UTF-8"?>
<!DOCTYPE svg PUBLIC "-//W3C//DTD SVG 1.1//EN" "http://www.w3.org/Graphics/SVG/1.1/DTD/svg11.dtd">
<svg xmlns="http://www.w3.org/2000/svg" version="1.1" width="280px" height="240px" style="shape-rendering:geometricPrecision; text-rendering:geometricPrecision; image-rendering:optimizeQuality; fill-rule:evenodd; clip-rule:evenodd" xmlns:xlink="http://www.w3.org/1999/xlink">
<g><path style="opacity:1" fill="#f6f6f6" d="M -0.5,-0.5 C 5.83333,-0.5 12.1667,-0.5 18.5,-0.5C 11.319,3.52361 6.48563,9.52361 4,17.5C 3.50029,25.4931 3.33362,33.4931 3.5,41.5C 3.5,72.8333 3.5,104.167 3.5,135.5C 3.5,157.833 3.5,180.167 3.5,202.5C 3.3335,213.172 3.50016,223.839 4,234.5C 5.02496,236.687 6.52496,238.354 8.5,239.5C 5.5,239.5 2.5,239.5 -0.5,239.5C -0.5,159.5 -0.5,79.5 -0.5,-0.5 Z"/></g>
<g><path style="opacity:1" fill="#5db5fe" d="M 18.5,-0.5 C 24.8333,-0.5 31.1667,-0.5 37.5,-0.5C 31.4716,3.03311 26.9716,8.03311 24,14.5C 22.5863,23.4178 22.0863,32.4178 22.5,41.5C 16.1667,41.5 9.83333,41.5 3.5,41.5C 3.33362,33.4931 3.50029,25.4931 4,17.5C 6.48563,9.52361 11.319,3.52361 18.5,-0.5 Z"/></g>
<g><path style="opacity:1" fill="#3090fb" d="M 37.5,-0.5 C 85.1667,-0.5 132.833,-0.5 180.5,-0.5C 186.528,3.03311 191.028,8.03311 194,14.5C 195.381,23.4321 195.881,32.4321 195.5,41.5C 137.833,41.5 80.1667,41.5 22.5,41.5C 22.0863,32.4178 22.5863,23.4178 24,14.5C 26.9716,8.03311 31.4716,3.03311 37.5,-0.5 Z"/></g>
<g><path style="opacity:1" fill="#f6f6f6" d="M 180.5,-0.5 C 213.5,-0.5 246.5,-0.5 279.5,-0.5C 279.5,79.5 279.5,159.5 279.5,239.5C 272.833,239.5 266.167,239.5 259.5,239.5C 259.5,238.167 259.5,236.833 259.5,235.5C 260.095,217.99 261.095,200.657 262.5,183.5C 268.612,184.423 272.779,182.09 275,176.5C 275.167,169.167 275.333,161.833 275.5,154.5C 275.621,146.094 275.121,137.761 274,129.5C 271.62,124.728 267.787,122.061 262.5,121.5C 259.375,120.521 256.042,120.187 252.5,120.5C 252.5,116.833 252.5,113.167 252.5,109.5C 257.932,106.537 260.765,101.87 261,95.5C 265.279,92.903 265.445,90.2363 261.5,87.5C 263.23,69.3928 255.23,61.8928 237.5,65C 228.697,69.8638 225.363,77.3638 227.5,87.5C 223.555,90.2363 223.721,92.903 228,95.5C 228.565,101.644 231.398,106.311 236.5,109.5C 236.5,113.167 236.5,116.833 236.5,120.5C 232.298,120.183 228.298,120.517 224.5,121.5C 219.155,123.346 215.655,127.013 214,132.5C 213.333,147.5 213.333,162.5 214,177.5C 216.629,182.564 220.796,184.564 226.5,183.5C 228.422,201.974 229.756,220.64 230.5,239.5C 216.833,239.5 203.167,239.5 189.5,239.5C 192.146,238.35 193.979,236.35 195,233.5C 195.5,223.172 195.666,212.839 195.5,202.5C 195.5,180.167 195.5,157.833 195.5,135.5C 195.5,135.167 195.5,134.833 195.5,134.5C 195.5,103.833 195.5,73.1667 195.5,42.5C 195.5,42.1667 195.5,41.8333 195.5,41.5C 195.881,32.4321 195.381,23.4321 194,14.5C 191.028,8.03311 186.528,3.03311 180.5,-0.5 Z"/></g>
<g><path style="opacity:1" fill="#54d6d8" d="M 54.5,10.5 C 84.1685,10.3334 113.835,10.5 143.5,11C 149.169,13.8151 151.002,18.3151 149,24.5C 147.833,27 146,28.8333 143.5,30C 114.167,30.6667 84.8333,30.6667 55.5,30C 49.8912,26.7231 48.0578,21.8897 50,15.5C 51.7073,13.9625 53.2073,12.2959 54.5,10.5 Z"/></g>
<g><path style="opacity:1" fill="#adefe5" d="M 3.5,41.5 C 9.83333,41.5 16.1667,41.5 22.5,41.5C 22.5,44.8333 22.5,48.1667 22.5,51.5C 18.5201,48.3856 16.1868,49.3856 15.5,54.5C 15.9346,59.1897 18.2679,60.523 22.5,58.5C 22.5,60.8333 22.5,63.1667 22.5,65.5C 20.0642,63.9829 17.8976,64.3162 16,66.5C 15.3333,84.1667 15.3333,101.833 16,119.5C 17.8976,121.684 20.0642,122.017 22.5,120.5C 22.5,125.5 22.5,130.5 22.5,135.5C 16.1667,135.5 9.83333,135.5 3.5,135.5C 3.5,104.167 3.5,72.8333 3.5,41.5 Z"/></g>
<g><path style="opacity:1" fill="#7be3e8" d="M 22.5,41.5 C 80.1667,41.5 137.833,41.5 195.5,41.5C 195.5,41.8333 195.5,42.1667 195.5,42.5C 163.167,42.5 130.833,42.5 98.5,42.5C 98.5,73.1667 98.5,103.833 98.5,134.5C 130.833,134.5 163.167,134.5 195.5,134.5C 195.5,134.833 195.5,135.167 195.5,135.5C 179.167,135.5 162.833,135.5 146.5,135.5C 115.167,135.5 83.8333,135.5 52.5,135.5C 42.5,135.5 32.5,135.5 22.5,135.5C 22.5,130.5 22.5,125.5 22.5,120.5C 22.5,102.167 22.5,83.8333 22.5,65.5C 22.5,63.1667 22.5,60.8333 22.5,58.5C 22.5,56.1667 22.5,53.8333 22.5,51.5C 22.5,48.1667 22.5,44.8333 22.5,41.5 Z"/></g>
<g><path style="opacity:1" fill="#55d8d8" d="M 195.5,42.5 C 195.5,73.1667 195.5,103.833 195.5,134.5C 163.167,134.5 130.833,134.5 98.5,134.5C 98.5,103.833 98.5,73.1667 98.5,42.5C 130.833,42.5 163.167,42.5 195.5,42.5 Z"/></g>
<g><path style="opacity:1" fill="#fbfefd" d="M 22.5,51.5 C 22.5,53.8333 22.5,56.1667 22.5,58.5C 18.2679,60.523 15.9346,59.1897 15.5,54.5C 16.1868,49.3856 18.5201,48.3856 22.5,51.5 Z"/></g>
<g><path style="opacity:1" fill="#6f7687" d="M 261.5,87.5 C 261.217,88.2891 260.717,88.9558 260,89.5C 258.749,85.918 257.749,82.2513 257,78.5C 255.406,76.7029 253.406,75.7029 251,75.5C 247.872,77.2717 244.705,79.1051 241.5,81C 238.167,81.3333 234.833,81.6667 231.5,82C 230.88,84.4728 230.214,86.9728 229.5,89.5C 228.478,89.1445 227.811,88.4778 227.5,87.5C 225.363,77.3638 228.697,69.8638 237.5,65C 255.23,61.8928 263.23,69.3928 261.5,87.5 Z"/></g>
<g><path style="opacity:1" fill="#fefefe" d="M 22.5,65.5 C 22.5,83.8333 22.5,102.167 22.5,120.5C 20.0642,122.017 17.8976,121.684 16,119.5C 15.3333,101.833 15.3333,84.1667 16,66.5C 17.8976,64.3162 20.0642,63.9829 22.5,65.5 Z"/></g>
<g><path style="opacity:1" fill="#fdd7b7" d="M 261.5,87.5 C 265.445,90.2363 265.279,92.903 261,95.5C 260.765,101.87 257.932,106.537 252.5,109.5C 247.075,112.051 241.742,112.051 236.5,109.5C 231.398,106.311 228.565,101.644 228,95.5C 223.721,92.903 223.555,90.2363 227.5,87.5C 227.811,88.4778 228.478,89.1445 229.5,89.5C 230.214,86.9728 230.88,84.4728 231.5,82C 234.833,81.6667 238.167,81.3333 241.5,81C 244.705,79.1051 247.872,77.2717 251,75.5C 253.406,75.7029 255.406,76.7029 257,78.5C 257.749,82.2513 258.749,85.918 260,89.5C 260.717,88.9558 261.217,88.2891 261.5,87.5 Z"/></g>
<g><path style="opacity:1" fill="#f0c098" d="M 236.5,109.5 C 241.742,112.051 247.075,112.051 252.5,109.5C 252.5,113.167 252.5,116.833 252.5,120.5C 256.042,120.187 259.375,120.521 262.5,121.5C 258.167,121.5 253.833,121.5 249.5,121.5C 246.167,121.5 242.833,121.5 239.5,121.5C 234.5,121.5 229.5,121.5 224.5,121.5C 228.298,120.517 232.298,120.183 236.5,120.5C 236.5,116.833 236.5,113.167 236.5,109.5 Z"/></g>
<g><path style="opacity:1" fill="#e75365" d="M 224.5,121.5 C 229.5,121.5 234.5,121.5 239.5,121.5C 239.5,122.167 239.5,122.833 239.5,123.5C 236.006,125.5 233.84,128.5 233,132.5C 232.5,145.162 232.333,157.829 232.5,170.5C 230.265,170.205 228.265,170.539 226.5,171.5C 226.5,175.5 226.5,179.5 226.5,183.5C 220.796,184.564 216.629,182.564 214,177.5C 213.333,162.5 213.333,147.5 214,132.5C 215.655,127.013 219.155,123.346 224.5,121.5 Z"/></g>
<g><path style="opacity:1" fill="#fff156" d="M 239.5,121.5 C 242.833,121.5 246.167,121.5 249.5,121.5C 250.024,129.175 250.691,136.842 251.5,144.5C 250.198,149.105 247.864,153.105 244.5,156.5C 242.42,154.007 240.586,151.341 239,148.5C 238.378,140.148 238.545,131.814 239.5,123.5C 239.5,122.833 239.5,122.167 239.5,121.5 Z"/></g>
<g><path style="opacity:1" fill="#fb6972" d="M 249.5,121.5 C 253.833,121.5 258.167,121.5 262.5,121.5C 267.787,122.061 271.62,124.728 274,129.5C 275.121,137.761 275.621,146.094 275.5,154.5C 275.333,161.833 275.167,169.167 275,176.5C 272.779,182.09 268.612,184.423 262.5,183.5C 262.5,180.833 262.5,178.167 262.5,175.5C 263.451,174.081 263.784,172.415 263.5,170.5C 253.167,170.5 242.833,170.5 232.5,170.5C 232.333,157.829 232.5,145.162 233,132.5C 233.84,128.5 236.006,125.5 239.5,123.5C 238.545,131.814 238.378,140.148 239,148.5C 240.586,151.341 242.42,154.007 244.5,156.5C 247.864,153.105 250.198,149.105 251.5,144.5C 250.691,136.842 250.024,129.175 249.5,121.5 Z"/></g>
<g><path style="opacity:1" fill="#5fb6fe" d="M 3.5,135.5 C 9.83333,135.5 16.1667,135.5 22.5,135.5C 22.1721,146.679 22.5054,157.679 23.5,168.5C 22.1667,171.167 22.1667,173.833 23.5,176.5C 22.507,184.984 22.1736,193.651 22.5,202.5C 16.1667,202.5 9.83333,202.5 3.5,202.5C 3.5,180.167 3.5,157.833 3.5,135.5 Z"/></g>
<g><path style="opacity:1" fill="#3190fb" d="M 22.5,135.5 C 32.5,135.5 42.5,135.5 52.5,135.5C 53.262,141.092 54.5953,146.426 56.5,151.5C 57.3129,156.399 58.3129,161.232 59.5,166C 86.1729,166.833 112.84,166.667 139.5,165.5C 140.817,160.898 141.817,156.231 142.5,151.5C 144.03,146.237 145.364,140.904 146.5,135.5C 162.833,135.5 179.167,135.5 195.5,135.5C 195.5,157.833 195.5,180.167 195.5,202.5C 183.833,202.5 172.167,202.5 160.5,202.5C 119.833,202.5 79.1667,202.5 38.5,202.5C 33.1667,202.5 27.8333,202.5 22.5,202.5C 22.1736,193.651 22.507,184.984 23.5,176.5C 27.5889,181.371 32.0889,181.705 37,177.5C 40.0686,167.898 36.5686,163.732 26.5,165C 25.2899,166.039 24.2899,167.206 23.5,168.5C 22.5054,157.679 22.1721,146.679 22.5,135.5 Z"/></g>
<g><path style="opacity:1" fill="#6c7386" d="M 52.5,135.5 C 83.8333,135.5 115.167,135.5 146.5,135.5C 145.364,140.904 144.03,146.237 142.5,151.5C 113.833,151.5 85.1667,151.5 56.5,151.5C 54.5953,146.426 53.262,141.092 52.5,135.5 Z"/></g>
<g><path style="opacity:1" fill="#495262" d="M 56.5,151.5 C 85.1667,151.5 113.833,151.5 142.5,151.5C 141.817,156.231 140.817,160.898 139.5,165.5C 112.84,166.667 86.1729,166.833 59.5,166C 58.3129,161.232 57.3129,156.399 56.5,151.5 Z"/></g>
<g><path style="opacity:1" fill="#d1dff4" d="M 23.5,176.5 C 22.1667,173.833 22.1667,171.167 23.5,168.5C 24.2899,167.206 25.2899,166.039 26.5,165C 36.5686,163.732 40.0686,167.898 37,177.5C 32.0889,181.705 27.5889,181.371 23.5,176.5 Z"/></g>
<g><path style="opacity:1" fill="#d1dff4" d="M 164.5,164.5 C 171.49,162.838 175.49,165.505 176.5,172.5C 175.592,178.959 171.926,181.459 165.5,180C 160.776,177.565 159.276,173.731 161,168.5C 162.376,167.295 163.542,165.962 164.5,164.5 Z"/></g>
<g><path style="opacity:1" fill="#a8606d" d="M 226.5,171.5 C 228.265,170.539 230.265,170.205 232.5,170.5C 242.833,170.5 253.167,170.5 263.5,170.5C 263.784,172.415 263.451,174.081 262.5,175.5C 262.5,174.167 262.5,172.833 262.5,171.5C 256.5,171.5 250.5,171.5 244.5,171.5C 238.5,171.5 232.5,171.5 226.5,171.5 Z"/></g>
<g><path style="opacity:1" fill="#6e7486" d="M 226.5,171.5 C 232.5,171.5 238.5,171.5 244.5,171.5C 244.5,193.833 244.5,216.167 244.5,238.5C 249.167,238.5 253.833,238.5 258.5,238.5C 258.263,237.209 258.596,236.209 259.5,235.5C 259.5,236.833 259.5,238.167 259.5,239.5C 249.833,239.5 240.167,239.5 230.5,239.5C 229.756,220.64 228.422,201.974 226.5,183.5C 226.5,179.5 226.5,175.5 226.5,171.5 Z"/></g>
<g><path style="opacity:1" fill="#4a5160" d="M 244.5,171.5 C 250.5,171.5 256.5,171.5 262.5,171.5C 262.5,172.833 262.5,174.167 262.5,175.5C 262.5,178.167 262.5,180.833 262.5,183.5C 261.095,200.657 260.095,217.99 259.5,235.5C 258.596,236.209 258.263,237.209 258.5,238.5C 253.833,238.5 249.167,238.5 244.5,238.5C 244.5,216.167 244.5,193.833 244.5,171.5 Z"/></g>
<g><path style="opacity:1" fill="#afb5c9" d="M 3.5,202.5 C 9.83333,202.5 16.1667,202.5 22.5,202.5C 22.3335,213.172 22.5002,223.839 23,234.5C 23.4652,235.931 24.2986,237.097 25.5,238C 28.146,238.497 30.8127,238.664 33.5,238.5C 33.5,238.833 33.5,239.167 33.5,239.5C 25.1667,239.5 16.8333,239.5 8.5,239.5C 6.52496,238.354 5.02496,236.687 4,234.5C 3.50016,223.839 3.3335,213.172 3.5,202.5 Z"/></g>
<g><path style="opacity:1" fill="#6d7587" d="M 22.5,202.5 C 27.8333,202.5 33.1667,202.5 38.5,202.5C 38.6665,212.839 38.4998,223.172 38,233.5C 37.3444,235.986 35.8444,237.653 33.5,238.5C 30.8127,238.664 28.146,238.497 25.5,238C 24.2986,237.097 23.4652,235.931 23,234.5C 22.5002,223.839 22.3335,213.172 22.5,202.5 Z"/></g>
<g><path style="opacity:1" fill="#f5f6f6" d="M 38.5,202.5 C 79.1667,202.5 119.833,202.5 160.5,202.5C 160.333,213.172 160.5,223.839 161,234.5C 162.025,236.687 163.525,238.354 165.5,239.5C 121.5,239.5 77.5,239.5 33.5,239.5C 33.5,239.167 33.5,238.833 33.5,238.5C 35.8444,237.653 37.3444,235.986 38,233.5C 38.4998,223.172 38.6665,212.839 38.5,202.5 Z"/></g>
<g><path style="opacity:1" fill="#6e7688" d="M 160.5,202.5 C 172.167,202.5 183.833,202.5 195.5,202.5C 195.666,212.839 195.5,223.172 195,233.5C 193.979,236.35 192.146,238.35 189.5,239.5C 181.5,239.5 173.5,239.5 165.5,239.5C 163.525,238.354 162.025,236.687 161,234.5C 160.5,223.839 160.333,213.172 160.5,202.5 Z"/></g>
</svg>
