<?xml version="1.0" encoding="UTF-8"?>
<!DOCTYPE svg PUBLIC "-//W3C//DTD SVG 1.1//EN" "http://www.w3.org/Graphics/SVG/1.1/DTD/svg11.dtd">
<svg xmlns="http://www.w3.org/2000/svg" version="1.1" width="512px" height="371px" style="shape-rendering:geometricPrecision; text-rendering:geometricPrecision; image-rendering:optimizeQuality; fill-rule:evenodd; clip-rule:evenodd" xmlns:xlink="http://www.w3.org/1999/xlink">
<g><path style="opacity:1" fill="#3090f9" d="M 185.5,105.5 C 231.501,105.333 277.501,105.5 323.5,106C 334.211,109.376 340.711,116.543 343,127.5C 343.5,134.492 343.666,141.492 343.5,148.5C 285.542,149.492 227.542,149.825 169.5,149.5C 169.334,140.827 169.5,132.16 170,123.5C 172.808,116.026 177.974,110.859 185.5,108C 184.402,107.23 184.402,106.397 185.5,105.5 Z"/></g>
<g><path style="opacity:1" fill="#57b3f9" d="M 185.5,105.5 C 184.402,106.397 184.402,107.23 185.5,108C 177.974,110.859 172.808,116.026 170,123.5C 169.5,132.16 169.334,140.827 169.5,149.5C 227.542,149.825 285.542,149.492 343.5,148.5C 343.5,150.167 343.5,151.833 343.5,153.5C 310.723,151.518 277.723,150.852 244.5,151.5C 219.167,151.5 193.833,151.5 168.5,151.5C 161.833,151.5 155.167,151.5 148.5,151.5C 148.334,142.494 148.5,133.494 149,124.5C 155.852,108.321 168.019,101.988 185.5,105.5 Z"/></g>
<g><path style="opacity:1" fill="#4fc8e3" d="M 291.5,121.5 C 260.049,120.88 228.715,121.547 197.5,123.5C 197.721,122.265 198.388,121.265 199.5,120.5C 214.833,120.167 230.167,119.833 245.5,119.5C 261.182,119.501 276.515,120.167 291.5,121.5 Z"/></g>
<g><path style="opacity:1" fill="#53d7d8" d="M 291.5,121.5 C 292.735,121.721 293.735,122.388 294.5,123.5C 295.833,127.5 295.833,131.5 294.5,135.5C 293.183,137.159 291.517,138.326 289.5,139C 259.494,139.833 229.494,139.667 199.5,138.5C 196.712,136.588 195.379,133.921 195.5,130.5C 195.316,127.795 195.983,125.462 197.5,123.5C 228.715,121.547 260.049,120.88 291.5,121.5 Z"/></g>
<g><path style="opacity:1" fill="#7be4e9" d="M 168.5,151.5 C 193.833,151.5 219.167,151.5 244.5,151.5C 245.453,182.149 245.787,212.815 245.5,243.5C 219.833,243.5 194.167,243.5 168.5,243.5C 168.5,238.833 168.5,234.167 168.5,229.5C 170.16,210.712 169.827,192.045 167.5,173.5C 167.414,169.682 168.081,166.016 169.5,162.5C 168.754,158.868 168.421,155.202 168.5,151.5 Z"/></g>
<g><path style="opacity:1" fill="#53d8d7" d="M 244.5,151.5 C 277.723,150.852 310.723,151.518 343.5,153.5C 343.5,182.833 343.5,212.167 343.5,241.5C 327.072,243.463 310.405,244.13 293.5,243.5C 277.5,243.5 261.5,243.5 245.5,243.5C 245.787,212.815 245.453,182.149 244.5,151.5 Z"/></g>
<g><path style="opacity:1" fill="#b1f0e6" d="M 148.5,151.5 C 155.167,151.5 161.833,151.5 168.5,151.5C 168.421,155.202 168.754,158.868 169.5,162.5C 168.081,166.016 167.414,169.682 167.5,173.5C 165.508,173.328 163.842,173.995 162.5,175.5C 161.167,193.5 161.167,211.5 162.5,229.5C 164.532,230.819 166.532,230.819 168.5,229.5C 168.5,234.167 168.5,238.833 168.5,243.5C 161.623,243.994 154.956,243.327 148.5,241.5C 148.5,211.5 148.5,181.5 148.5,151.5 Z"/></g>
<g><path style="opacity:0.996" fill="#707583" d="M 410.5,193.5 C 409.464,195.722 407.797,196.888 405.5,197C 404.545,193.901 403.711,190.734 403,187.5C 400.79,184.71 397.956,183.877 394.5,185C 389.888,189.776 384.222,191.776 377.5,191C 376.577,193.041 376.244,195.208 376.5,197.5C 374.486,197.608 372.82,196.942 371.5,195.5C 371.333,176.938 380.333,169.104 398.5,172C 406.8,176.766 410.8,183.933 410.5,193.5 Z"/></g>
<g><path style="opacity:1" fill="#f3fcfb" d="M 167.5,173.5 C 169.827,192.045 170.16,210.712 168.5,229.5C 166.532,230.819 164.532,230.819 162.5,229.5C 161.167,211.5 161.167,193.5 162.5,175.5C 163.842,173.995 165.508,173.328 167.5,173.5 Z"/></g>
<g><path style="opacity:0.999" fill="#f8d2b1" d="M 410.5,193.5 C 413.576,198.276 413.076,202.609 409,206.5C 408.057,212.119 405.391,216.786 401,220.5C 400.503,222.81 400.337,225.143 400.5,227.5C 397.74,228.462 396.406,230.462 396.5,233.5C 397.231,238.141 397.564,242.807 397.5,247.5C 396.466,242.103 395.466,236.603 394.5,231C 392.167,230.333 389.833,230.333 387.5,231C 386.872,233.939 386.205,236.772 385.5,239.5C 385.5,237.5 385.5,235.5 385.5,233.5C 385.5,232.167 385.5,230.833 385.5,229.5C 384.041,229.567 382.708,229.234 381.5,228.5C 381.664,225.813 381.497,223.146 381,220.5C 376.563,217.298 373.896,212.965 373,207.5C 368.981,203.874 368.481,199.874 371.5,195.5C 372.82,196.942 374.486,197.608 376.5,197.5C 376.244,195.208 376.577,193.041 377.5,191C 384.222,191.776 389.888,189.776 394.5,185C 397.956,183.877 400.79,184.71 403,187.5C 403.711,190.734 404.545,193.901 405.5,197C 407.797,196.888 409.464,195.722 410.5,193.5 Z"/></g>
<g><path style="opacity:1" fill="#f86870" d="M 400.5,227.5 C 409.092,226.456 415.925,229.456 421,236.5C 421.667,254.5 421.667,272.5 421,290.5C 418.303,293.87 414.803,295.204 410.5,294.5C 409.671,289.547 409.337,284.547 409.5,279.5C 399.167,279.5 388.833,279.5 378.5,279.5C 378.333,267.162 378.5,254.829 379,242.5C 379.725,240.051 380.725,237.717 382,235.5C 382.816,234.177 383.983,233.511 385.5,233.5C 385.5,235.5 385.5,237.5 385.5,239.5C 385.131,245.513 384.964,251.513 385,257.5C 386.999,259.493 388.499,261.827 389.5,264.5C 390.5,265.833 391.5,265.833 392.5,264.5C 396.43,259.532 398.096,253.866 397.5,247.5C 397.564,242.807 397.231,238.141 396.5,233.5C 396.406,230.462 397.74,228.462 400.5,227.5 Z"/></g>
<g><path style="opacity:1" fill="#fdf059" d="M 397.5,247.5 C 398.096,253.866 396.43,259.532 392.5,264.5C 391.5,265.833 390.5,265.833 389.5,264.5C 388.499,261.827 386.999,259.493 385,257.5C 384.964,251.513 385.131,245.513 385.5,239.5C 386.205,236.772 386.872,233.939 387.5,231C 389.833,230.333 392.167,230.333 394.5,231C 395.466,236.603 396.466,242.103 397.5,247.5 Z"/></g>
<g><path style="opacity:1" fill="#6fb7cf" d="M 148.5,241.5 C 154.956,243.327 161.623,243.994 168.5,243.5C 194.167,243.5 219.833,243.5 245.5,243.5C 261.5,243.5 277.5,243.5 293.5,243.5C 293.158,244.338 292.492,244.672 291.5,244.5C 260.167,244.5 228.833,244.5 197.5,244.5C 181.161,244.627 164.828,244.96 148.5,245.5C 148.5,244.167 148.5,242.833 148.5,241.5 Z"/></g>
<g><path style="opacity:1" fill="#41a5e6" d="M 343.5,241.5 C 343.5,243.5 343.5,245.5 343.5,247.5C 326.738,245.536 309.738,244.87 292.5,245.5C 292.806,248.385 292.473,251.052 291.5,253.5C 291.5,250.5 291.5,247.5 291.5,244.5C 292.492,244.672 293.158,244.338 293.5,243.5C 310.405,244.13 327.072,243.463 343.5,241.5 Z"/></g>
<g><path style="opacity:1" fill="#5ab4fc" d="M 197.5,244.5 C 197.5,244.833 197.5,245.167 197.5,245.5C 188.167,245.5 178.833,245.5 169.5,245.5C 169.5,254.833 169.5,264.167 169.5,273.5C 170.5,273.5 171.5,273.5 172.5,273.5C 168.143,277.64 167.477,282.306 170.5,287.5C 168.533,295.097 167.866,303.097 168.5,311.5C 161.745,311.207 155.078,311.54 148.5,312.5C 148.5,290.167 148.5,267.833 148.5,245.5C 164.828,244.96 181.161,244.627 197.5,244.5 Z"/></g>
<g><path style="opacity:0.999" fill="#328ffa" d="M 197.5,245.5 C 200.463,252.499 202.796,259.832 204.5,267.5C 205.473,269.948 205.806,272.615 205.5,275.5C 232.167,275.5 258.833,275.5 285.5,275.5C 286.988,270.641 287.655,265.641 287.5,260.5C 288.117,260.611 288.617,260.944 289,261.5C 288.947,258.325 289.78,255.658 291.5,253.5C 292.473,251.052 292.806,248.385 292.5,245.5C 309.738,244.87 326.738,245.536 343.5,247.5C 343.5,268.833 343.5,290.167 343.5,311.5C 331.162,311.333 318.829,311.5 306.5,312C 305.584,312.278 304.918,312.778 304.5,313.5C 265.173,314.814 225.84,314.814 186.5,313.5C 185.711,313.217 185.044,312.717 184.5,312C 179.177,311.501 173.844,311.334 168.5,311.5C 167.866,303.097 168.533,295.097 170.5,287.5C 177.633,291.261 182.633,289.428 185.5,282C 184.023,275.05 179.69,272.216 172.5,273.5C 171.5,273.5 170.5,273.5 169.5,273.5C 169.5,264.167 169.5,254.833 169.5,245.5C 178.833,245.5 188.167,245.5 197.5,245.5 Z"/></g>
<g><path style="opacity:1" fill="#6b7486" d="M 197.5,245.5 C 197.5,245.167 197.5,244.833 197.5,244.5C 228.833,244.5 260.167,244.5 291.5,244.5C 291.5,247.5 291.5,250.5 291.5,253.5C 289.78,255.658 288.947,258.325 289,261.5C 288.617,260.944 288.117,260.611 287.5,260.5C 259.833,260.5 232.167,260.5 204.5,260.5C 204.5,262.833 204.5,265.167 204.5,267.5C 202.796,259.832 200.463,252.499 197.5,245.5 Z"/></g>
<g><path style="opacity:1" fill="#e45363" d="M 381.5,228.5 C 382.708,229.234 384.041,229.567 385.5,229.5C 385.5,230.833 385.5,232.167 385.5,233.5C 383.983,233.511 382.816,234.177 382,235.5C 380.725,237.717 379.725,240.051 379,242.5C 378.5,254.829 378.333,267.162 378.5,279.5C 376.833,279.5 375.167,279.5 373.5,279.5C 373.5,283.5 373.5,287.5 373.5,291.5C 372.833,292.5 372.167,293.5 371.5,294.5C 365.653,295.16 361.487,292.827 359,287.5C 358.333,271.5 358.333,255.5 359,239.5C 363.603,230.116 371.103,226.449 381.5,228.5 Z"/></g>
<g><path style="opacity:1" fill="#495263" d="M 287.5,260.5 C 287.655,265.641 286.988,270.641 285.5,275.5C 258.833,275.5 232.167,275.5 205.5,275.5C 205.806,272.615 205.473,269.948 204.5,267.5C 204.5,265.167 204.5,262.833 204.5,260.5C 232.167,260.5 259.833,260.5 287.5,260.5 Z"/></g>
<g><path style="opacity:1" fill="#966876" d="M 378.5,279.5 C 388.833,279.5 399.167,279.5 409.5,279.5C 409.337,284.547 409.671,289.547 410.5,294.5C 409.883,294.389 409.383,294.056 409,293.5C 408.501,289.179 408.334,284.846 408.5,280.5C 402.31,280.177 396.31,280.51 390.5,281.5C 385.167,281.5 379.833,281.5 374.5,281.5C 374.813,285.042 374.479,288.375 373.5,291.5C 373.5,287.5 373.5,283.5 373.5,279.5C 375.167,279.5 376.833,279.5 378.5,279.5 Z"/></g>
<g><path style="opacity:1" fill="#cbdef4" d="M 172.5,273.5 C 179.69,272.216 184.023,275.05 185.5,282C 182.633,289.428 177.633,291.261 170.5,287.5C 167.477,282.306 168.143,277.64 172.5,273.5 Z"/></g>
<g><path style="opacity:1" fill="#ccdef5" d="M 310.5,273.5 C 321.698,272.687 325.031,277.353 320.5,287.5C 319.5,288 318.5,288.5 317.5,289C 313.931,289.682 310.598,289.182 307.5,287.5C 305.368,282.035 306.368,277.369 310.5,273.5 Z"/></g>
<g><path style="opacity:1" fill="#6c7384" d="M 390.5,281.5 C 390.5,303.833 390.5,326.167 390.5,348.5C 385.238,348.805 380.072,348.471 375,347.5C 374.421,329.736 373.254,312.07 371.5,294.5C 372.167,293.5 372.833,292.5 373.5,291.5C 374.479,288.375 374.813,285.042 374.5,281.5C 379.833,281.5 385.167,281.5 390.5,281.5 Z"/></g>
<g><path style="opacity:1" fill="#4b5261" d="M 410.5,294.5 C 409.205,312.482 408.205,330.482 407.5,348.5C 401.833,348.5 396.167,348.5 390.5,348.5C 390.5,326.167 390.5,303.833 390.5,281.5C 396.31,280.51 402.31,280.177 408.5,280.5C 408.334,284.846 408.501,289.179 409,293.5C 409.383,294.056 409.883,294.389 410.5,294.5 Z"/></g>
<g><path style="opacity:1" fill="#aeb4c8" d="M 168.5,311.5 C 168.333,322.172 168.5,332.839 169,343.5C 170.372,344.91 171.205,346.577 171.5,348.5C 164.825,348.666 158.158,348.5 151.5,348C 151,347.5 150.5,347 150,346.5C 148.544,335.269 148.044,323.936 148.5,312.5C 155.078,311.54 161.745,311.207 168.5,311.5 Z"/></g>
<g><path style="opacity:1" fill="#6c7386" d="M 168.5,311.5 C 173.844,311.334 179.177,311.501 184.5,312C 185.044,312.717 185.711,313.217 186.5,313.5C 186.666,323.506 186.5,333.506 186,343.5C 185.365,344.966 184.531,346.3 183.5,347.5C 179.555,348.491 175.555,348.824 171.5,348.5C 171.205,346.577 170.372,344.91 169,343.5C 168.5,332.839 168.333,322.172 168.5,311.5 Z"/></g>
<g><path style="opacity:0.997" fill="#6b7385" d="M 343.5,311.5 C 343.666,321.839 343.5,332.172 343,342.5C 342.654,344.848 341.487,346.681 339.5,348C 329.167,348.667 318.833,348.667 308.5,348C 307.54,346.581 306.707,345.081 306,343.5C 305.809,333.423 305.309,323.423 304.5,313.5C 304.918,312.778 305.584,312.278 306.5,312C 318.829,311.5 331.162,311.333 343.5,311.5 Z"/></g>
</svg>
