<?xml version="1.0" encoding="UTF-8"?>
<!DOCTYPE svg PUBLIC "-//W3C//DTD SVG 1.1//EN" "http://www.w3.org/Graphics/SVG/1.1/DTD/svg11.dtd">
<svg xmlns="http://www.w3.org/2000/svg" version="1.1" width="425px" height="389px" style="shape-rendering:geometricPrecision; text-rendering:geometricPrecision; image-rendering:optimizeQuality; fill-rule:evenodd; clip-rule:evenodd" xmlns:xlink="http://www.w3.org/1999/xlink">
<g><path style="opacity:1" fill="#fefefe" d="M -0.5,-0.5 C 141.167,-0.5 282.833,-0.5 424.5,-0.5C 424.5,129.167 424.5,258.833 424.5,388.5C 282.833,388.5 141.167,388.5 -0.5,388.5C -0.5,258.833 -0.5,129.167 -0.5,-0.5 Z"/></g>
<g><path style="opacity:1" fill="#d8e8f8" d="M 166.5,188.5 C 166.271,193.005 166.937,197.339 168.5,201.5C 164.112,202.891 162.112,205.891 162.5,210.5C 156.32,209.829 150.486,210.829 145,213.5C 144.184,212.177 143.017,211.511 141.5,211.5C 145.657,208.792 149.49,205.459 153,201.5C 153.667,200.167 154.333,198.833 155,197.5C 156.42,187.914 156.92,178.247 156.5,168.5C 157.15,168.804 157.817,169.137 158.5,169.5C 160.837,159.784 159.337,150.784 154,142.5C 146.754,136.697 138.587,135.031 129.5,137.5C 129.168,128.475 129.502,119.475 130.5,110.5C 142.42,102.624 154.253,94.6238 166,86.5C 166.5,120.498 166.667,154.498 166.5,188.5 Z"/></g>
<g><path style="opacity:1" fill="#e5effb" d="M 382.5,188.5 C 381.761,188.369 381.094,188.536 380.5,189C 381.423,191.041 381.756,193.208 381.5,195.5C 380.512,200.64 380.179,205.974 380.5,211.5C 351.211,210.516 321.877,210.183 292.5,210.5C 292.5,178.5 292.5,146.5 292.5,114.5C 295.833,114.5 299.167,114.5 302.5,114.5C 302.5,110.5 302.5,106.5 302.5,102.5C 303.5,102.5 304.5,102.5 305.5,102.5C 305.5,106.5 305.5,110.5 305.5,114.5C 308.833,114.5 312.167,114.5 315.5,114.5C 315.5,110.5 315.5,106.5 315.5,102.5C 316.5,102.5 317.5,102.5 318.5,102.5C 318.5,106.5 318.5,110.5 318.5,114.5C 339.167,114.5 359.833,114.5 380.5,114.5C 379.858,139.395 380.525,164.062 382.5,188.5 Z"/></g>
<g><path style="opacity:1" fill="#e6f0fb" d="M 275.5,210.5 C 265.161,210.666 254.828,210.5 244.5,210C 241.721,206.545 238.388,203.879 234.5,202C 228.843,201.501 223.176,201.334 217.5,201.5C 217.5,194.5 217.5,187.5 217.5,180.5C 217.334,171.494 217.5,162.494 218,153.5C 219.955,152.547 221.622,151.213 223,149.5C 223.167,137.819 223.667,126.152 224.5,114.5C 225.167,125.5 225.833,136.5 226.5,147.5C 228.001,146.248 229.668,145.248 231.5,144.5C 232.499,134.522 232.832,124.522 232.5,114.5C 233.5,114.5 234.5,114.5 235.5,114.5C 235.334,123.506 235.5,132.506 236,141.5C 249,132.833 262,124.167 275,115.5C 275.5,147.165 275.667,178.832 275.5,210.5 Z"/></g>
<g><path style="opacity:1" fill="#5b4e55" d="M 97.5,155.5 C 95.8333,155.5 94.1667,155.5 92.5,155.5C 92.6633,157.857 92.4966,160.19 92,162.5C 90.5422,160.04 88.7089,157.873 86.5,156C 73.8377,155.5 61.1711,155.333 48.5,155.5C 46.193,154.023 44.3597,152.023 43,149.5C 42.0513,139.4 42.3846,129.4 44,119.5C 45.214,117.951 46.714,116.785 48.5,116C 64.8333,115.333 81.1667,115.333 97.5,116C 100.333,116.833 102.167,118.667 103,121.5C 103.667,130.833 103.667,140.167 103,149.5C 101.979,152.35 100.146,154.35 97.5,155.5 Z"/></g>
<g><path style="opacity:1" fill="#fcfcfc" d="M 47.5,118.5 C 64.5033,118.333 81.5033,118.5 98.5,119C 99,119.5 99.5,120 100,120.5C 100.667,130.5 100.667,140.5 100,150.5C 99.5,151 99,151.5 98.5,152C 81.5,152.667 64.5,152.667 47.5,152C 47,151.5 46.5,151 46,150.5C 45.3333,140.5 45.3333,130.5 46,120.5C 46.7172,119.956 47.2172,119.289 47.5,118.5 Z"/></g>
<g><path style="opacity:1" fill="#4d3d44" d="M 52.5,128.5 C 55.2724,128.22 57.7724,128.887 60,130.5C 59.7428,134.414 59.9095,138.414 60.5,142.5C 59.5,142.5 58.5,142.5 57.5,142.5C 57.5,140.5 57.5,138.5 57.5,136.5C 56.5,136.5 55.5,136.5 54.5,136.5C 54.7989,138.604 54.4656,140.604 53.5,142.5C 52.5067,137.88 52.1734,133.214 52.5,128.5 Z"/></g>
<g><path style="opacity:1" fill="#514249" d="M 63.5,128.5 C 65.9928,128.329 67.8261,129.329 69,131.5C 69.6667,134.167 69.6667,136.833 69,139.5C 67.1735,143.037 64.8402,143.371 62,140.5C 60.994,136.198 61.494,132.198 63.5,128.5 Z"/></g>
<g><path style="opacity:1" fill="#504148" d="M 70.5,128.5 C 72.4136,131.684 73.0803,135.351 72.5,139.5C 73.5,139.5 74.5,139.5 75.5,139.5C 75.5,135.833 75.5,132.167 75.5,128.5C 79.1667,128.5 82.8333,128.5 86.5,128.5C 86.5,129.5 86.5,130.5 86.5,131.5C 85.5,131.5 84.5,131.5 83.5,131.5C 82.8333,146.167 82.1667,146.167 81.5,131.5C 80.5,131.5 79.5,131.5 78.5,131.5C 78.8158,134.978 78.3158,138.312 77,141.5C 74.7328,142.935 72.7328,142.602 71,140.5C 70.5012,136.514 70.3345,132.514 70.5,128.5 Z"/></g>
<g><path style="opacity:1" fill="#493940" d="M 87.5,128.5 C 89.5,128.5 91.5,128.5 93.5,128.5C 93.5,129.5 93.5,130.5 93.5,131.5C 92.1667,131.5 90.8333,131.5 89.5,131.5C 89.5,132.5 89.5,133.5 89.5,134.5C 94.8333,135.167 94.8333,135.833 89.5,136.5C 89.5,137.5 89.5,138.5 89.5,139.5C 90.8333,139.5 92.1667,139.5 93.5,139.5C 93.5,140.5 93.5,141.5 93.5,142.5C 91.5,142.5 89.5,142.5 87.5,142.5C 87.5,137.833 87.5,133.167 87.5,128.5 Z"/></g>
<g><path style="opacity:1" fill="#e3e0e1" d="M 54.5,131.5 C 55.5,131.5 56.5,131.5 57.5,131.5C 57.5,132.5 57.5,133.5 57.5,134.5C 56.5,134.5 55.5,134.5 54.5,134.5C 54.5,133.5 54.5,132.5 54.5,131.5 Z"/></g>
<g><path style="opacity:1" fill="#ebe9ea" d="M 63.5,131.5 C 64.5,131.5 65.5,131.5 66.5,131.5C 66.5,134.167 66.5,136.833 66.5,139.5C 65.5,139.5 64.5,139.5 63.5,139.5C 63.5,136.833 63.5,134.167 63.5,131.5 Z"/></g>
<g><path style="opacity:1" fill="#3a2931" d="M 156.5,168.5 C 151.329,166.154 148.162,162.154 147,156.5C 143.649,162.61 138.482,166.444 131.5,168C 127.853,168.774 124.186,169.441 120.5,170C 119.767,173.551 118.767,177.051 117.5,180.5C 116.31,177.369 115.31,174.203 114.5,171C 112.153,170.666 109.819,170.833 107.5,171.5C 102.38,151.684 109.713,140.351 129.5,137.5C 138.587,135.031 146.754,136.697 154,142.5C 159.337,150.784 160.837,159.784 158.5,169.5C 157.817,169.137 157.15,168.804 156.5,168.5 Z"/></g>
<g><path style="opacity:1" fill="#d0e3f5" d="M 48.5,155.5 C 61.1711,155.333 73.8377,155.5 86.5,156C 88.7089,157.873 90.5422,160.04 92,162.5C 92.4966,160.19 92.6633,157.857 92.5,155.5C 94.1667,155.5 95.8333,155.5 97.5,155.5C 97.5,171.5 97.5,187.5 97.5,203.5C 83.3531,201.473 72.1865,206.139 64,217.5C 62.8366,220.971 63.6699,223.638 66.5,225.5C 54.5428,244.448 49.3761,265.115 51,287.5C 52.538,293.412 55.7047,298.245 60.5,302C 65.2893,305.061 70.2893,307.561 75.5,309.5C 75.5,316.167 75.5,322.833 75.5,329.5C 66.5,329.5 57.5,329.5 48.5,329.5C 48.5,271.5 48.5,213.5 48.5,155.5 Z"/></g>
<g><path style="opacity:1" fill="#ec8f6c" d="M 156.5,168.5 C 156.92,178.247 156.42,187.914 155,197.5C 154.333,198.833 153.667,200.167 153,201.5C 149.49,205.459 145.657,208.792 141.5,211.5C 141.325,213.621 141.659,215.621 142.5,217.5C 141.527,219.948 141.194,222.615 141.5,225.5C 131.749,228.357 123.582,226.023 117,218.5C 116.275,215.623 116.775,212.957 118.5,210.5C 118.376,209.893 118.043,209.56 117.5,209.5C 117.5,209.167 117.5,208.833 117.5,208.5C 119.026,207.895 120.026,206.729 120.5,205C 114.391,199.179 111.724,192.012 112.5,183.5C 106.235,183.637 103.735,180.637 105,174.5C 105.698,173.309 106.531,172.309 107.5,171.5C 109.819,170.833 112.153,170.666 114.5,171C 115.31,174.203 116.31,177.369 117.5,180.5C 118.767,177.051 119.767,173.551 120.5,170C 124.186,169.441 127.853,168.774 131.5,168C 138.482,166.444 143.649,162.61 147,156.5C 148.162,162.154 151.329,166.154 156.5,168.5 Z"/></g>
<g><path style="opacity:1" fill="#513537" d="M 129.5,171.5 C 130.833,171.5 132.167,171.5 133.5,171.5C 133.5,172.5 133.5,173.5 133.5,174.5C 130.245,174.014 127.578,175.014 125.5,177.5C 124.479,176.998 124.312,176.332 125,175.5C 126.397,173.93 127.897,172.596 129.5,171.5 Z"/></g>
<g><path style="opacity:1" fill="#503537" d="M 144.5,171.5 C 148.258,171.58 151.258,173.08 153.5,176C 153.167,176.5 152.833,177 152.5,177.5C 150.705,175.297 148.371,174.131 145.5,174C 144.748,173.329 144.414,172.496 144.5,171.5 Z"/></g>
<g><path style="opacity:1" fill="#593a3a" d="M 128.5,179.5 C 129.833,179.5 131.167,179.5 132.5,179.5C 132.5,180.833 132.5,182.167 132.5,183.5C 131.167,183.5 129.833,183.5 128.5,183.5C 128.5,182.167 128.5,180.833 128.5,179.5 Z"/></g>
<g><path style="opacity:1" fill="#4e3437" d="M 146.5,179.5 C 148.346,179.222 149.68,179.889 150.5,181.5C 149.68,183.111 148.346,183.778 146.5,183.5C 146.5,182.167 146.5,180.833 146.5,179.5 Z"/></g>
<g><path style="opacity:1" fill="#d9eaf9" d="M 217.5,180.5 C 217.5,187.5 217.5,194.5 217.5,201.5C 207.167,201.5 196.833,201.5 186.5,201.5C 188.041,197.176 188.375,192.842 187.5,188.5C 184.181,182.342 179.181,180.342 172.5,182.5C 174.988,180.612 177.988,179.945 181.5,180.5C 181.5,178.5 181.5,176.5 181.5,174.5C 192.833,174.5 204.167,174.5 215.5,174.5C 215.025,177.082 215.692,179.082 217.5,180.5 Z"/></g>
<g><path style="opacity:1" fill="#f2b038" d="M 187.5,188.5 C 186.753,196.215 183.753,203.048 178.5,209C 176.455,209.49 174.455,209.323 172.5,208.5C 170.929,206.365 169.596,204.032 168.5,201.5C 166.937,197.339 166.271,193.005 166.5,188.5C 168.167,186.167 170.167,184.167 172.5,182.5C 179.181,180.342 184.181,182.342 187.5,188.5 Z"/></g>
<g><path style="opacity:1" fill="#fefbf6" d="M 174.5,186.5 C 182.726,186.212 185.059,189.712 181.5,197C 176.023,199.595 172.689,197.928 171.5,192C 171.613,189.601 172.613,187.768 174.5,186.5 Z"/></g>
<g><path style="opacity:1" fill="#44343c" d="M 382.5,188.5 C 383.833,188.5 385.167,188.5 386.5,188.5C 385.892,192.472 385.392,196.472 385,200.5C 384.586,200.957 384.086,201.291 383.5,201.5C 382.232,199.696 381.565,197.696 381.5,195.5C 381.756,193.208 381.423,191.041 380.5,189C 381.094,188.536 381.761,188.369 382.5,188.5 Z"/></g>
<g><path style="opacity:1" fill="#44343c" d="M 395.5,193.5 C 397.487,194.164 399.154,195.331 400.5,197C 388.499,208.982 386.832,207.815 395.5,193.5 Z"/></g>
<g><path style="opacity:1" fill="#252473" d="M 97.5,203.5 C 104.145,205.163 110.812,206.83 117.5,208.5C 117.5,208.833 117.5,209.167 117.5,209.5C 110.901,210.301 105.235,212.967 100.5,217.5C 96.6509,217.019 94.6509,218.686 94.5,222.5C 92.1667,225.167 89.8333,227.833 87.5,230.5C 80.3809,229.211 73.3809,227.544 66.5,225.5C 63.6699,223.638 62.8366,220.971 64,217.5C 72.1865,206.139 83.3531,201.473 97.5,203.5 Z"/></g>
<g><path style="opacity:1" fill="#ec8e39" d="M 187.5,188.5 C 188.375,192.842 188.041,197.176 186.5,201.5C 184.852,206.186 181.852,209.519 177.5,211.5C 175.308,211.243 173.641,210.243 172.5,208.5C 174.455,209.323 176.455,209.49 178.5,209C 183.753,203.048 186.753,196.215 187.5,188.5 Z"/></g>
<g><path style="opacity:1" fill="#eeab33" d="M 117.5,209.5 C 118.043,209.56 118.376,209.893 118.5,210.5C 116.775,212.957 116.275,215.623 117,218.5C 123.582,226.023 131.749,228.357 141.5,225.5C 141.194,222.615 141.527,219.948 142.5,217.5C 148.596,227.877 151.596,239.21 151.5,251.5C 148.361,255.09 145.694,259.09 143.5,263.5C 138.276,265.575 132.942,267.242 127.5,268.5C 128.521,259.189 128.687,249.856 128,240.5C 124.41,226.07 115.243,218.404 100.5,217.5C 105.235,212.967 110.901,210.301 117.5,209.5 Z"/></g>
<g><path style="opacity:1" fill="#36358f" d="M 168.5,201.5 C 169.596,204.032 170.929,206.365 172.5,208.5C 173.641,210.243 175.308,211.243 177.5,211.5C 181.852,209.519 184.852,206.186 186.5,201.5C 196.833,201.5 207.167,201.5 217.5,201.5C 223.176,201.334 228.843,201.501 234.5,202C 238.388,203.879 241.721,206.545 244.5,210C 254.828,210.5 265.161,210.666 275.5,210.5C 281.167,210.5 286.833,210.5 292.5,210.5C 321.877,210.183 351.211,210.516 380.5,211.5C 383.824,213.167 386.824,215.334 389.5,218C 393.833,218.333 398.167,218.667 402.5,219C 403.056,219.383 403.389,219.883 403.5,220.5C 403.5,231.833 403.5,243.167 403.5,254.5C 402.5,254.5 401.5,254.5 400.5,254.5C 399.838,252.696 399.505,250.696 399.5,248.5C 401.072,240.237 401.738,231.903 401.5,223.5C 398.313,222.194 394.98,222.194 391.5,223.5C 391.624,224.107 391.957,224.44 392.5,224.5C 393.833,239.833 393.833,255.167 392.5,270.5C 392.5,273.833 392.5,277.167 392.5,280.5C 390.533,280.261 388.699,280.594 387,281.5C 386.333,286.833 386.333,292.167 387,297.5C 388.699,298.406 390.533,298.739 392.5,298.5C 392.825,303.599 392.325,308.599 391,313.5C 389.829,314.893 388.329,315.727 386.5,316C 382.848,316.499 379.182,316.665 375.5,316.5C 375.5,315.5 375.5,314.5 375.5,313.5C 371.622,298.22 361.955,292.72 346.5,297C 339.97,300.691 335.97,306.191 334.5,313.5C 334.5,314.5 334.5,315.5 334.5,316.5C 331.753,316.187 329.086,316.52 326.5,317.5C 327.309,319.071 327.643,320.738 327.5,322.5C 311.167,322.5 294.833,322.5 278.5,322.5C 278.357,320.738 278.691,319.071 279.5,317.5C 261.512,316.5 243.512,316.167 225.5,316.5C 225.5,315.5 225.5,314.5 225.5,313.5C 220.898,298.363 210.898,292.863 195.5,297C 189.17,300.836 185.17,306.336 183.5,313.5C 183.5,314.167 183.5,314.833 183.5,315.5C 174.5,315.5 165.5,315.5 156.5,315.5C 156.203,308.08 156.536,300.746 157.5,293.5C 158.833,293.167 160.167,292.833 161.5,292.5C 233.833,292.5 306.167,292.5 378.5,292.5C 378.5,291.5 378.5,290.5 378.5,289.5C 307.167,289.5 235.833,289.5 164.5,289.5C 165.5,287.833 166.833,286.5 168.5,285.5C 238.5,285.5 308.5,285.5 378.5,285.5C 378.5,282.833 378.5,280.167 378.5,277.5C 310.833,277.5 243.167,277.5 175.5,277.5C 175.298,275.05 175.631,272.717 176.5,270.5C 183.558,270.797 190.558,270.464 197.5,269.5C 198.833,255.167 198.833,240.833 197.5,226.5C 192.23,225.549 186.897,225.215 181.5,225.5C 177.615,224.966 173.782,223.966 170,222.5C 168.357,223.315 166.857,224.315 165.5,225.5C 161.833,225.5 158.167,225.5 154.5,225.5C 152.833,222.176 150.666,219.176 148,216.5C 149.857,220.582 151.524,224.916 153,229.5C 153.42,233.191 153.92,236.858 154.5,240.5C 154.5,244.167 154.5,247.833 154.5,251.5C 153.5,251.5 152.5,251.5 151.5,251.5C 151.596,239.21 148.596,227.877 142.5,217.5C 141.659,215.621 141.325,213.621 141.5,211.5C 143.017,211.511 144.184,212.177 145,213.5C 150.486,210.829 156.32,209.829 162.5,210.5C 162.112,205.891 164.112,202.891 168.5,201.5 Z"/></g>
<g><path style="opacity:1" fill="#403a8d" d="M 100.5,217.5 C 115.243,218.404 124.41,226.07 128,240.5C 128.687,249.856 128.521,259.189 127.5,268.5C 125.114,269.298 122.78,270.298 120.5,271.5C 119.893,271.376 119.56,271.043 119.5,270.5C 126.33,258.141 126.163,245.808 119,233.5C 112.691,225.676 104.525,222.009 94.5,222.5C 94.6509,218.686 96.6509,217.019 100.5,217.5 Z"/></g>
<g><path style="opacity:1" fill="#f0ac32" d="M 94.5,222.5 C 104.525,222.009 112.691,225.676 119,233.5C 126.163,245.808 126.33,258.141 119.5,270.5C 114.162,273.28 108.495,275.28 102.5,276.5C 103.162,272.534 103.495,268.534 103.5,264.5C 105.164,263.051 105.998,261.051 106,258.5C 106.924,251.392 106.591,244.392 105,237.5C 99.4112,230.911 93.7445,230.911 88,237.5C 86.6667,239.5 85.3333,241.5 84,243.5C 83.6012,243.272 83.4346,242.938 83.5,242.5C 84.2672,238.302 85.6005,234.302 87.5,230.5C 89.8333,227.833 92.1667,225.167 94.5,222.5 Z"/></g>
<g><path style="opacity:1" fill="#d59b3d" d="M 154.5,225.5 C 155.207,228.786 155.54,232.119 155.5,235.5C 155.784,237.415 155.451,239.081 154.5,240.5C 153.92,236.858 153.42,233.191 153,229.5C 151.524,224.916 149.857,220.582 148,216.5C 150.666,219.176 152.833,222.176 154.5,225.5 Z"/></g>
<g><path style="opacity:1" fill="#9090b8" d="M 401.5,223.5 C 398.287,223.19 395.287,223.523 392.5,224.5C 391.957,224.44 391.624,224.107 391.5,223.5C 394.98,222.194 398.313,222.194 401.5,223.5 Z"/></g>
<g><path style="opacity:1" fill="#c2c2db" d="M 403.5,220.5 C 404.495,231.988 404.828,243.655 404.5,255.5C 402.901,255.768 401.568,255.434 400.5,254.5C 401.5,254.5 402.5,254.5 403.5,254.5C 403.5,243.167 403.5,231.833 403.5,220.5 Z"/></g>
<g><path style="opacity:1" fill="#f0ad34" d="M 318.5,229.5 C 321.342,240.507 319.509,250.84 313,260.5C 309.626,264.617 305.46,265.95 300.5,264.5C 294.182,257.507 290.848,249.173 290.5,239.5C 291.415,230.084 296.582,224.751 306,223.5C 311.084,223.793 315.251,225.793 318.5,229.5 Z"/></g>
<g><path style="opacity:1" fill="#383791" d="M 66.5,225.5 C 73.3809,227.544 80.3809,229.211 87.5,230.5C 85.6005,234.302 84.2672,238.302 83.5,242.5C 81.0972,251.236 79.4305,260.236 78.5,269.5C 77.2585,279.804 76.7585,290.137 77,300.5C 79.9046,299.297 82.7379,297.964 85.5,296.5C 87.5034,298.015 89.8368,298.681 92.5,298.5C 97.5433,297.708 102.543,296.708 107.5,295.5C 97.8741,302.274 87.2074,306.941 75.5,309.5C 70.2893,307.561 65.2893,305.061 60.5,302C 55.7047,298.245 52.538,293.412 51,287.5C 49.3761,265.115 54.5428,244.448 66.5,225.5 Z"/></g>
<g><path style="opacity:1" fill="#d2dbe8" d="M 154.5,225.5 C 158.167,225.5 161.833,225.5 165.5,225.5C 162.937,229.345 159.937,232.678 156.5,235.5C 156.167,235.5 155.833,235.5 155.5,235.5C 155.54,232.119 155.207,228.786 154.5,225.5 Z"/></g>
<g><path style="opacity:1" fill="#e4eefa" d="M 209.5,226.5 C 223.837,226.333 238.171,226.5 252.5,227C 238.299,241.369 223.965,255.535 209.5,269.5C 208.883,269.389 208.383,269.056 208,268.5C 207.803,254.328 208.303,240.328 209.5,226.5 Z"/></g>
<g><path style="opacity:1" fill="#ddebf9" d="M 392.5,270.5 C 372.236,273.062 364.236,264.229 368.5,244C 368.833,238.167 369.167,232.333 369.5,226.5C 377.11,225.533 384.777,225.2 392.5,225.5C 392.5,240.5 392.5,255.5 392.5,270.5 Z"/></g>
<g><path style="opacity:1" fill="#fefdfa" d="M 303.5,230.5 C 311.831,229.666 315.664,233.333 315,241.5C 313.775,246.053 310.775,248.387 306,248.5C 299.353,247.182 296.686,243.182 298,236.5C 299.36,233.977 301.193,231.977 303.5,230.5 Z"/></g>
<g><path style="opacity:1" fill="#dbe8f8" d="M 342.5,225.5 C 348.842,225.334 355.175,225.5 361.5,226C 362,226.5 362.5,227 363,227.5C 363.667,241.167 363.667,254.833 363,268.5C 362.5,269 362,269.5 361.5,270C 355.115,270.793 348.782,270.626 342.5,269.5C 341.185,254.77 341.185,240.103 342.5,225.5 Z"/></g>
<g><path style="opacity:1" fill="#f18b33" d="M 103.5,264.5 C 95.8705,265.745 88.2038,266.745 80.5,267.5C 79.8333,268.167 79.1667,268.833 78.5,269.5C 79.4305,260.236 81.0972,251.236 83.5,242.5C 83.4346,242.938 83.6012,243.272 84,243.5C 85.3333,241.5 86.6667,239.5 88,237.5C 93.7445,230.911 99.4112,230.911 105,237.5C 106.591,244.392 106.924,251.392 106,258.5C 105.998,261.051 105.164,263.051 103.5,264.5 Z"/></g>
<g><path style="opacity:1" fill="#d6e5f6" d="M 209.5,226.5 C 230.329,225.337 251.329,225.171 272.5,226C 273,226.5 273.5,227 274,227.5C 274.667,241.167 274.667,254.833 274,268.5C 273.5,269 273,269.5 272.5,270C 251.329,270.829 230.329,270.663 209.5,269.5C 223.965,255.535 238.299,241.369 252.5,227C 238.171,226.5 223.837,226.333 209.5,226.5 Z"/></g>
<g><path style="opacity:1" fill="#2d2426" d="M 155.5,235.5 C 155.833,235.5 156.167,235.5 156.5,235.5C 163.524,235.608 170.524,236.108 177.5,237C 178.348,243.096 178.348,249.262 177.5,255.5C 170.325,256.693 163.159,257.693 156,258.5C 155.71,256.08 155.21,253.746 154.5,251.5C 154.5,247.833 154.5,244.167 154.5,240.5C 155.451,239.081 155.784,237.415 155.5,235.5 Z"/></g>
<g><path style="opacity:1" fill="#eb8b37" d="M 318.5,229.5 C 321.754,232.363 323.087,236.03 322.5,240.5C 322.138,251.052 318.138,259.885 310.5,267C 306.362,269.299 303.028,268.465 300.5,264.5C 305.46,265.95 309.626,264.617 313,260.5C 319.509,250.84 321.342,240.507 318.5,229.5 Z"/></g>
<g><path style="opacity:1" fill="#d9e6f5" d="M 181.5,225.5 C 186.897,225.215 192.23,225.549 197.5,226.5C 198.833,240.833 198.833,255.167 197.5,269.5C 190.558,270.464 183.558,270.797 176.5,270.5C 176.5,269.5 176.5,268.5 176.5,267.5C 179.129,262.128 181.296,256.461 183,250.5C 188.69,245.451 191.357,239.118 191,231.5C 189.027,227.449 185.86,225.449 181.5,225.5 Z"/></g>
<g><path style="opacity:1" fill="#ed906d" d="M 181.5,225.5 C 185.86,225.449 189.027,227.449 191,231.5C 191.357,239.118 188.69,245.451 183,250.5C 181.296,256.461 179.129,262.128 176.5,267.5C 176.5,265.5 176.5,263.5 176.5,261.5C 174.712,261.215 173.045,261.548 171.5,262.5C 172.568,267.967 172.568,273.634 171.5,279.5C 169.975,281.216 168.975,283.216 168.5,285.5C 166.833,286.5 165.5,287.833 164.5,289.5C 163.167,290.167 162.167,291.167 161.5,292.5C 160.167,292.833 158.833,293.167 157.5,293.5C 156.833,293.5 156.167,293.5 155.5,293.5C 155.5,289.5 155.5,285.5 155.5,281.5C 152.518,281.896 149.851,281.229 147.5,279.5C 134.371,285.4 121.037,290.733 107.5,295.5C 102.543,296.708 97.5433,297.708 92.5,298.5C 89.8368,298.681 87.5034,298.015 85.5,296.5C 81.0687,287.379 79.402,277.712 80.5,267.5C 88.2038,266.745 95.8705,265.745 103.5,264.5C 103.495,268.534 103.162,272.534 102.5,276.5C 108.495,275.28 114.162,273.28 119.5,270.5C 119.56,271.043 119.893,271.376 120.5,271.5C 122.78,270.298 125.114,269.298 127.5,268.5C 132.942,267.242 138.276,265.575 143.5,263.5C 145.694,259.09 148.361,255.09 151.5,251.5C 152.5,251.5 153.5,251.5 154.5,251.5C 155.21,253.746 155.71,256.08 156,258.5C 163.159,257.693 170.325,256.693 177.5,255.5C 178.348,249.262 178.348,243.096 177.5,237C 170.524,236.108 163.524,235.608 156.5,235.5C 159.937,232.678 162.937,229.345 165.5,225.5C 166.857,224.315 168.357,223.315 170,222.5C 173.782,223.966 177.615,224.966 181.5,225.5 Z"/></g>
<g><path style="opacity:1" fill="#c8c6c6" d="M 156.5,238.5 C 157.833,238.5 159.167,238.5 160.5,238.5C 158.597,249.088 157.264,249.088 156.5,238.5 Z"/></g>
<g><path style="opacity:1" fill="#37292b" d="M 176.5,267.5 C 176.5,268.5 176.5,269.5 176.5,270.5C 175.631,272.717 175.298,275.05 175.5,277.5C 174.713,279.104 173.38,279.771 171.5,279.5C 172.568,273.634 172.568,267.967 171.5,262.5C 173.045,261.548 174.712,261.215 176.5,261.5C 176.5,263.5 176.5,265.5 176.5,267.5 Z"/></g>
<g><path style="opacity:1" fill="#e8a739" d="M 80.5,267.5 C 79.402,277.712 81.0687,287.379 85.5,296.5C 82.7379,297.964 79.9046,299.297 77,300.5C 76.7585,290.137 77.2585,279.804 78.5,269.5C 79.1667,268.833 79.8333,268.167 80.5,267.5 Z"/></g>
<g><path style="opacity:1" fill="#222272" d="M 175.5,277.5 C 243.167,277.5 310.833,277.5 378.5,277.5C 378.5,280.167 378.5,282.833 378.5,285.5C 308.5,285.5 238.5,285.5 168.5,285.5C 168.975,283.216 169.975,281.216 171.5,279.5C 173.38,279.771 174.713,279.104 175.5,277.5 Z"/></g>
<g><path style="opacity:1" fill="#f2ae30" d="M 155.5,293.5 C 155.5,301.167 155.5,308.833 155.5,316.5C 155.5,320.833 155.5,325.167 155.5,329.5C 128.833,329.5 102.167,329.5 75.5,329.5C 75.5,322.833 75.5,316.167 75.5,309.5C 87.2074,306.941 97.8741,302.274 107.5,295.5C 121.037,290.733 134.371,285.4 147.5,279.5C 149.851,281.229 152.518,281.896 155.5,281.5C 155.5,285.5 155.5,289.5 155.5,293.5 Z"/></g>
<g><path style="opacity:1" fill="#f2ae30" d="M 392.5,280.5 C 392.5,286.5 392.5,292.5 392.5,298.5C 390.533,298.739 388.699,298.406 387,297.5C 386.333,292.167 386.333,286.833 387,281.5C 388.699,280.594 390.533,280.261 392.5,280.5 Z"/></g>
<g><path style="opacity:1" fill="#28287c" d="M 164.5,289.5 C 235.833,289.5 307.167,289.5 378.5,289.5C 378.5,290.5 378.5,291.5 378.5,292.5C 306.167,292.5 233.833,292.5 161.5,292.5C 162.167,291.167 163.167,290.167 164.5,289.5 Z"/></g>
<g><path style="opacity:1" fill="#382830" d="M 225.5,313.5 C 224.19,318.545 222.19,323.545 219.5,328.5C 218.833,328.5 218.5,328.833 218.5,329.5C 208.75,329.806 199.084,329.473 189.5,328.5C 187.052,323.451 185.052,318.451 183.5,313.5C 185.17,306.336 189.17,300.836 195.5,297C 210.898,292.863 220.898,298.363 225.5,313.5 Z"/></g>
<g><path style="opacity:1" fill="#382831" d="M 375.5,313.5 C 375.238,319.379 373.238,324.713 369.5,329.5C 360.167,329.5 350.833,329.5 341.5,329.5C 341.5,328.833 341.167,328.5 340.5,328.5C 339.093,326.692 337.926,324.692 337,322.5C 337.07,319.008 336.237,316.008 334.5,313.5C 335.97,306.191 339.97,300.691 346.5,297C 361.955,292.72 371.622,298.22 375.5,313.5 Z"/></g>
<g><path style="opacity:1" fill="#b9ada5" d="M 200.5,304.5 C 211.162,303.997 216.329,308.997 216,319.5C 212.88,326.974 207.38,329.474 199.5,327C 189.964,319.144 190.298,311.644 200.5,304.5 Z"/></g>
<g><path style="opacity:1" fill="#5a4c4f" d="M 201.5,306.5 C 203.924,306.192 206.257,306.526 208.5,307.5C 205.496,312.951 203.163,312.618 201.5,306.5 Z"/></g>
<g><path style="opacity:1" fill="#b9ada5" d="M 351.5,304.5 C 363.361,304.193 368.194,309.86 366,321.5C 362.364,327.177 357.197,329.01 350.5,327C 340.937,319.094 341.27,311.594 351.5,304.5 Z"/></g>
<g><path style="opacity:1" fill="#4f4146" d="M 352.5,306.5 C 354.5,306.5 356.5,306.5 358.5,306.5C 358.299,310.35 356.466,311.35 353,309.5C 352.517,308.552 352.351,307.552 352.5,306.5 Z"/></g>
<g><path style="opacity:1" fill="#54464a" d="M 348.5,308.5 C 352.657,311.062 352.491,313.062 348,314.5C 347.167,314.167 346.333,313.833 345.5,313.5C 346.26,311.64 347.26,309.973 348.5,308.5 Z"/></g>
<g><path style="opacity:1" fill="#524448" d="M 197.5,308.5 C 201.657,311.062 201.491,313.062 197,314.5C 196.167,314.167 195.333,313.833 194.5,313.5C 195.26,311.64 196.26,309.973 197.5,308.5 Z"/></g>
<g><path style="opacity:1" fill="#584b4e" d="M 361.5,309.5 C 364.292,310.392 365.625,312.392 365.5,315.5C 360.003,315.811 358.669,313.811 361.5,309.5 Z"/></g>
<g><path style="opacity:1" fill="#594b4f" d="M 210.5,309.5 C 213.292,310.392 214.625,312.392 214.5,315.5C 209.003,315.811 207.669,313.811 210.5,309.5 Z"/></g>
<g><path style="opacity:1" fill="#655f9b" d="M 155.5,293.5 C 156.167,293.5 156.833,293.5 157.5,293.5C 156.536,300.746 156.203,308.08 156.5,315.5C 165.5,315.5 174.5,315.5 183.5,315.5C 174.348,316.494 165.015,316.827 155.5,316.5C 155.5,308.833 155.5,301.167 155.5,293.5 Z"/></g>
<g><path style="opacity:1" fill="#dfebf7" d="M 183.5,313.5 C 185.052,318.451 187.052,323.451 189.5,328.5C 178.346,329.495 167.012,329.828 155.5,329.5C 155.5,325.167 155.5,320.833 155.5,316.5C 165.015,316.827 174.348,316.494 183.5,315.5C 183.5,314.833 183.5,314.167 183.5,313.5 Z"/></g>
<g><path style="opacity:1" fill="#ebf2fb" d="M 225.5,313.5 C 225.5,314.5 225.5,315.5 225.5,316.5C 243.512,316.167 261.512,316.5 279.5,317.5C 278.691,319.071 278.357,320.738 278.5,322.5C 294.833,322.5 311.167,322.5 327.5,322.5C 327.643,320.738 327.309,319.071 326.5,317.5C 329.086,316.52 331.753,316.187 334.5,316.5C 334.5,315.5 334.5,314.5 334.5,313.5C 336.237,316.008 337.07,319.008 337,322.5C 337.926,324.692 339.093,326.692 340.5,328.5C 300.167,329.833 259.833,329.833 219.5,328.5C 222.19,323.545 224.19,318.545 225.5,313.5 Z"/></g>
<g><path style="opacity:1" fill="#534549" d="M 194.5,317.5 C 199.828,317.036 201.161,318.869 198.5,323C 196.156,322.235 194.823,320.402 194.5,317.5 Z"/></g>
<g><path style="opacity:1" fill="#504247" d="M 345.5,317.5 C 350.828,317.036 352.161,318.869 349.5,323C 347.156,322.235 345.823,320.402 345.5,317.5 Z"/></g>
<g><path style="opacity:1" fill="#534549" d="M 209.5,318.5 C 214.819,317.543 215.819,319.043 212.5,323C 209.14,323.118 208.14,321.618 209.5,318.5 Z"/></g>
<g><path style="opacity:1" fill="#4f4145" d="M 359.5,318.5 C 361.167,318.5 362.833,318.5 364.5,318.5C 362.614,324.956 360.947,324.956 359.5,318.5 Z"/></g>
<g><path style="opacity:1" fill="#56484c" d="M 202.5,321.5 C 206.151,321.162 207.817,322.828 207.5,326.5C 205.5,326.5 203.5,326.5 201.5,326.5C 201.629,324.784 201.962,323.117 202.5,321.5 Z"/></g>
<g><path style="opacity:1" fill="#534549" d="M 353.5,321.5 C 356.91,321.384 358.244,323.05 357.5,326.5C 352.25,326.999 350.917,325.333 353.5,321.5 Z"/></g>
<g><path style="opacity:1" fill="#4d3e42" d="M 189.5,328.5 C 199.084,329.473 208.75,329.806 218.5,329.5C 259.5,330.833 300.5,330.833 341.5,329.5C 350.833,329.5 360.167,329.5 369.5,329.5C 381.5,329.5 393.5,329.5 405.5,329.5C 405.5,331.833 405.5,334.167 405.5,336.5C 278.167,336.5 150.833,336.5 23.5,336.5C 23.5,334.167 23.5,331.833 23.5,329.5C 31.8333,329.5 40.1667,329.5 48.5,329.5C 57.5,329.5 66.5,329.5 75.5,329.5C 102.167,329.5 128.833,329.5 155.5,329.5C 167.012,329.828 178.346,329.495 189.5,328.5 Z"/></g>
<g><path style="opacity:1" fill="#64585d" d="M 219.5,328.5 C 259.833,329.833 300.167,329.833 340.5,328.5C 341.167,328.5 341.5,328.833 341.5,329.5C 300.5,330.833 259.5,330.833 218.5,329.5C 218.5,328.833 218.833,328.5 219.5,328.5 Z"/></g>
</svg>
