<?xml version="1.0" encoding="UTF-8"?>
<!DOCTYPE svg PUBLIC "-//W3C//DTD SVG 1.1//EN" "http://www.w3.org/Graphics/SVG/1.1/DTD/svg11.dtd">
<svg xmlns="http://www.w3.org/2000/svg" version="1.1" width="1272px" height="1273px" style="shape-rendering:geometricPrecision; text-rendering:geometricPrecision; image-rendering:optimizeQuality; fill-rule:evenodd; clip-rule:evenodd" xmlns:xlink="http://www.w3.org/1999/xlink">
<g><path style="opacity:1" fill="#ff453a" d="M 600.5,-0.5 C 623.5,-0.5 646.5,-0.5 669.5,-0.5C 844.265,13.1379 990.765,84.1379 1109,212.5C 1206.78,323.119 1260.95,452.453 1271.5,600.5C 1271.5,623.833 1271.5,647.167 1271.5,670.5C 1255.97,863.748 1172.64,1020.25 1021.5,1140C 908.414,1225.51 780.747,1269.67 638.5,1272.5C 636.5,1272.5 634.5,1272.5 632.5,1272.5C 443.487,1267.26 285.654,1194.93 159,1055.5C 63.2488,945.607 10.0821,817.607 -0.5,671.5C -0.5,647.833 -0.5,624.167 -0.5,600.5C 14.1433,416.706 91.1433,265.206 230.5,146C 337.932,57.8933 461.266,9.05995 600.5,-0.5 Z"/></g>
<g><path style="opacity:1" fill="#ffe2e1" d="M 564.5,365.5 C 593.544,362.897 610.211,375.897 614.5,404.5C 614.141,416.419 609.974,426.752 602,435.5C 568.861,467.639 536.028,500.139 503.5,533C 478.87,553.961 454.537,575.294 430.5,597C 470.149,595.744 509.816,594.411 549.5,593C 676.833,592.333 804.167,592.333 931.5,593C 955.531,596.697 967.864,610.697 968.5,635C 967.969,656.536 957.302,670.202 936.5,676C 800.5,676.667 664.5,676.667 528.5,676C 495.48,674.838 462.48,673.838 429.5,673C 454.5,694.667 479.5,716.333 504.5,738C 538.306,770.805 571.806,803.972 605,837.5C 616.549,853.105 617.549,869.439 608,886.5C 595.857,902.327 580.023,907.827 560.5,903C 556.673,901.254 553.007,899.254 549.5,897C 472.306,819.473 394.806,742.306 317,665.5C 298.69,644.519 299.023,623.852 318,603.5C 394.167,527.333 470.333,451.167 546.5,375C 551.877,370.48 557.877,367.314 564.5,365.5 Z"/></g>
</svg>
