<?xml version="1.0" encoding="UTF-8"?>
<!DOCTYPE svg PUBLIC "-//W3C//DTD SVG 1.1//EN" "http://www.w3.org/Graphics/SVG/1.1/DTD/svg11.dtd">
<svg xmlns="http://www.w3.org/2000/svg" version="1.1" width="478px" height="473px" style="shape-rendering:geometricPrecision; text-rendering:geometricPrecision; image-rendering:optimizeQuality; fill-rule:evenodd; clip-rule:evenodd" xmlns:xlink="http://www.w3.org/1999/xlink">
<g><path style="opacity:1" fill="#f6f6f6" d="M 241.5,-0.5 C 294.167,-0.5 346.833,-0.5 399.5,-0.5C 400.152,0.725071 401.319,1.39174 403,1.5C 405.817,2.03052 408.65,2.36386 411.5,2.5C 411.5,6.83333 411.5,11.1667 411.5,15.5C 407.5,15.5 403.5,15.5 399.5,15.5C 399.5,19.8333 399.5,24.1667 399.5,28.5C 394.833,28.5 390.167,28.5 385.5,28.5C 381.5,28.5 377.5,28.5 373.5,28.5C 373.5,32.8333 373.5,37.1667 373.5,41.5C 368.833,41.5 364.167,41.5 359.5,41.5C 359.5,37.1667 359.5,32.8333 359.5,28.5C 355.5,28.5 351.5,28.5 347.5,28.5C 347.5,33.1667 347.5,37.8333 347.5,42.5C 351.5,42.5 355.5,42.5 359.5,42.5C 359.5,46.5 359.5,50.5 359.5,54.5C 355.5,54.5 351.5,54.5 347.5,54.5C 347.737,50.7267 347.237,47.0601 346,43.5C 341.867,46.6311 338.034,50.1311 334.5,54C 338.486,54.4988 342.486,54.6655 346.5,54.5C 346.5,59.1667 346.5,63.8333 346.5,68.5C 342.167,68.5 337.833,68.5 333.5,68.5C 333.5,63.8333 333.5,59.1667 333.5,54.5C 329.167,54.5 324.833,54.5 320.5,54.5C 320.5,50.5 320.5,46.5 320.5,42.5C 316.138,42.2437 311.805,42.077 307.5,42C 306.536,46.0659 306.203,50.2325 306.5,54.5C 303.167,54.5 299.833,54.5 296.5,54.5C 277.346,43.2083 258.013,32.2083 238.5,21.5C 238.5,16.8333 238.5,12.1667 238.5,7.5C 236.906,6.01695 235.24,4.51695 233.5,3C 236.675,2.50682 239.341,1.34015 241.5,-0.5 Z"/></g>
<g><path style="opacity:1" fill="#fcfcfc" d="M 189.5,-0.5 C 193.833,-0.5 198.167,-0.5 202.5,-0.5C 206.392,1.35288 210.725,2.35288 215.5,2.5C 215.5,5.16667 215.5,7.83333 215.5,10.5C 210.833,10.5 206.167,10.5 201.5,10.5C 201.5,7.83333 201.5,5.16667 201.5,2.5C 197.5,1.16667 193.5,1.16667 189.5,2.5C 189.5,6.5 189.5,10.5 189.5,14.5C 184.881,15.3136 180.214,15.6469 175.5,15.5C 175.334,11.1539 175.501,6.82056 176,2.5C 180.864,2.17612 185.364,1.17612 189.5,-0.5 Z"/></g>
<g><path style="opacity:1" fill="#d7d3d1" d="M 238.5,7.5 C 238.5,12.1667 238.5,16.8333 238.5,21.5C 236.262,19.8845 233.929,18.5512 231.5,17.5C 231.721,14.7212 231.388,12.0545 230.5,9.5C 233.167,8.83333 235.833,8.16667 238.5,7.5 Z"/></g>
<g><path style="opacity:1" fill="#ebeae9" d="M 202.5,-0.5 C 215.5,-0.5 228.5,-0.5 241.5,-0.5C 239.341,1.34015 236.675,2.50682 233.5,3C 235.24,4.51695 236.906,6.01695 238.5,7.5C 235.833,8.16667 233.167,8.83333 230.5,9.5C 228.606,8.95244 226.94,7.95244 225.5,6.5C 224.52,9.08645 224.187,11.7531 224.5,14.5C 208.826,14.3759 194.326,18.3759 181,26.5C 178.357,24.7617 175.523,23.4284 172.5,22.5C 175.091,21.0087 176.091,18.6753 175.5,15.5C 180.214,15.6469 184.881,15.3136 189.5,14.5C 189.5,10.5 189.5,6.5 189.5,2.5C 193.5,1.16667 197.5,1.16667 201.5,2.5C 201.5,5.16667 201.5,7.83333 201.5,10.5C 206.167,10.5 210.833,10.5 215.5,10.5C 215.5,7.83333 215.5,5.16667 215.5,2.5C 210.725,2.35288 206.392,1.35288 202.5,-0.5 Z"/></g>
<g><path style="opacity:1" fill="#d2cfcd" d="M 230.5,9.5 C 231.388,12.0545 231.721,14.7212 231.5,17.5C 224.492,17.3337 217.492,17.5004 210.5,18C 207.543,18.2794 204.877,19.1127 202.5,20.5C 192.526,22.9885 183.526,27.3218 175.5,33.5C 170.909,36.0846 166.576,39.0846 162.5,42.5C 160.692,42.4914 159.025,42.9914 157.5,44C 147.699,53.9555 138.366,64.2888 129.5,75C 127.544,74.7782 125.71,73.9448 124,72.5C 123.601,72.7284 123.435,73.0618 123.5,73.5C 121.31,72.2524 120.977,70.5857 122.5,68.5C 127.491,62.177 132.824,56.177 138.5,50.5C 140.833,47.8333 143.167,45.1667 145.5,42.5C 153.571,34.6259 162.571,27.9592 172.5,22.5C 175.523,23.4284 178.357,24.7617 181,26.5C 194.326,18.3759 208.826,14.3759 224.5,14.5C 224.187,11.7531 224.52,9.08645 225.5,6.5C 226.94,7.95244 228.606,8.95244 230.5,9.5 Z"/></g>
<g><path style="opacity:1" fill="#fbfbfb" d="M 145.5,42.5 C 143.167,45.1667 140.833,47.8333 138.5,50.5C 136.78,48.3419 135.947,45.6752 136,42.5C 132.045,42.6295 127.878,42.6295 123.5,42.5C 123.5,46.5 123.5,50.5 123.5,54.5C 119.167,54.5 114.833,54.5 110.5,54.5C 110.5,50.5 110.5,46.5 110.5,42.5C 106.818,42.6653 103.152,42.4986 99.5,42C 98.244,41.5831 97.5774,40.7498 97.5,39.5C 97.5,35.8333 97.5,32.1667 97.5,28.5C 101.833,28.5 106.167,28.5 110.5,28.5C 110.334,32.5138 110.501,36.5138 111,40.5C 115.066,41.4637 119.233,41.797 123.5,41.5C 123.5,37.1667 123.5,32.8333 123.5,28.5C 127.833,28.5 132.167,28.5 136.5,28.5C 136.666,24.4862 136.499,20.4862 136,16.5C 131.934,15.5363 127.767,15.203 123.5,15.5C 123.5,11.1667 123.5,6.83333 123.5,2.5C 127.884,2.17443 132.217,2.50776 136.5,3.5C 137.433,7.42949 137.766,11.4295 137.5,15.5C 141.5,15.5 145.5,15.5 149.5,15.5C 149.5,19.8333 149.5,24.1667 149.5,28.5C 145.5,28.5 141.5,28.5 137.5,28.5C 137.629,32.8784 137.629,37.0451 137.5,41C 140.365,41.1829 143.031,41.6829 145.5,42.5 Z"/></g>
<g><path style="opacity:1" fill="#f7f7f7" d="M -0.5,-0.5 C 14.5,-0.5 29.5,-0.5 44.5,-0.5C 48.6365,1.17612 53.1365,2.17612 58,2.5C 58.499,6.82056 58.6657,11.1539 58.5,15.5C 53.8333,15.5 49.1667,15.5 44.5,15.5C 44.5,19.8333 44.5,24.1667 44.5,28.5C 40.4862,28.6655 36.4862,28.4988 32.5,28C 31.8333,24 31.1667,20 30.5,16C 26.5138,15.5012 22.5138,15.3345 18.5,15.5C 18.5,19.8333 18.5,24.1667 18.5,28.5C 22.8333,28.5 27.1667,28.5 31.5,28.5C 32.2949,32.7853 32.6282,37.1186 32.5,41.5C 36.4659,42.1621 40.4659,42.4955 44.5,42.5C 44.5,46.5 44.5,50.5 44.5,54.5C 49.1667,54.5 53.8333,54.5 58.5,54.5C 58.6657,58.8461 58.499,63.1794 58,67.5C 53.5986,68.4667 49.0986,68.8 44.5,68.5C 44.5,72.5 44.5,76.5 44.5,80.5C 49.1667,80.5 53.8333,80.5 58.5,80.5C 58.5,76.5 58.5,72.5 58.5,68.5C 62.5,68.5 66.5,68.5 70.5,68.5C 70.5,63.8333 70.5,59.1667 70.5,54.5C 75.1667,54.5 79.8333,54.5 84.5,54.5C 84.5,59.1667 84.5,63.8333 84.5,68.5C 88.5,68.5 92.5,68.5 96.5,68.5C 96.5,72.5 96.5,76.5 96.5,80.5C 92.5,80.5 88.5,80.5 84.5,80.5C 84.5,85.1667 84.5,89.8333 84.5,94.5C 79.8333,94.5 75.1667,94.5 70.5,94.5C 70.5,98.5 70.5,102.5 70.5,106.5C 66.5,106.5 62.5,106.5 58.5,106.5C 58.5,102.5 58.5,98.5 58.5,94.5C 53.8333,94.5 49.1667,94.5 44.5,94.5C 44.5,98.5 44.5,102.5 44.5,106.5C 40.4454,106.824 36.4454,106.491 32.5,105.5C 31.5741,101.906 31.2408,98.2396 31.5,94.5C 27.1667,94.5 22.8333,94.5 18.5,94.5C 18.5,90.1667 18.5,85.8333 18.5,81.5C 22.7853,80.7051 27.1186,80.3718 31.5,80.5C 31.7935,76.5633 31.4601,72.73 30.5,69C 26.5138,68.5012 22.5138,68.3345 18.5,68.5C 18.5,72.5 18.5,76.5 18.5,80.5C 14.1667,80.5 9.83333,80.5 5.5,80.5C 5.5,85.1667 5.5,89.8333 5.5,94.5C 3.5,94.5 1.5,94.5 -0.5,94.5C -0.5,62.8333 -0.5,31.1667 -0.5,-0.5 Z"/></g>
<g><path style="opacity:1" fill="#cb4747" d="M 175.5,33.5 C 174.294,34.8804 174.627,36.0471 176.5,37C 243.939,76.5028 311.273,115.836 378.5,155C 380.025,156.009 381.692,156.509 383.5,156.5C 375.192,163.804 366.859,171.138 358.5,178.5C 353.245,174.195 347.578,170.361 341.5,167C 278.52,130.978 215.853,94.6448 153.5,58C 151.975,56.9914 150.308,56.4914 148.5,56.5C 152.86,51.4729 157.527,46.8062 162.5,42.5C 166.576,39.0846 170.909,36.0846 175.5,33.5 Z"/></g>
<g><path style="opacity:1" fill="#f4f4f4" d="M 44.5,-0.5 C 92.8333,-0.5 141.167,-0.5 189.5,-0.5C 185.364,1.17612 180.864,2.17612 176,2.5C 175.501,6.82056 175.334,11.1539 175.5,15.5C 176.091,18.6753 175.091,21.0087 172.5,22.5C 162.571,27.9592 153.571,34.6259 145.5,42.5C 143.031,41.6829 140.365,41.1829 137.5,41C 137.629,37.0451 137.629,32.8784 137.5,28.5C 141.5,28.5 145.5,28.5 149.5,28.5C 149.5,24.1667 149.5,19.8333 149.5,15.5C 145.5,15.5 141.5,15.5 137.5,15.5C 137.766,11.4295 137.433,7.42949 136.5,3.5C 132.217,2.50776 127.884,2.17443 123.5,2.5C 123.5,6.83333 123.5,11.1667 123.5,15.5C 127.767,15.203 131.934,15.5363 136,16.5C 136.499,20.4862 136.666,24.4862 136.5,28.5C 132.167,28.5 127.833,28.5 123.5,28.5C 123.5,32.8333 123.5,37.1667 123.5,41.5C 119.233,41.797 115.066,41.4637 111,40.5C 110.501,36.5138 110.334,32.5138 110.5,28.5C 106.167,28.5 101.833,28.5 97.5,28.5C 97.5,32.1667 97.5,35.8333 97.5,39.5C 96.5184,36.0381 96.185,32.3714 96.5,28.5C 92.5,28.5 88.5,28.5 84.5,28.5C 84.5,32.8333 84.5,37.1667 84.5,41.5C 84.8367,42.8796 88.8367,43.2129 96.5,42.5C 96.5,46.5 96.5,50.5 96.5,54.5C 92.5,54.5 88.5,54.5 84.5,54.5C 79.8333,54.5 75.1667,54.5 70.5,54.5C 70.5,59.1667 70.5,63.8333 70.5,68.5C 66.5,68.5 62.5,68.5 58.5,68.5C 58.5,72.5 58.5,76.5 58.5,80.5C 53.8333,80.5 49.1667,80.5 44.5,80.5C 44.5,76.5 44.5,72.5 44.5,68.5C 49.0986,68.8 53.5986,68.4667 58,67.5C 58.499,63.1794 58.6657,58.8461 58.5,54.5C 53.8333,54.5 49.1667,54.5 44.5,54.5C 44.5,50.5 44.5,46.5 44.5,42.5C 40.4659,42.4955 36.4659,42.1621 32.5,41.5C 32.6282,37.1186 32.2949,32.7853 31.5,28.5C 27.1667,28.5 22.8333,28.5 18.5,28.5C 18.5,24.1667 18.5,19.8333 18.5,15.5C 22.5138,15.3345 26.5138,15.5012 30.5,16C 31.1667,20 31.8333,24 32.5,28C 36.4862,28.4988 40.4862,28.6655 44.5,28.5C 44.5,24.1667 44.5,19.8333 44.5,15.5C 49.1667,15.5 53.8333,15.5 58.5,15.5C 58.6657,11.1539 58.499,6.82056 58,2.5C 53.1365,2.17612 48.6365,1.17612 44.5,-0.5 Z"/></g>
<g><path style="opacity:1" fill="#f2f1f1" d="M 385.5,28.5 C 385.5,33.1667 385.5,37.8333 385.5,42.5C 381.5,42.5 377.5,42.5 373.5,42.5C 373.5,46.5 373.5,50.5 373.5,54.5C 377.5,54.5 381.5,54.5 385.5,54.5C 385.5,59.1667 385.5,63.8333 385.5,68.5C 389.846,68.6657 394.179,68.499 398.5,68C 399.467,63.5986 399.8,59.0986 399.5,54.5C 403.833,54.5 408.167,54.5 412.5,54.5C 411.771,59.1304 411.437,63.7971 411.5,68.5C 407.5,68.5 403.5,68.5 399.5,68.5C 399.5,72.5 399.5,76.5 399.5,80.5C 395.154,80.3343 390.821,80.501 386.5,81C 385.533,85.4014 385.2,89.9014 385.5,94.5C 390.167,94.5 394.833,94.5 399.5,94.5C 399.5,98.5 399.5,102.5 399.5,106.5C 403.452,107.272 407.452,107.605 411.5,107.5C 411.766,111.571 411.433,115.571 410.5,119.5C 415.456,120.494 420.456,120.827 425.5,120.5C 425.253,123.939 425.586,127.272 426.5,130.5C 382.83,105.668 339.497,80.3346 296.5,54.5C 299.833,54.5 303.167,54.5 306.5,54.5C 306.203,50.2325 306.536,46.0659 307.5,42C 311.805,42.077 316.138,42.2437 320.5,42.5C 320.5,46.5 320.5,50.5 320.5,54.5C 324.833,54.5 329.167,54.5 333.5,54.5C 333.5,59.1667 333.5,63.8333 333.5,68.5C 337.833,68.5 342.167,68.5 346.5,68.5C 346.5,63.8333 346.5,59.1667 346.5,54.5C 342.486,54.6655 338.486,54.4988 334.5,54C 338.034,50.1311 341.867,46.6311 346,43.5C 347.237,47.0601 347.737,50.7267 347.5,54.5C 351.5,54.5 355.5,54.5 359.5,54.5C 359.5,50.5 359.5,46.5 359.5,42.5C 355.5,42.5 351.5,42.5 347.5,42.5C 347.5,37.8333 347.5,33.1667 347.5,28.5C 351.5,28.5 355.5,28.5 359.5,28.5C 359.5,32.8333 359.5,37.1667 359.5,41.5C 364.167,41.5 368.833,41.5 373.5,41.5C 373.5,37.1667 373.5,32.8333 373.5,28.5C 377.5,28.5 381.5,28.5 385.5,28.5 Z"/></g>
<g><path style="opacity:1" fill="#fdfdfd" d="M 110.5,80.5 C 110.5,85.1667 110.5,89.8333 110.5,94.5C 106.167,94.5 101.833,94.5 97.5,94.5C 97.5,89.8333 97.5,85.1667 97.5,80.5C 101.833,80.5 106.167,80.5 110.5,80.5 Z"/></g>
<g><path style="opacity:1" fill="#c2bbba" d="M 162.5,42.5 C 157.527,46.8062 152.86,51.4729 148.5,56.5C 143.866,61.3051 139.366,66.3051 135,71.5C 134.761,72.788 135.261,73.788 136.5,74.5C 131.267,75.1578 130.601,76.9911 134.5,80C 165.735,97.1086 196.402,114.942 226.5,133.5C 225.508,133.328 224.842,133.662 224.5,134.5C 216.933,130.935 209.6,126.935 202.5,122.5C 177.843,107.211 152.843,92.3781 127.5,78C 125.959,76.6288 124.625,75.1288 123.5,73.5C 123.435,73.0618 123.601,72.7284 124,72.5C 125.71,73.9448 127.544,74.7782 129.5,75C 138.366,64.2888 147.699,53.9555 157.5,44C 159.025,42.9914 160.692,42.4914 162.5,42.5 Z"/></g>
<g><path style="opacity:1" fill="#c34242" d="M 148.5,56.5 C 150.308,56.4914 151.975,56.9914 153.5,58C 215.853,94.6448 278.52,130.978 341.5,167C 347.578,170.361 353.245,174.195 358.5,178.5C 355.547,182.625 352.381,186.625 349,190.5C 347.549,192.464 345.716,193.797 343.5,194.5C 274.664,154.247 205.664,114.247 136.5,74.5C 135.261,73.788 134.761,72.788 135,71.5C 139.366,66.3051 143.866,61.3051 148.5,56.5 Z"/></g>
<g><path style="opacity:1" fill="#f6f6f6" d="M 399.5,-0.5 C 425.5,-0.5 451.5,-0.5 477.5,-0.5C 477.5,48.5 477.5,97.5 477.5,146.5C 473.167,146.5 468.833,146.5 464.5,146.5C 464.5,142.167 464.5,137.833 464.5,133.5C 460.5,133.5 456.5,133.5 452.5,133.5C 452.013,129.272 451.347,125.105 450.5,121C 444.812,120.534 439.479,120.867 434.5,122C 432.833,122.833 431.167,123.667 429.5,124.5C 429.036,126.975 428.036,128.975 426.5,130.5C 425.586,127.272 425.253,123.939 425.5,120.5C 420.456,120.827 415.456,120.494 410.5,119.5C 411.433,115.571 411.766,111.571 411.5,107.5C 407.452,107.605 403.452,107.272 399.5,106.5C 399.5,102.5 399.5,98.5 399.5,94.5C 394.833,94.5 390.167,94.5 385.5,94.5C 385.2,89.9014 385.533,85.4014 386.5,81C 390.821,80.501 395.154,80.3343 399.5,80.5C 399.5,76.5 399.5,72.5 399.5,68.5C 403.5,68.5 407.5,68.5 411.5,68.5C 411.437,63.7971 411.771,59.1304 412.5,54.5C 408.167,54.5 403.833,54.5 399.5,54.5C 399.8,59.0986 399.467,63.5986 398.5,68C 394.179,68.499 389.846,68.6657 385.5,68.5C 385.5,63.8333 385.5,59.1667 385.5,54.5C 381.5,54.5 377.5,54.5 373.5,54.5C 373.5,50.5 373.5,46.5 373.5,42.5C 377.5,42.5 381.5,42.5 385.5,42.5C 385.5,37.8333 385.5,33.1667 385.5,28.5C 390.167,28.5 394.833,28.5 399.5,28.5C 399.5,24.1667 399.5,19.8333 399.5,15.5C 403.5,15.5 407.5,15.5 411.5,15.5C 411.5,11.1667 411.5,6.83333 411.5,2.5C 408.65,2.36386 405.817,2.03052 403,1.5C 401.319,1.39174 400.152,0.725071 399.5,-0.5 Z"/></g>
<g><path style="opacity:1" fill="#f2f2f2" d="M 97.5,39.5 C 97.5774,40.7498 98.244,41.5831 99.5,42C 103.152,42.4986 106.818,42.6653 110.5,42.5C 110.5,46.5 110.5,50.5 110.5,54.5C 114.833,54.5 119.167,54.5 123.5,54.5C 123.5,50.5 123.5,46.5 123.5,42.5C 127.878,42.6295 132.045,42.6295 136,42.5C 135.947,45.6752 136.78,48.3419 138.5,50.5C 132.824,56.177 127.491,62.177 122.5,68.5C 118.5,68.5 114.5,68.5 110.5,68.5C 110.5,72.5 110.5,76.5 110.5,80.5C 106.167,80.5 101.833,80.5 97.5,80.5C 97.5,85.1667 97.5,89.8333 97.5,94.5C 101.833,94.5 106.167,94.5 110.5,94.5C 110.334,98.5138 110.501,102.514 111,106.5C 115,107.167 119,107.833 123,108.5C 123.499,112.486 123.666,116.486 123.5,120.5C 119.167,120.5 114.833,120.5 110.5,120.5C 110.5,116.167 110.5,111.833 110.5,107.5C 106.215,106.705 101.881,106.372 97.5,106.5C 97.1667,101.167 96.8333,101.167 96.5,106.5C 87.8483,107.146 79.1816,107.479 70.5,107.5C 70.5,111.833 70.5,116.167 70.5,120.5C 66.5,120.5 62.5,120.5 58.5,120.5C 58.5,124.833 58.5,129.167 58.5,133.5C 53.8333,133.5 49.1667,133.5 44.5,133.5C 44.5,129.167 44.5,124.833 44.5,120.5C 40.5,120.5 36.5,120.5 32.5,120.5C 32.4135,124.857 32.0802,129.19 31.5,133.5C 27.1667,133.5 22.8333,133.5 18.5,133.5C 18.5,137.833 18.5,142.167 18.5,146.5C 14.4862,146.666 10.4862,146.499 6.5,146C 5.53632,141.934 5.20299,137.767 5.5,133.5C 3.5,133.5 1.5,133.5 -0.5,133.5C -0.5,120.5 -0.5,107.5 -0.5,94.5C 1.5,94.5 3.5,94.5 5.5,94.5C 5.5,89.8333 5.5,85.1667 5.5,80.5C 9.83333,80.5 14.1667,80.5 18.5,80.5C 18.5,76.5 18.5,72.5 18.5,68.5C 22.5138,68.3345 26.5138,68.5012 30.5,69C 31.4601,72.73 31.7935,76.5633 31.5,80.5C 27.1186,80.3718 22.7853,80.7051 18.5,81.5C 18.5,85.8333 18.5,90.1667 18.5,94.5C 22.8333,94.5 27.1667,94.5 31.5,94.5C 31.2408,98.2396 31.5741,101.906 32.5,105.5C 36.4454,106.491 40.4454,106.824 44.5,106.5C 44.5,102.5 44.5,98.5 44.5,94.5C 49.1667,94.5 53.8333,94.5 58.5,94.5C 58.5,98.5 58.5,102.5 58.5,106.5C 62.5,106.5 66.5,106.5 70.5,106.5C 70.5,102.5 70.5,98.5 70.5,94.5C 75.1667,94.5 79.8333,94.5 84.5,94.5C 84.5,89.8333 84.5,85.1667 84.5,80.5C 88.5,80.5 92.5,80.5 96.5,80.5C 96.5,76.5 96.5,72.5 96.5,68.5C 92.5,68.5 88.5,68.5 84.5,68.5C 84.5,63.8333 84.5,59.1667 84.5,54.5C 88.5,54.5 92.5,54.5 96.5,54.5C 96.5,50.5 96.5,46.5 96.5,42.5C 88.8367,43.2129 84.8367,42.8796 84.5,41.5C 84.5,37.1667 84.5,32.8333 84.5,28.5C 88.5,28.5 92.5,28.5 96.5,28.5C 96.185,32.3714 96.5184,36.0381 97.5,39.5 Z"/></g>
<g><path style="opacity:1" fill="#dc4949" d="M 202.5,20.5 C 204.857,20.3367 207.19,20.5034 209.5,21C 278.34,60.9183 347.007,101.085 415.5,141.5C 404.044,144.896 393.377,149.896 383.5,156.5C 381.692,156.509 380.025,156.009 378.5,155C 311.273,115.836 243.939,76.5028 176.5,37C 174.627,36.0471 174.294,34.8804 175.5,33.5C 183.526,27.3218 192.526,22.9885 202.5,20.5 Z"/></g>
<g><path style="opacity:1" fill="#f05a5a" d="M 231.5,17.5 C 233.929,18.5512 236.262,19.8845 238.5,21.5C 258.013,32.2083 277.346,43.2083 296.5,54.5C 339.497,80.3346 382.83,105.668 426.5,130.5C 426.842,131.338 427.508,131.672 428.5,131.5C 430.606,133.122 432.939,134.455 435.5,135.5C 437.332,136.248 438.999,137.248 440.5,138.5C 432.772,139.022 425.105,140.022 417.5,141.5C 416.833,141.5 416.167,141.5 415.5,141.5C 347.007,101.085 278.34,60.9183 209.5,21C 207.19,20.5034 204.857,20.3367 202.5,20.5C 204.877,19.1127 207.543,18.2794 210.5,18C 217.492,17.5004 224.492,17.3337 231.5,17.5 Z"/></g>
<g><path style="opacity:1" fill="#efeeee" d="M 477.5,146.5 C 477.5,150.833 477.5,155.167 477.5,159.5C 473.167,159.5 468.833,159.5 464.5,159.5C 464.649,160.552 464.483,161.552 464,162.5C 460.642,165.358 457.142,168.025 453.5,170.5C 452.914,170.291 452.414,169.957 452,169.5C 451.502,166.183 451.335,162.85 451.5,159.5C 448.833,159.5 446.167,159.5 443.5,159.5C 443.5,158.5 443.5,157.5 443.5,156.5C 445.415,156.784 447.081,156.451 448.5,155.5C 449.149,152.055 450.482,148.889 452.5,146C 452.272,145.601 451.938,145.435 451.5,145.5C 449.178,143.336 446.511,141.669 443.5,140.5C 442.71,139.599 441.71,138.932 440.5,138.5C 438.999,137.248 437.332,136.248 435.5,135.5C 436.365,130.954 434.699,127.954 430.5,126.5C 429.83,128.291 429.163,129.958 428.5,131.5C 427.508,131.672 426.842,131.338 426.5,130.5C 428.036,128.975 429.036,126.975 429.5,124.5C 431.167,123.667 432.833,122.833 434.5,122C 439.479,120.867 444.812,120.534 450.5,121C 451.347,125.105 452.013,129.272 452.5,133.5C 456.5,133.5 460.5,133.5 464.5,133.5C 464.5,137.833 464.5,142.167 464.5,146.5C 468.833,146.5 473.167,146.5 477.5,146.5 Z"/></g>
<g><path style="opacity:1" fill="#b6acab" d="M 435.5,135.5 C 432.939,134.455 430.606,133.122 428.5,131.5C 429.163,129.958 429.83,128.291 430.5,126.5C 434.699,127.954 436.365,130.954 435.5,135.5 Z"/></g>
<g><path style="opacity:1" fill="#f5f5f4" d="M 122.5,68.5 C 120.977,70.5857 121.31,72.2524 123.5,73.5C 124.625,75.1288 125.959,76.6288 127.5,78C 152.843,92.3781 177.843,107.211 202.5,122.5C 202.211,126.106 202.544,129.606 203.5,133C 207.486,133.499 211.486,133.666 215.5,133.5C 215.5,137.833 215.5,142.167 215.5,146.5C 211.154,146.334 206.821,146.501 202.5,147C 201.949,151.072 201.949,155.239 202.5,159.5C 206.833,159.5 211.167,159.5 215.5,159.5C 215.5,164.167 215.5,168.833 215.5,173.5C 211.167,173.5 206.833,173.5 202.5,173.5C 202.5,177.5 202.5,181.5 202.5,185.5C 206.833,185.5 211.167,185.5 215.5,185.5C 215.5,190.167 215.5,194.833 215.5,199.5C 212.813,199.336 210.146,199.503 207.5,200C 202.89,206.968 196.557,211.468 188.5,213.5C 162.725,199.11 137.059,184.443 111.5,169.5C 88.9398,182.274 66.6065,195.274 44.5,208.5C 42.4689,209.539 41.1355,211.205 40.5,213.5C 38.9261,215.102 38.2594,217.102 38.5,219.5C 37.0762,221.515 36.4095,223.848 36.5,226.5C 36.7678,228.099 36.4345,229.432 35.5,230.5C 35.5,228.833 35.5,227.167 35.5,225.5C 34.1667,225.5 32.8333,225.5 31.5,225.5C 31.5,221.167 31.5,216.833 31.5,212.5C 27.1186,212.628 22.7853,212.295 18.5,211.5C 18.5,207.5 18.5,203.5 18.5,199.5C 22.8333,199.5 27.1667,199.5 31.5,199.5C 31.5,194.833 31.5,190.167 31.5,185.5C 27.1667,185.5 22.8333,185.5 18.5,185.5C 18.5,181.5 18.5,177.5 18.5,173.5C 22.8333,173.5 27.1667,173.5 31.5,173.5C 31.3531,168.786 31.6864,164.119 32.5,159.5C 36.5,159.5 40.5,159.5 44.5,159.5C 44.5,164.167 44.5,168.833 44.5,173.5C 48.8461,173.666 53.1794,173.499 57.5,173C 58.4667,168.599 58.8,164.099 58.5,159.5C 62.5,159.5 66.5,159.5 70.5,159.5C 70.5,164.167 70.5,168.833 70.5,173.5C 75.1667,173.5 79.8333,173.5 84.5,173.5C 84.5,168.833 84.5,164.167 84.5,159.5C 88.5,159.5 92.5,159.5 96.5,159.5C 96.5,155.5 96.5,151.5 96.5,147.5C 89.8333,147.167 89.8333,146.833 96.5,146.5C 96.8333,139.833 97.1667,139.833 97.5,146.5C 101.833,146.5 106.167,146.5 110.5,146.5C 110.5,142.167 110.5,137.833 110.5,133.5C 114.833,133.5 119.167,133.5 123.5,133.5C 123.5,129.167 123.5,124.833 123.5,120.5C 123.666,116.486 123.499,112.486 123,108.5C 119,107.833 115,107.167 111,106.5C 110.501,102.514 110.334,98.5138 110.5,94.5C 110.5,89.8333 110.5,85.1667 110.5,80.5C 110.5,76.5 110.5,72.5 110.5,68.5C 114.5,68.5 118.5,68.5 122.5,68.5 Z"/></g>
<g><path style="opacity:1" fill="#e0b6b4" d="M 440.5,138.5 C 441.71,138.932 442.71,139.599 443.5,140.5C 434.809,140.368 426.142,140.701 417.5,141.5C 425.105,140.022 432.772,139.022 440.5,138.5 Z"/></g>
<g><path style="opacity:1" fill="#e6e0de" d="M 136.5,74.5 C 205.664,114.247 274.664,154.247 343.5,194.5C 344.129,197.217 342.796,198.55 339.5,198.5C 301.627,177.068 263.961,155.401 226.5,133.5C 196.402,114.942 165.735,97.1086 134.5,80C 130.601,76.9911 131.267,75.1578 136.5,74.5 Z"/></g>
<g><path style="opacity:1" fill="#d4cecc" d="M 443.5,140.5 C 446.511,141.669 449.178,143.336 451.5,145.5C 444.862,144.502 438.195,144.335 431.5,145C 421.051,147.15 411.051,150.483 401.5,155C 381.421,167.745 364.588,183.912 351,203.5C 350.329,204.252 349.496,204.586 348.5,204.5C 344.975,203.241 341.975,201.241 339.5,198.5C 342.796,198.55 344.129,197.217 343.5,194.5C 345.716,193.797 347.549,192.464 349,190.5C 352.381,186.625 355.547,182.625 358.5,178.5C 366.859,171.138 375.192,163.804 383.5,156.5C 393.377,149.896 404.044,144.896 415.5,141.5C 416.167,141.5 416.833,141.5 417.5,141.5C 426.142,140.701 434.809,140.368 443.5,140.5 Z"/></g>
<g><path style="opacity:1" fill="#c3c3c2" d="M 451.5,145.5 C 451.938,145.435 452.272,145.601 452.5,146C 450.482,148.889 449.149,152.055 448.5,155.5C 444.167,155.5 439.833,155.5 435.5,155.5C 433.735,154.539 431.735,154.205 429.5,154.5C 429.5,213.833 429.5,273.167 429.5,332.5C 428.505,319.677 428.171,306.677 428.5,293.5C 428.5,264.833 428.5,236.167 428.5,207.5C 428.5,190.5 428.5,173.5 428.5,156.5C 409.976,158.929 394.309,166.929 381.5,180.5C 377.229,183.101 373.563,186.434 370.5,190.5C 368.177,193.126 365.843,195.793 363.5,198.5C 361.901,200.604 360.068,202.604 358,204.5C 357.178,228.572 357.344,252.572 358.5,276.5C 357.508,276.672 356.842,276.338 356.5,275.5C 356.5,267.833 356.5,260.167 356.5,252.5C 356.667,237.496 356.5,222.496 356,207.5C 354.604,211.113 352.77,211.446 350.5,208.5C 350.938,208.565 351.272,208.399 351.5,208C 350.29,206.961 349.29,205.794 348.5,204.5C 349.496,204.586 350.329,204.252 351,203.5C 364.588,183.912 381.421,167.745 401.5,155C 411.051,150.483 421.051,147.15 431.5,145C 438.195,144.335 444.862,144.502 451.5,145.5 Z"/></g>
<g><path style="opacity:1" fill="#fdfdfd" d="M 123.5,159.5 C 127.833,159.5 132.167,159.5 136.5,159.5C 136.5,164.167 136.5,168.833 136.5,173.5C 132.167,173.5 127.833,173.5 123.5,173.5C 123.5,168.833 123.5,164.167 123.5,159.5 Z"/></g>
<g><path style="opacity:1" fill="#eff0ef" d="M 202.5,122.5 C 209.6,126.935 216.933,130.935 224.5,134.5C 224.5,160.167 224.5,185.833 224.5,211.5C 218.003,214.914 211.67,218.581 205.5,222.5C 199.134,220.797 193.468,217.797 188.5,213.5C 196.557,211.468 202.89,206.968 207.5,200C 210.146,199.503 212.813,199.336 215.5,199.5C 215.5,194.833 215.5,190.167 215.5,185.5C 211.167,185.5 206.833,185.5 202.5,185.5C 202.5,181.5 202.5,177.5 202.5,173.5C 206.833,173.5 211.167,173.5 215.5,173.5C 215.5,168.833 215.5,164.167 215.5,159.5C 211.167,159.5 206.833,159.5 202.5,159.5C 201.949,155.239 201.949,151.072 202.5,147C 206.821,146.501 211.154,146.334 215.5,146.5C 215.5,142.167 215.5,137.833 215.5,133.5C 211.486,133.666 207.486,133.499 203.5,133C 202.544,129.606 202.211,126.106 202.5,122.5 Z"/></g>
<g><path style="opacity:1" fill="#b6b5b4" d="M 226.5,133.5 C 263.961,155.401 301.627,177.068 339.5,198.5C 341.975,201.241 344.975,203.241 348.5,204.5C 349.29,205.794 350.29,206.961 351.5,208C 351.272,208.399 350.938,208.565 350.5,208.5C 333.167,198.5 315.833,188.5 298.5,178.5C 296.529,177.177 294.529,175.844 292.5,174.5C 291.5,195.489 291.167,216.489 291.5,237.5C 288.669,236.921 286.336,235.588 284.5,233.5C 284.5,225.833 284.5,218.167 284.5,210.5C 284.667,196.829 284.5,183.163 284,169.5C 268.67,160.978 253.504,152.311 238.5,143.5C 236.813,141.834 234.813,140.5 232.5,139.5C 231.5,162.157 231.167,184.824 231.5,207.5C 229.33,209.086 226.996,210.42 224.5,211.5C 224.5,185.833 224.5,160.167 224.5,134.5C 224.842,133.662 225.508,133.328 226.5,133.5 Z"/></g>
<g><path style="opacity:1" fill="#f2f2f3" d="M 428.5,207.5 C 412.67,198.753 397.004,189.753 381.5,180.5C 394.309,166.929 409.976,158.929 428.5,156.5C 428.5,173.5 428.5,190.5 428.5,207.5 Z"/></g>
<g><path style="opacity:1" fill="#b1afae" d="M 435.5,155.5 C 435.832,215.669 435.499,275.669 434.5,335.5C 432.632,334.737 430.965,333.737 429.5,332.5C 429.5,273.167 429.5,213.833 429.5,154.5C 431.735,154.205 433.735,154.539 435.5,155.5 Z"/></g>
<g><path style="opacity:1" fill="#d4d2d0" d="M 238.5,143.5 C 238.5,157.167 238.5,170.833 238.5,184.5C 238.5,192.167 238.5,199.833 238.5,207.5C 236.167,206.167 233.833,206.167 231.5,207.5C 231.167,184.824 231.5,162.157 232.5,139.5C 234.813,140.5 236.813,141.834 238.5,143.5 Z"/></g>
<g><path style="opacity:1" fill="#d5d3d2" d="M 435.5,155.5 C 439.833,155.5 444.167,155.5 448.5,155.5C 447.081,156.451 445.415,156.784 443.5,156.5C 443.5,157.5 443.5,158.5 443.5,159.5C 442.667,216.999 442.167,274.665 442,332.5C 439.966,334.032 437.799,335.365 435.5,336.5C 434.893,336.376 434.56,336.043 434.5,335.5C 435.499,275.669 435.832,215.669 435.5,155.5 Z"/></g>
<g><path style="opacity:1" fill="#b4e3f1" d="M 238.5,143.5 C 253.504,152.311 268.67,160.978 284,169.5C 284.5,183.163 284.667,196.829 284.5,210.5C 269.194,201.845 253.861,193.179 238.5,184.5C 238.5,170.833 238.5,157.167 238.5,143.5 Z"/></g>
<g><path style="opacity:1" fill="#b4e3f2" d="M 298.5,178.5 C 315.833,188.5 333.167,198.5 350.5,208.5C 352.77,211.446 354.604,211.113 356,207.5C 356.5,222.496 356.667,237.496 356.5,252.5C 337.147,241.467 317.813,230.467 298.5,219.5C 298.5,205.833 298.5,192.167 298.5,178.5 Z"/></g>
<g><path style="opacity:1" fill="#b4e4f2" d="M 381.5,180.5 C 397.004,189.753 412.67,198.753 428.5,207.5C 428.5,236.167 428.5,264.833 428.5,293.5C 408.901,283.032 389.568,272.032 370.5,260.5C 370.5,237.167 370.5,213.833 370.5,190.5C 373.563,186.434 377.229,183.101 381.5,180.5 Z"/></g>
<g><path style="opacity:1" fill="#e8edeb" d="M 238.5,184.5 C 253.861,193.179 269.194,201.845 284.5,210.5C 284.5,218.167 284.5,225.833 284.5,233.5C 268.87,225.352 253.536,216.685 238.5,207.5C 238.5,199.833 238.5,192.167 238.5,184.5 Z"/></g>
<g><path style="opacity:1" fill="#f7f7f7" d="M 123.5,120.5 C 123.5,124.833 123.5,129.167 123.5,133.5C 119.167,133.5 114.833,133.5 110.5,133.5C 110.5,137.833 110.5,142.167 110.5,146.5C 106.167,146.5 101.833,146.5 97.5,146.5C 97.1667,139.833 96.8333,139.833 96.5,146.5C 89.8333,146.833 89.8333,147.167 96.5,147.5C 96.5,151.5 96.5,155.5 96.5,159.5C 92.5,159.5 88.5,159.5 84.5,159.5C 84.5,164.167 84.5,168.833 84.5,173.5C 79.8333,173.5 75.1667,173.5 70.5,173.5C 70.5,168.833 70.5,164.167 70.5,159.5C 66.5,159.5 62.5,159.5 58.5,159.5C 58.8,164.099 58.4667,168.599 57.5,173C 53.1794,173.499 48.8461,173.666 44.5,173.5C 44.5,168.833 44.5,164.167 44.5,159.5C 40.5,159.5 36.5,159.5 32.5,159.5C 31.6864,164.119 31.3531,168.786 31.5,173.5C 27.1667,173.5 22.8333,173.5 18.5,173.5C 18.5,177.5 18.5,181.5 18.5,185.5C 22.8333,185.5 27.1667,185.5 31.5,185.5C 31.5,190.167 31.5,194.833 31.5,199.5C 27.1667,199.5 22.8333,199.5 18.5,199.5C 18.5,203.5 18.5,207.5 18.5,211.5C 22.7853,212.295 27.1186,212.628 31.5,212.5C 31.5,216.833 31.5,221.167 31.5,225.5C 32.8333,225.5 34.1667,225.5 35.5,225.5C 35.5,227.167 35.5,228.833 35.5,230.5C 35.5,233.167 35.5,235.833 35.5,238.5C 34.5,238.5 33.5,238.5 32.5,238.5C 33.0008,247.17 33.1675,255.837 33,264.5C 31.9847,260.56 31.4847,256.56 31.5,252.5C 27.1667,252.5 22.8333,252.5 18.5,252.5C 18.5,256.5 18.5,260.5 18.5,264.5C 14.1667,264.5 9.83333,264.5 5.5,264.5C 5.33449,260.486 5.50115,256.486 6,252.5C 10.0659,251.536 14.2325,251.203 18.5,251.5C 18.5,247.167 18.5,242.833 18.5,238.5C 14.1667,238.5 9.83333,238.5 5.5,238.5C 5.5,242.833 5.5,247.167 5.5,251.5C 3.5,251.5 1.5,251.5 -0.5,251.5C -0.5,212.167 -0.5,172.833 -0.5,133.5C 1.5,133.5 3.5,133.5 5.5,133.5C 5.20299,137.767 5.53632,141.934 6.5,146C 10.4862,146.499 14.4862,146.666 18.5,146.5C 18.5,142.167 18.5,137.833 18.5,133.5C 22.8333,133.5 27.1667,133.5 31.5,133.5C 32.0802,129.19 32.4135,124.857 32.5,120.5C 36.5,120.5 40.5,120.5 44.5,120.5C 44.5,124.833 44.5,129.167 44.5,133.5C 49.1667,133.5 53.8333,133.5 58.5,133.5C 58.5,129.167 58.5,124.833 58.5,120.5C 62.5,120.5 66.5,120.5 70.5,120.5C 70.5,116.167 70.5,111.833 70.5,107.5C 79.1816,107.479 87.8483,107.146 96.5,106.5C 96.8333,101.167 97.1667,101.167 97.5,106.5C 101.881,106.372 106.215,106.705 110.5,107.5C 110.5,111.833 110.5,116.167 110.5,120.5C 114.833,120.5 119.167,120.5 123.5,120.5 Z"/></g>
<g><path style="opacity:1" fill="#3db341" d="M 42.5,214.5 C 41.8505,216.435 41.5172,218.435 41.5,220.5C 39.4329,228.719 39.0996,237.052 40.5,245.5C 60.693,257.429 81.0263,269.096 101.5,280.5C 104.976,283.623 108.976,285.957 113.5,287.5C 128.497,297.001 143.83,306.001 159.5,314.5C 161.336,316.588 163.669,317.921 166.5,318.5C 190.737,333.535 215.404,348.035 240.5,362C 245.328,371.161 249.495,380.661 253,390.5C 260.712,396.385 268.545,402.052 276.5,407.5C 276.5,415.5 276.5,423.5 276.5,431.5C 274.345,431.628 272.345,431.128 270.5,430C 263.472,425.822 256.472,421.655 249.5,417.5C 248.833,417.5 248.5,417.167 248.5,416.5C 246.698,402.06 239.698,390.893 227.5,383C 217.159,379.175 210.159,382.341 206.5,392.5C 182.5,378.833 158.5,365.167 134.5,351.5C 133.833,351.5 133.5,351.167 133.5,350.5C 132.089,336.175 125.422,325.009 113.5,317C 104.346,313.238 97.1792,315.405 92,323.5C 89.4662,308.976 81.6329,298.476 68.5,292C 65.1667,291.333 61.8333,291.333 58.5,292C 54.5915,294.406 51.5915,297.572 49.5,301.5C 47.2163,301.025 45.2163,300.025 43.5,298.5C 40.5512,297.386 38.3845,295.386 37,292.5C 35.6392,286.593 35.1392,280.593 35.5,274.5C 37.3792,275.341 39.3792,275.675 41.5,275.5C 41.6659,270.489 41.4993,265.489 41,260.5C 39.6288,258.959 38.1288,257.625 36.5,256.5C 36.5,255.833 36.1667,255.5 35.5,255.5C 35.5,249.833 35.5,244.167 35.5,238.5C 35.5,235.833 35.5,233.167 35.5,230.5C 36.4345,229.432 36.7678,228.099 36.5,226.5C 37.9238,224.485 38.5905,222.152 38.5,219.5C 38.2594,217.102 38.9261,215.102 40.5,213.5C 41.9245,211.969 42.5912,212.302 42.5,214.5 Z"/></g>
<g><path style="opacity:1" fill="#d4d3d0" d="M 298.5,178.5 C 298.5,192.167 298.5,205.833 298.5,219.5C 298.201,227.253 298.534,234.92 299.5,242.5C 296.489,241.331 293.822,239.664 291.5,237.5C 291.167,216.489 291.5,195.489 292.5,174.5C 294.529,175.844 296.529,177.177 298.5,178.5 Z"/></g>
<g><path style="opacity:1" fill="#345d33" d="M 42.5,214.5 C 42.8333,214.5 43.1667,214.5 43.5,214.5C 43.7406,216.898 43.0739,218.898 41.5,220.5C 41.5172,218.435 41.8505,216.435 42.5,214.5 Z"/></g>
<g><path style="opacity:1" fill="#8ccf8e" d="M 38.5,219.5 C 38.5905,222.152 37.9238,224.485 36.5,226.5C 36.4095,223.848 37.0762,221.515 38.5,219.5 Z"/></g>
<g><path style="opacity:1" fill="#42413f" d="M 113.5,287.5 C 108.976,285.957 104.976,283.623 101.5,280.5C 100.402,279.603 100.402,278.77 101.5,278C 91.6667,272.167 81.8333,266.333 72,260.5C 71.5002,250.506 71.3335,240.506 71.5,230.5C 88.3076,239.158 104.808,248.491 121,258.5C 121.832,268.849 121.666,279.183 120.5,289.5C 118.33,287.914 115.996,286.58 113.5,285.5C 112.537,285.97 112.537,286.637 113.5,287.5 Z"/></g>
<g><path style="opacity:1" fill="#e8edec" d="M 298.5,219.5 C 317.813,230.467 337.147,241.467 356.5,252.5C 356.5,260.167 356.5,267.833 356.5,275.5C 337.328,264.749 318.328,253.749 299.5,242.5C 298.534,234.92 298.201,227.253 298.5,219.5 Z"/></g>
<g><path style="opacity:1" fill="#d4d3d1" d="M 370.5,190.5 C 370.5,213.833 370.5,237.167 370.5,260.5C 370.5,268.167 370.5,275.833 370.5,283.5C 367.669,282.921 365.336,281.588 363.5,279.5C 363.5,252.5 363.5,225.5 363.5,198.5C 365.843,195.793 368.177,193.126 370.5,190.5 Z"/></g>
<g><path style="opacity:1" fill="#80d471" d="M 188.5,213.5 C 193.468,217.797 199.134,220.797 205.5,222.5C 205.369,223.376 205.702,224.043 206.5,224.5C 247.06,247.608 287.393,270.941 327.5,294.5C 305.297,307.434 282.964,320.1 260.5,332.5C 188.741,290.739 116.741,249.406 44.5,208.5C 66.6065,195.274 88.9398,182.274 111.5,169.5C 137.059,184.443 162.725,199.11 188.5,213.5 Z"/></g>
<g><path style="opacity:1" fill="#3eb442" d="M 190.5,219.5 C 192.988,223.806 195.488,228.139 198,232.5C 198.667,233.5 198.667,234.5 198,235.5C 183.137,244.512 167.971,252.845 152.5,260.5C 149.564,255.627 146.897,250.627 144.5,245.5C 158.139,237.345 171.806,229.178 185.5,221C 187.025,219.991 188.692,219.491 190.5,219.5 Z"/></g>
<g><path style="opacity:1" fill="#309c2f" d="M 77.5,207.5 C 99.6983,220.432 122.032,233.098 144.5,245.5C 146.897,250.627 149.564,255.627 152.5,260.5C 125.059,245.277 97.7256,229.777 70.5,214C 69.1667,213 69.1667,212 70.5,211C 72.8599,209.82 75.1932,208.653 77.5,207.5 Z"/></g>
<g><path style="opacity:1" fill="#6cc95f" d="M 190.5,219.5 C 188.692,219.491 187.025,219.991 185.5,221C 171.806,229.178 158.139,237.345 144.5,245.5C 122.032,233.098 99.6983,220.432 77.5,207.5C 92.2057,197.267 107.706,188.6 124,181.5C 146.595,193.636 168.762,206.303 190.5,219.5 Z"/></g>
<g><path style="opacity:1" fill="#b1afae" d="M 363.5,198.5 C 363.5,225.5 363.5,252.5 363.5,279.5C 361.326,279.25 359.659,278.25 358.5,276.5C 357.344,252.572 357.178,228.572 358,204.5C 360.068,202.604 361.901,200.604 363.5,198.5 Z"/></g>
<g><path style="opacity:1" fill="#fdd551" d="M 238.5,207.5 C 253.536,216.685 268.87,225.352 284.5,233.5C 286.336,235.588 288.669,236.921 291.5,237.5C 293.822,239.664 296.489,241.331 299.5,242.5C 318.328,253.749 337.328,264.749 356.5,275.5C 356.842,276.338 357.508,276.672 358.5,276.5C 359.659,278.25 361.326,279.25 363.5,279.5C 365.336,281.588 367.669,282.921 370.5,283.5C 376.464,287.152 382.464,290.819 388.5,294.5C 388.5,295.5 388.5,296.5 388.5,297.5C 383.805,298.215 379.805,300.215 376.5,303.5C 369.5,306.752 362.666,310.418 356,314.5C 353.008,313.755 350.174,312.588 347.5,311C 340.73,307.296 334.397,303.13 328.5,298.5C 328.167,297.167 327.833,295.833 327.5,294.5C 287.393,270.941 247.06,247.608 206.5,224.5C 205.702,224.043 205.369,223.376 205.5,222.5C 211.67,218.581 218.003,214.914 224.5,211.5C 226.996,210.42 229.33,209.086 231.5,207.5C 233.833,206.167 236.167,206.167 238.5,207.5 Z"/></g>
<g><path style="opacity:1" fill="#42b544" d="M 260.5,274.5 C 253.588,268.942 245.922,264.609 237.5,261.5C 228.521,265.989 219.521,270.489 210.5,275C 208.097,276.853 205.764,278.686 203.5,280.5C 200.611,280.001 199.944,278.501 201.5,276C 212.428,270.065 223.094,263.732 233.5,257C 238.28,255.97 242.613,256.97 246.5,260C 251.334,263.252 256.334,266.252 261.5,269C 264.342,271.405 264.009,273.238 260.5,274.5 Z"/></g>
<g><path style="opacity:1" fill="#e46257" d="M 36.5,256.5 C 38.1288,257.625 39.6288,258.959 41,260.5C 41.4993,265.489 41.6659,270.489 41.5,275.5C 39.3792,275.675 37.3792,275.341 35.5,274.5C 35.1771,268.31 35.5104,262.31 36.5,256.5 Z"/></g>
<g><path style="opacity:1" fill="#42413f" d="M 166.5,318.5 C 163.669,317.921 161.336,316.588 159.5,314.5C 158.402,313.603 158.402,312.77 159.5,312C 147.917,305.293 136.417,298.459 125,291.5C 124.168,281.151 124.334,270.817 125.5,260.5C 141.5,269.833 157.5,279.167 173.5,288.5C 174.666,299.151 174.832,309.818 174,320.5C 171.625,318.341 169.125,317.675 166.5,318.5 Z"/></g>
<g><path style="opacity:1" fill="#2d9a2d" d="M 260.5,274.5 C 249.426,281.037 238.092,287.037 226.5,292.5C 218.068,289.786 210.402,285.786 203.5,280.5C 205.764,278.686 208.097,276.853 210.5,275C 219.521,270.489 228.521,265.989 237.5,261.5C 245.922,264.609 253.588,268.942 260.5,274.5 Z"/></g>
<g><path style="opacity:1" fill="#d8a493" d="M 35.5,255.5 C 36.1667,255.5 36.5,255.833 36.5,256.5C 35.5104,262.31 35.1771,268.31 35.5,274.5C 34.1667,268.167 34.1667,261.833 35.5,255.5 Z"/></g>
<g><path style="opacity:1" fill="#3faa42" d="M 44.5,208.5 C 116.741,249.406 188.741,290.739 260.5,332.5C 260.5,333.5 260.5,334.5 260.5,335.5C 188.494,294.008 116.494,252.841 44.5,212C 43.7476,212.671 43.4142,213.504 43.5,214.5C 43.1667,214.5 42.8333,214.5 42.5,214.5C 42.5912,212.302 41.9245,211.969 40.5,213.5C 41.1355,211.205 42.4689,209.539 44.5,208.5 Z"/></g>
<g><path style="opacity:1" fill="#31332e" d="M 260.5,335.5 C 260.897,336.525 261.563,336.692 262.5,336C 284.067,322.717 306.067,310.217 328.5,298.5C 330.561,303.686 332.228,309.019 333.5,314.5C 335.141,319.439 336.474,324.439 337.5,329.5C 337.328,330.492 337.662,331.158 338.5,331.5C 338.5,332.167 338.5,332.833 338.5,333.5C 338.5,334.167 338.5,334.833 338.5,335.5C 338.5,336.167 338.5,336.833 338.5,337.5C 338.663,339.857 338.497,342.19 338,344.5C 336.908,337.943 335.408,331.609 333.5,325.5C 332.878,321.054 331.878,316.721 330.5,312.5C 329.705,309.45 328.705,306.45 327.5,303.5C 326.042,302.218 324.708,302.218 323.5,303.5C 312.301,309.596 301.301,315.929 290.5,322.5C 283.312,326.839 275.979,331.006 268.5,335C 266.785,335.777 265.785,337.11 265.5,339C 270.033,353.633 273.7,368.466 276.5,383.5C 276.694,390.409 277.86,397.076 280,403.5C 289.112,398.029 298.279,392.695 307.5,387.5C 310.406,385.55 313.406,383.883 316.5,382.5C 317.965,381.263 319.632,380.263 321.5,379.5C 327.561,375.717 333.728,372.05 340,368.5C 339.835,361.861 339.335,355.194 338.5,348.5C 338.667,347.5 338.833,346.5 339,345.5C 339.279,348.457 340.113,351.123 341.5,353.5C 342.489,358.975 342.822,364.642 342.5,370.5C 320.796,383.352 298.796,395.686 276.5,407.5C 268.545,402.052 260.712,396.385 253,390.5C 249.495,380.661 245.328,371.161 240.5,362C 215.404,348.035 190.737,333.535 166.5,318.5C 169.125,317.675 171.625,318.341 174,320.5C 174.832,309.818 174.666,299.151 173.5,288.5C 157.5,279.167 141.5,269.833 125.5,260.5C 124.334,270.817 124.168,281.151 125,291.5C 136.417,298.459 147.917,305.293 159.5,312C 158.402,312.77 158.402,313.603 159.5,314.5C 143.83,306.001 128.497,297.001 113.5,287.5C 112.537,286.637 112.537,285.97 113.5,285.5C 115.996,286.58 118.33,287.914 120.5,289.5C 121.666,279.183 121.832,268.849 121,258.5C 104.808,248.491 88.3076,239.158 71.5,230.5C 71.3335,240.506 71.5002,250.506 72,260.5C 81.8333,266.333 91.6667,272.167 101.5,278C 100.402,278.77 100.402,279.603 101.5,280.5C 81.0263,269.096 60.693,257.429 40.5,245.5C 39.0996,237.052 39.4329,228.719 41.5,220.5C 43.0739,218.898 43.7406,216.898 43.5,214.5C 43.4142,213.504 43.7476,212.671 44.5,212C 116.494,252.841 188.494,294.008 260.5,335.5 Z"/></g>
<g><path style="opacity:1" fill="#42413f" d="M 45.5,215.5 C 53.0563,218.948 60.3897,222.948 67.5,227.5C 68.4985,237.478 68.8319,247.478 68.5,257.5C 59.293,253.896 50.6263,249.229 42.5,243.5C 40.6862,233.828 41.6862,224.495 45.5,215.5 Z"/></g>
<g><path style="opacity:1" fill="#42413f" d="M 177.5,292.5 C 179.655,292.372 181.655,292.872 183.5,294C 197.982,302.653 212.482,311.153 227,319.5C 227.5,329.828 227.666,340.161 227.5,350.5C 224.984,350.245 222.65,349.411 220.5,348C 206.25,339.626 192.084,331.126 178,322.5C 177.5,312.506 177.334,302.506 177.5,292.5 Z"/></g>
<g><path style="opacity:1" fill="#edc24a" d="M 388.5,297.5 C 388.665,300.85 388.498,304.183 388,307.5C 385.176,308.818 382.676,310.485 380.5,312.5C 379.833,312.5 379.167,312.5 378.5,312.5C 377.833,309.5 377.167,306.5 376.5,303.5C 379.805,300.215 383.805,298.215 388.5,297.5 Z"/></g>
<g><path style="opacity:1" fill="#323331" d="M 93.5,327.5 C 89.0635,330.559 84.3968,333.392 79.5,336C 76.6967,336.755 74.0301,336.422 71.5,335C 61.3355,327.841 56.0022,318.008 55.5,305.5C 57.6462,298.263 62.3129,296.096 69.5,299C 78.0891,305.097 83.7557,313.264 86.5,323.5C 88.8505,324.861 91.1838,326.194 93.5,327.5 Z"/></g>
<g><path style="opacity:1" fill="#444341" d="M 323.5,303.5 C 324.708,302.218 326.042,302.218 327.5,303.5C 328.705,306.45 329.705,309.45 330.5,312.5C 324.406,335.218 319.072,358.218 314.5,381.5C 314.957,382.298 315.624,382.631 316.5,382.5C 313.406,383.883 310.406,385.55 307.5,387.5C 311.621,366.148 315.788,344.815 320,323.5C 320.601,320.363 321.601,317.363 323,314.5C 323.296,311.294 323.796,308.128 324.5,305C 324.43,304.235 324.097,303.735 323.5,303.5 Z"/></g>
<g><path style="opacity:1" fill="#63615f" d="M 323.5,303.5 C 324.097,303.735 324.43,304.235 324.5,305C 323.796,308.128 323.296,311.294 323,314.5C 321.601,317.363 320.601,320.363 320,323.5C 315.788,344.815 311.621,366.148 307.5,387.5C 298.279,392.695 289.112,398.029 280,403.5C 277.86,397.076 276.694,390.409 276.5,383.5C 281.271,363.217 285.938,342.884 290.5,322.5C 301.301,315.929 312.301,309.596 323.5,303.5 Z"/></g>
<g><path style="opacity:1" fill="#dcb042" d="M 328.5,298.5 C 334.397,303.13 340.73,307.296 347.5,311C 350.174,312.588 353.008,313.755 356,314.5C 362.666,310.418 369.5,306.752 376.5,303.5C 377.167,306.5 377.833,309.5 378.5,312.5C 377.306,313.272 376.306,314.272 375.5,315.5C 371.164,317.332 367.164,319.665 363.5,322.5C 360.849,323.49 358.183,324.49 355.5,325.5C 353.484,324.822 351.484,324.156 349.5,323.5C 349.5,322.5 349.5,321.5 349.5,320.5C 347.833,320.5 346.167,320.5 344.5,320.5C 341.001,318.25 337.335,316.25 333.5,314.5C 332.228,309.019 330.561,303.686 328.5,298.5 Z"/></g>
<g><path style="opacity:1" fill="#525251" d="M 68.5,306.5 C 68.5,308.5 68.5,310.5 68.5,312.5C 65.2136,311.758 63.8803,309.925 64.5,307C 65.7932,306.51 67.1266,306.343 68.5,306.5 Z"/></g>
<g><path style="opacity:1" fill="#e8eded" d="M 443.5,159.5 C 443.5,164.167 443.5,168.833 443.5,173.5C 446.167,173.5 448.833,173.5 451.5,173.5C 451.5,177.5 451.5,181.5 451.5,185.5C 448.833,185.5 446.167,185.5 443.5,185.5C 443.5,190.167 443.5,194.833 443.5,199.5C 446.167,199.5 448.833,199.5 451.5,199.5C 451.586,203.857 451.92,208.19 452.5,212.5C 449.5,212.5 446.5,212.5 443.5,212.5C 443.334,219.841 443.5,227.174 444,234.5C 446.333,232.167 448.667,229.833 451,227.5C 452.119,233.547 449.619,236.881 443.5,237.5C 443.334,243.176 443.501,248.843 444,254.5C 445.466,252.675 447.299,252.175 449.5,253C 447.667,254.833 445.833,256.667 444,258.5C 443.5,265.158 443.334,271.825 443.5,278.5C 446.167,278.5 448.833,278.5 451.5,278.5C 451.5,282.5 451.5,286.5 451.5,290.5C 448.833,290.5 446.167,290.5 443.5,290.5C 443.211,294.106 443.544,297.606 444.5,301C 455.264,307.159 465.931,313.159 476.5,319C 475.944,319.383 475.611,319.883 475.5,320.5C 445.734,336.885 416.4,354.051 387.5,372C 385.975,373.009 384.308,373.509 382.5,373.5C 369.022,365.592 355.356,357.925 341.5,350.5C 340.772,346.017 339.772,341.684 338.5,337.5C 338.5,336.833 338.5,336.167 338.5,335.5C 340.203,334.34 340.869,335.007 340.5,337.5C 342.099,337.768 343.432,337.434 344.5,336.5C 346.23,335.974 347.564,334.974 348.5,333.5C 349.479,330.375 349.813,327.042 349.5,323.5C 351.484,324.156 353.484,324.822 355.5,325.5C 358.183,324.49 360.849,323.49 363.5,322.5C 367.967,323.067 371.967,324.734 375.5,327.5C 375.177,331.226 375.511,334.893 376.5,338.5C 377.622,339.63 378.956,340.297 380.5,340.5C 380.56,341.043 380.893,341.376 381.5,341.5C 383.289,340.123 385.289,339.123 387.5,338.5C 388.322,326.175 388.989,313.841 389.5,301.5C 389.497,298.975 389.163,296.641 388.5,294.5C 382.464,290.819 376.464,287.152 370.5,283.5C 370.5,275.833 370.5,268.167 370.5,260.5C 389.568,272.032 408.901,283.032 428.5,293.5C 428.171,306.677 428.505,319.677 429.5,332.5C 430.965,333.737 432.632,334.737 434.5,335.5C 434.56,336.043 434.893,336.376 435.5,336.5C 437.799,335.365 439.966,334.032 442,332.5C 442.167,274.665 442.667,216.999 443.5,159.5 Z"/></g>
<g><path style="opacity:1" fill="#2d972d" d="M 133.5,350.5 C 131.243,350.038 129.243,349.038 127.5,347.5C 125.12,335.966 118.787,327.466 108.5,322C 102.024,320.657 98.0236,323.157 96.5,329.5C 95.5,328.833 94.5,328.167 93.5,327.5C 91.1838,326.194 88.8505,324.861 86.5,323.5C 83.7557,313.264 78.0891,305.097 69.5,299C 62.3129,296.096 57.6462,298.263 55.5,305.5C 53.1475,304.66 51.1475,303.326 49.5,301.5C 51.5915,297.572 54.5915,294.406 58.5,292C 61.8333,291.333 65.1667,291.333 68.5,292C 81.6329,298.476 89.4662,308.976 92,323.5C 97.1792,315.405 104.346,313.238 113.5,317C 125.422,325.009 132.089,336.175 133.5,350.5 Z"/></g>
<g><path style="opacity:1" fill="#62605e" d="M 330.5,312.5 C 331.878,316.721 332.878,321.054 333.5,325.5C 329.924,343.634 325.924,361.634 321.5,379.5C 319.632,380.263 317.965,381.263 316.5,382.5C 315.624,382.631 314.957,382.298 314.5,381.5C 319.072,358.218 324.406,335.218 330.5,312.5 Z"/></g>
<g><path style="opacity:1" fill="#d5d3d0" d="M 388.5,294.5 C 389.163,296.641 389.497,298.975 389.5,301.5C 388.989,313.841 388.322,326.175 387.5,338.5C 385.289,339.123 383.289,340.123 381.5,341.5C 380.893,341.376 380.56,341.043 380.5,340.5C 381.833,331.167 381.833,321.833 380.5,312.5C 382.676,310.485 385.176,308.818 388,307.5C 388.498,304.183 388.665,300.85 388.5,297.5C 388.5,296.5 388.5,295.5 388.5,294.5 Z"/></g>
<g><path style="opacity:1" fill="#adb0b0" d="M 68.5,306.5 C 69.1635,308.042 69.8302,309.709 70.5,311.5C 71.548,310.452 72.548,309.452 73.5,308.5C 76.7367,310.63 78.7367,313.63 79.5,317.5C 77.0706,317.884 74.7373,318.551 72.5,319.5C 70.9652,320.788 69.2985,320.788 67.5,319.5C 68.1667,317.5 68.8333,315.5 69.5,313.5C 69.3764,312.893 69.0431,312.56 68.5,312.5C 68.5,310.5 68.5,308.5 68.5,306.5 Z"/></g>
<g><path style="opacity:1" fill="#383736" d="M 72.5,319.5 C 69.7252,319.166 69.0585,317.833 70.5,315.5C 72.1112,316.32 72.7778,317.654 72.5,319.5 Z"/></g>
<g><path style="opacity:1" fill="#363635" d="M 73.5,311.5 C 75.3386,312.508 76.6719,314.008 77.5,316C 74.0699,316.638 72.7366,315.138 73.5,311.5 Z"/></g>
<g><path style="opacity:1" fill="#dee4e0" d="M 333.5,314.5 C 337.335,316.25 341.001,318.25 344.5,320.5C 341.259,322.066 339.759,324.733 340,328.5C 339.329,329.252 338.496,329.586 337.5,329.5C 336.474,324.439 335.141,319.439 333.5,314.5 Z"/></g>
<g><path style="opacity:1" fill="#d5d9d9" d="M 73.5,308.5 C 72.548,309.452 71.548,310.452 70.5,311.5C 69.8302,309.709 69.1635,308.042 68.5,306.5C 67.1266,306.343 65.7932,306.51 64.5,307C 63.8803,309.925 65.2136,311.758 68.5,312.5C 69.0431,312.56 69.3764,312.893 69.5,313.5C 68.8333,315.5 68.1667,317.5 67.5,319.5C 69.2985,320.788 70.9652,320.788 72.5,319.5C 74.7373,318.551 77.0706,317.884 79.5,317.5C 81.2418,322.069 80.5752,326.236 77.5,330C 73.4122,330.711 69.9122,329.544 67,326.5C 62.0652,321.094 60.0652,314.761 61,307.5C 65.4212,303.544 69.5879,303.877 73.5,308.5 Z"/></g>
<g><path style="opacity:1" fill="#444443" d="M 62.5,313.5 C 65.1567,314.479 65.8234,316.146 64.5,318.5C 63.0499,317.15 62.3832,315.484 62.5,313.5 Z"/></g>
<g><path style="opacity:1" fill="#cbcdcd" d="M 475.5,320.5 C 476.652,325.985 476.818,331.651 476,337.5C 463.19,344.482 450.69,351.815 438.5,359.5C 429.798,364.515 421.131,369.515 412.5,374.5C 402.517,380.139 392.517,385.805 382.5,391.5C 382.5,385.833 382.5,380.167 382.5,374.5C 382.5,374.167 382.5,373.833 382.5,373.5C 384.308,373.509 385.975,373.009 387.5,372C 416.4,354.051 445.734,336.885 475.5,320.5 Z"/></g>
<g><path style="opacity:1" fill="#333431" d="M 133.5,350.5 C 133.5,351.167 133.833,351.5 134.5,351.5C 130.335,354.136 126.002,356.636 121.5,359C 113.351,359.881 107.184,356.714 103,349.5C 98.8106,343.463 96.644,336.796 96.5,329.5C 98.0236,323.157 102.024,320.657 108.5,322C 118.787,327.466 125.12,335.966 127.5,347.5C 129.243,349.038 131.243,350.038 133.5,350.5 Z"/></g>
<g><path style="opacity:1" fill="#41b545" d="M 348.5,333.5 C 347.564,334.974 346.23,335.974 344.5,336.5C 342.974,335.895 341.974,334.729 341.5,333C 342.282,330.26 342.782,327.426 343,324.5C 344.174,322.329 346.007,321.329 348.5,321.5C 348.5,325.5 348.5,329.5 348.5,333.5 Z"/></g>
<g><path style="opacity:1" fill="#3e3e3d" d="M 75.5,322.5 C 76.5,322.5 77.5,322.5 78.5,322.5C 78.7778,324.346 78.1112,325.68 76.5,326.5C 75.5713,325.311 75.238,323.978 75.5,322.5 Z"/></g>
<g><path style="opacity:1" fill="#42423f" d="M 270.5,369.5 C 269.178,369.33 268.011,369.663 267,370.5C 263.855,367.917 260.855,368.25 258,371.5C 257.501,376.155 257.334,380.821 257.5,385.5C 258.791,385.737 259.791,385.404 260.5,384.5C 262.434,383.89 264.101,382.89 265.5,381.5C 266.29,380.391 266.79,379.058 267,377.5C 267.671,376.748 268.504,376.414 269.5,376.5C 271.649,385.057 272.816,393.724 273,402.5C 267.07,397.923 261.07,393.256 255,388.5C 251.333,379.5 247.667,370.5 244,361.5C 239.667,358.833 235.333,356.167 231,353.5C 230.168,342.818 230.334,332.151 231.5,321.5C 240.917,327.293 250.417,332.959 260,338.5C 262.774,348.548 265.607,358.548 268.5,368.5C 270.002,364.626 270.669,364.959 270.5,369.5 Z"/></g>
<g><path style="opacity:1" fill="#cfcdc9" d="M 375.5,315.5 C 375.5,319.5 375.5,323.5 375.5,327.5C 371.967,324.734 367.967,323.067 363.5,322.5C 367.164,319.665 371.164,317.332 375.5,315.5 Z"/></g>
<g><path style="opacity:1" fill="#434342" d="M 68.5,323.5 C 71.9318,323.248 72.9318,324.581 71.5,327.5C 69.7118,326.717 68.7118,325.384 68.5,323.5 Z"/></g>
<g><path style="opacity:1" fill="#6cc360" d="M 327.5,294.5 C 327.833,295.833 328.167,297.167 328.5,298.5C 306.067,310.217 284.067,322.717 262.5,336C 261.563,336.692 260.897,336.525 260.5,335.5C 260.5,334.5 260.5,333.5 260.5,332.5C 282.964,320.1 305.297,307.434 327.5,294.5 Z"/></g>
<g><path style="opacity:1" fill="#434240" d="M 290.5,322.5 C 285.938,342.884 281.271,363.217 276.5,383.5C 273.7,368.466 270.033,353.633 265.5,339C 265.785,337.11 266.785,335.777 268.5,335C 275.979,331.006 283.312,326.839 290.5,322.5 Z"/></g>
<g><path style="opacity:1" fill="#b4b2b0" d="M 378.5,312.5 C 379.167,312.5 379.833,312.5 380.5,312.5C 381.833,321.833 381.833,331.167 380.5,340.5C 378.956,340.297 377.622,339.63 376.5,338.5C 375.511,334.893 375.177,331.226 375.5,327.5C 375.5,323.5 375.5,319.5 375.5,315.5C 376.306,314.272 377.306,313.272 378.5,312.5 Z"/></g>
<g><path style="opacity:1" fill="#434240" d="M 333.5,325.5 C 335.408,331.609 336.908,337.943 338,344.5C 338.497,342.19 338.663,339.857 338.5,337.5C 339.772,341.684 340.772,346.017 341.5,350.5C 341.5,351.5 341.5,352.5 341.5,353.5C 340.113,351.123 339.279,348.457 339,345.5C 338.833,346.5 338.667,347.5 338.5,348.5C 339.335,355.194 339.835,361.861 340,368.5C 333.728,372.05 327.561,375.717 321.5,379.5C 325.924,361.634 329.924,343.634 333.5,325.5 Z"/></g>
<g><path style="opacity:1" fill="#bce0bd" d="M 338.5,333.5 C 338.5,332.833 338.5,332.167 338.5,331.5C 341.187,330.939 341.187,331.606 338.5,333.5 Z"/></g>
<g><path style="opacity:1" fill="#68c067" d="M 344.5,320.5 C 346.167,320.5 347.833,320.5 349.5,320.5C 349.5,321.5 349.5,322.5 349.5,323.5C 349.813,327.042 349.479,330.375 348.5,333.5C 348.5,329.5 348.5,325.5 348.5,321.5C 346.007,321.329 344.174,322.329 343,324.5C 342.782,327.426 342.282,330.26 341.5,333C 341.974,334.729 342.974,335.895 344.5,336.5C 343.432,337.434 342.099,337.768 340.5,337.5C 340.869,335.007 340.203,334.34 338.5,335.5C 338.5,334.833 338.5,334.167 338.5,333.5C 341.187,331.606 341.187,330.939 338.5,331.5C 337.662,331.158 337.328,330.492 337.5,329.5C 338.496,329.586 339.329,329.252 340,328.5C 339.759,324.733 341.259,322.066 344.5,320.5 Z"/></g>
<g><path style="opacity:1" fill="#3e3d3c" d="M 105.5,338.5 C 106.234,339.708 106.567,341.041 106.5,342.5C 105.414,342.38 104.747,341.713 104.5,340.5C 104.543,339.584 104.876,338.917 105.5,338.5 Z"/></g>
<g><path style="opacity:1" fill="#9fa1a1" d="M 102.5,330.5 C 102.144,333.776 103.144,336.443 105.5,338.5C 104.876,338.917 104.543,339.584 104.5,340.5C 104.747,341.713 105.414,342.38 106.5,342.5C 105.766,343.708 105.433,345.041 105.5,346.5C 101.619,341.658 100.619,336.325 102.5,330.5 Z"/></g>
<g><path style="opacity:1" fill="#9b9ea5" d="M 8.5,320.5 C 86.2016,364.859 163.868,409.525 241.5,454.5C 242.816,460.32 242.816,465.987 241.5,471.5C 197.992,446.245 154.325,421.245 110.5,396.5C 110.158,395.662 109.492,395.328 108.5,395.5C 104.836,392.665 100.836,390.332 96.5,388.5C 67.9226,371.202 38.9226,354.369 9.5,338C 8.5251,332.259 8.19177,326.425 8.5,320.5 Z"/></g>
<g><path style="opacity:1" fill="#d1d4d5" d="M 105.5,346.5 C 105.433,345.041 105.766,343.708 106.5,342.5C 106.567,341.041 106.234,339.708 105.5,338.5C 103.144,336.443 102.144,333.776 102.5,330.5C 105.53,328.022 108.863,327.855 112.5,330C 120.044,335.299 122.878,342.465 121,351.5C 118.159,353.504 114.993,354.004 111.5,353C 109.294,350.963 107.294,348.797 105.5,346.5 Z"/></g>
<g><path style="opacity:1" fill="#474645" d="M 109.5,347.5 C 112.114,347.277 113.781,348.444 114.5,351C 111.808,351.319 110.142,350.153 109.5,347.5 Z"/></g>
<g><path style="opacity:1" fill="#31302f" d="M 116.5,346.5 C 117.5,346.5 118.5,346.5 119.5,346.5C 118.562,351.767 117.562,351.767 116.5,346.5 Z"/></g>
<g><path style="opacity:1" fill="#3e3d3c" d="M 109.5,338.5 C 112.719,339.021 113.719,340.688 112.5,343.5C 110.244,342.579 109.244,340.912 109.5,338.5 Z"/></g>
<g><path style="opacity:1" fill="#3f3f3e" d="M 113.5,333.5 C 116.997,335.144 118.164,337.477 117,340.5C 113.956,339.219 112.79,336.885 113.5,333.5 Z"/></g>
<g><path style="opacity:1" fill="#3d3c3b" d="M 105.5,330.5 C 106.833,330.5 108.167,330.5 109.5,330.5C 109.662,332.527 109.495,334.527 109,336.5C 107.846,335.257 106.512,334.257 105,333.5C 104.53,332.423 104.697,331.423 105.5,330.5 Z"/></g>
<g><path style="opacity:1" fill="#f5f5f5" d="M 35.5,238.5 C 35.5,244.167 35.5,249.833 35.5,255.5C 34.1667,261.833 34.1667,268.167 35.5,274.5C 35.1392,280.593 35.6392,286.593 37,292.5C 38.3845,295.386 40.5512,297.386 43.5,298.5C 32.5589,305.644 21.2256,312.311 9.5,318.5C 8.70245,318.957 8.36912,319.624 8.5,320.5C 8.19177,326.425 8.5251,332.259 9.5,338C 38.9226,354.369 67.9226,371.202 96.5,388.5C 96.5,390.833 96.5,393.167 96.5,395.5C 92.5,395.5 88.5,395.5 84.5,395.5C 84.5,400.167 84.5,404.833 84.5,409.5C 79.8333,409.5 75.1667,409.5 70.5,409.5C 70.5,413.5 70.5,417.5 70.5,421.5C 74.9017,421.228 79.2351,421.561 83.5,422.5C 84.4922,426.783 84.8256,431.116 84.5,435.5C 79.8333,435.5 75.1667,435.5 70.5,435.5C 70.5,439.833 70.5,444.167 70.5,448.5C 66.5,448.5 62.5,448.5 58.5,448.5C 58.5,452.833 58.5,457.167 58.5,461.5C 53.8333,461.5 49.1667,461.5 44.5,461.5C 44.5,457.167 44.5,452.833 44.5,448.5C 40.5,448.5 36.5,448.5 32.5,448.5C 32.5,452.833 32.5,457.167 32.5,461.5C 36.1817,461.335 39.8484,461.501 43.5,462C 44.4558,465.394 44.7892,468.894 44.5,472.5C 29.5,472.5 14.5,472.5 -0.5,472.5C -0.5,398.833 -0.5,325.167 -0.5,251.5C 1.5,251.5 3.5,251.5 5.5,251.5C 5.5,247.167 5.5,242.833 5.5,238.5C 9.83333,238.5 14.1667,238.5 18.5,238.5C 18.5,242.833 18.5,247.167 18.5,251.5C 14.2325,251.203 10.0659,251.536 6,252.5C 5.50115,256.486 5.33449,260.486 5.5,264.5C 9.83333,264.5 14.1667,264.5 18.5,264.5C 18.5,260.5 18.5,256.5 18.5,252.5C 22.8333,252.5 27.1667,252.5 31.5,252.5C 31.4847,256.56 31.9847,260.56 33,264.5C 33.1675,255.837 33.0008,247.17 32.5,238.5C 33.5,238.5 34.5,238.5 35.5,238.5 Z"/></g>
<g><path style="opacity:1" fill="#a9adb5" d="M 43.5,298.5 C 45.2163,300.025 47.2163,301.025 49.5,301.5C 51.1475,303.326 53.1475,304.66 55.5,305.5C 56.0022,318.008 61.3355,327.841 71.5,335C 74.0301,336.422 76.6967,336.755 79.5,336C 84.3968,333.392 89.0635,330.559 93.5,327.5C 94.5,328.167 95.5,328.833 96.5,329.5C 96.644,336.796 98.8106,343.463 103,349.5C 107.184,356.714 113.351,359.881 121.5,359C 126.002,356.636 130.335,354.136 134.5,351.5C 158.5,365.167 182.5,378.833 206.5,392.5C 207.899,393.89 209.566,394.89 211.5,395.5C 212.002,408.008 217.336,417.841 227.5,425C 230.03,426.422 232.697,426.755 235.5,426C 240.397,423.392 245.063,420.559 249.5,417.5C 256.472,421.655 263.472,425.822 270.5,430C 272.345,431.128 274.345,431.628 276.5,431.5C 298.225,418.461 320.225,405.795 342.5,393.5C 343.82,385.677 343.82,378.01 342.5,370.5C 342.822,364.642 342.489,358.975 341.5,353.5C 341.5,352.5 341.5,351.5 341.5,350.5C 355.356,357.925 369.022,365.592 382.5,373.5C 382.5,373.833 382.5,374.167 382.5,374.5C 336.327,401.085 290.327,427.918 244.5,455C 243.175,460.599 243.175,466.099 244.5,471.5C 244.5,471.833 244.5,472.167 244.5,472.5C 243.5,472.5 242.5,472.5 241.5,472.5C 241.5,472.167 241.5,471.833 241.5,471.5C 242.816,465.987 242.816,460.32 241.5,454.5C 163.868,409.525 86.2016,364.859 8.5,320.5C 8.36912,319.624 8.70245,318.957 9.5,318.5C 21.2256,312.311 32.5589,305.644 43.5,298.5 Z"/></g>
<g><path style="opacity:1" fill="#3db141" d="M 266.5,373.5 C 265.527,375.948 265.194,378.615 265.5,381.5C 264.101,382.89 262.434,383.89 260.5,384.5C 259.355,380.689 259.188,376.689 260,372.5C 261.586,371.624 263.086,370.624 264.5,369.5C 265.705,370.577 266.372,371.91 266.5,373.5 Z"/></g>
<g><path style="opacity:1" fill="#f9f9f9" d="M 438.5,359.5 C 438.5,362.833 438.5,366.167 438.5,369.5C 442.833,369.5 447.167,369.5 451.5,369.5C 451.5,374.167 451.5,378.833 451.5,383.5C 447.167,383.5 442.833,383.5 438.5,383.5C 438.5,387.5 438.5,391.5 438.5,395.5C 434.167,395.5 429.833,395.5 425.5,395.5C 425.5,400.167 425.5,404.833 425.5,409.5C 421.167,409.5 416.833,409.5 412.5,409.5C 412.334,413.514 412.501,417.514 413,421.5C 417.066,422.464 421.233,422.797 425.5,422.5C 425.5,426.833 425.5,431.167 425.5,435.5C 421.167,435.5 416.833,435.5 412.5,435.5C 412.666,431.486 412.499,427.486 412,423.5C 407.934,422.536 403.767,422.203 399.5,422.5C 399.5,426.833 399.5,431.167 399.5,435.5C 394.833,435.5 390.167,435.5 385.5,435.5C 385.5,431.167 385.5,426.833 385.5,422.5C 389.902,422.772 394.235,422.439 398.5,421.5C 399.491,417.555 399.824,413.555 399.5,409.5C 394.833,409.5 390.167,409.5 385.5,409.5C 385.334,405.154 385.501,400.821 386,396.5C 390.401,395.533 394.901,395.2 399.5,395.5C 399.5,391.5 399.5,387.5 399.5,383.5C 403.5,383.5 407.5,383.5 411.5,383.5C 411.264,380.391 411.597,377.391 412.5,374.5C 421.131,369.515 429.798,364.515 438.5,359.5 Z"/></g>
<g><path style="opacity:1" fill="#4fa14c" d="M 270.5,369.5 C 269.5,371.167 268.167,372.5 266.5,373.5C 266.372,371.91 265.705,370.577 264.5,369.5C 263.086,370.624 261.586,371.624 260,372.5C 259.188,376.689 259.355,380.689 260.5,384.5C 259.791,385.404 258.791,385.737 257.5,385.5C 257.334,380.821 257.501,376.155 258,371.5C 260.855,368.25 263.855,367.917 267,370.5C 268.011,369.663 269.178,369.33 270.5,369.5 Z"/></g>
<g><path style="opacity:1" fill="#3e833f" d="M 266.5,373.5 C 267.609,374.29 268.942,374.79 270.5,375C 269.944,375.383 269.611,375.883 269.5,376.5C 268.504,376.414 267.671,376.748 267,377.5C 266.79,379.058 266.29,380.391 265.5,381.5C 265.194,378.615 265.527,375.948 266.5,373.5 Z"/></g>
<g><path style="opacity:1" fill="#2d972d" d="M 248.5,416.5 C 246.243,416.038 244.243,415.038 242.5,413.5C 239.768,401.847 233.101,393.347 222.5,388C 216.617,387.026 212.951,389.526 211.5,395.5C 209.566,394.89 207.899,393.89 206.5,392.5C 210.159,382.341 217.159,379.175 227.5,383C 239.698,390.893 246.698,402.06 248.5,416.5 Z"/></g>
<g><path style="opacity:1" fill="#323330" d="M 248.5,416.5 C 248.5,417.167 248.833,417.5 249.5,417.5C 245.063,420.559 240.397,423.392 235.5,426C 232.697,426.755 230.03,426.422 227.5,425C 217.336,417.841 212.002,408.008 211.5,395.5C 212.951,389.526 216.617,387.026 222.5,388C 233.101,393.347 239.768,401.847 242.5,413.5C 244.243,415.038 246.243,416.038 248.5,416.5 Z"/></g>
<g><path style="opacity:1" fill="#6bc15f" d="M 342.5,370.5 C 343.82,378.01 343.82,385.677 342.5,393.5C 320.225,405.795 298.225,418.461 276.5,431.5C 276.5,423.5 276.5,415.5 276.5,407.5C 298.796,395.686 320.796,383.352 342.5,370.5 Z"/></g>
<g><path style="opacity:1" fill="#41523c" d="M 340.5,379.5 C 340.665,383.182 340.499,386.848 340,390.5C 338.007,391.914 335.84,392.914 333.5,393.5C 335,391.821 336.833,390.488 339,389.5C 339.49,388.207 339.657,386.873 339.5,385.5C 339.5,383.833 339.5,382.167 339.5,380.5C 339.5,379.833 339.833,379.5 340.5,379.5 Z"/></g>
<g><path style="opacity:1" fill="#b59232" d="M 326.5,387.5 C 326.077,389.781 326.744,391.448 328.5,392.5C 328.5,393.833 328.5,395.167 328.5,396.5C 327.325,396.719 326.325,396.386 325.5,395.5C 325.393,392.808 325.726,390.141 326.5,387.5 Z"/></g>
<g><path style="opacity:1" fill="#31332f" d="M 319.5,390.5 C 320.748,391.334 321.415,392.667 321.5,394.5C 321.167,395.833 320.833,397.167 320.5,398.5C 313.433,403.033 306.099,407.033 298.5,410.5C 298.223,407.552 298.556,404.719 299.5,402C 306.357,398.408 313.024,394.574 319.5,390.5 Z"/></g>
<g><path style="opacity:1" fill="#bec5b5" d="M 339.5,385.5 C 339.657,386.873 339.49,388.207 339,389.5C 336.833,390.488 335,391.821 333.5,393.5C 333.158,394.338 332.492,394.672 331.5,394.5C 330.596,393.791 330.263,392.791 330.5,391.5C 333.291,389.265 336.291,387.265 339.5,385.5 Z"/></g>
<g><path style="opacity:1" fill="#445738" d="M 331.5,383.5 C 330.016,385.074 328.349,386.407 326.5,387.5C 325.726,390.141 325.393,392.808 325.5,395.5C 326.325,396.386 327.325,396.719 328.5,396.5C 327.739,397.391 326.739,398.058 325.5,398.5C 324.34,394.541 324.173,390.541 325,386.5C 326.993,385.086 329.16,384.086 331.5,383.5 Z"/></g>
<g><path style="opacity:1" fill="#eccb4f" d="M 339.5,380.5 C 339.5,382.167 339.5,383.833 339.5,385.5C 336.291,387.265 333.291,389.265 330.5,391.5C 329.508,391.328 328.842,391.662 328.5,392.5C 326.744,391.448 326.077,389.781 326.5,387.5C 328.349,386.407 330.016,385.074 331.5,383.5C 334.167,382.5 336.833,381.5 339.5,380.5 Z"/></g>
<g><path style="opacity:1" fill="#5e7440" d="M 340.5,379.5 C 339.833,379.5 339.5,379.833 339.5,380.5C 336.833,381.5 334.167,382.5 331.5,383.5C 333.253,381.777 335.253,380.277 337.5,379C 338.749,378.26 339.749,378.427 340.5,379.5 Z"/></g>
<g><path style="opacity:1" fill="#5d5f3c" d="M 330.5,391.5 C 330.263,392.791 330.596,393.791 331.5,394.5C 331.027,395.906 330.027,396.573 328.5,396.5C 328.5,395.167 328.5,393.833 328.5,392.5C 328.842,391.662 329.508,391.328 330.5,391.5 Z"/></g>
<g><path style="opacity:1" fill="#fdfdfd" d="M 108.5,395.5 C 109.492,395.328 110.158,395.662 110.5,396.5C 110.5,400.833 110.5,405.167 110.5,409.5C 106.167,409.5 101.833,409.5 97.5,409.5C 97.5,404.833 97.5,400.167 97.5,395.5C 101.167,395.5 104.833,395.5 108.5,395.5 Z"/></g>
<g><path style="opacity:1" fill="#b1b3b3" d="M 229.5,398.5 C 232.737,400.63 234.737,403.63 235.5,407.5C 233.071,407.884 230.737,408.551 228.5,409.5C 226.965,410.788 225.299,410.788 223.5,409.5C 224.269,405.089 226.269,401.422 229.5,398.5 Z"/></g>
<g><path style="opacity:1" fill="#a0b99b" d="M 319.5,390.5 C 320.209,389.596 321.209,389.263 322.5,389.5C 322.789,393.106 322.456,396.606 321.5,400C 314.329,404.42 306.996,408.586 299.5,412.5C 298.702,412.043 298.369,411.376 298.5,410.5C 306.099,407.033 313.433,403.033 320.5,398.5C 320.833,397.167 321.167,395.833 321.5,394.5C 321.415,392.667 320.748,391.334 319.5,390.5 Z"/></g>
<g><path style="opacity:1" fill="#3f3f3e" d="M 229.5,401.5 C 233.957,404.436 233.957,406.102 229.5,406.5C 229.5,404.833 229.5,403.167 229.5,401.5 Z"/></g>
<g><path style="opacity:1" fill="#383736" d="M 228.5,409.5 C 225.725,409.166 225.059,407.833 226.5,405.5C 228.111,406.32 228.778,407.654 228.5,409.5 Z"/></g>
<g><path style="opacity:1" fill="#8d9096" d="M 382.5,374.5 C 382.5,380.167 382.5,385.833 382.5,391.5C 336.5,418.167 290.5,444.833 244.5,471.5C 243.175,466.099 243.175,460.599 244.5,455C 290.327,427.918 336.327,401.085 382.5,374.5 Z"/></g>
<g><path style="opacity:1" fill="#e8c54a" d="M 291.5,413.5 C 289.147,414.34 287.147,415.674 285.5,417.5C 283.027,417.604 282.361,418.604 283.5,420.5C 283.167,421.5 282.5,422.167 281.5,422.5C 280.749,419.817 280.582,416.817 281,413.5C 284.727,410.553 288.894,408.553 293.5,407.5C 293.741,409.886 293.075,411.886 291.5,413.5 Z"/></g>
<g><path style="opacity:1" fill="#c0c5b0" d="M 291.5,413.5 C 293.048,413.821 293.715,414.821 293.5,416.5C 292.508,416.328 291.842,416.662 291.5,417.5C 289.742,417.877 288.075,418.544 286.5,419.5C 285.702,419.043 285.369,418.376 285.5,417.5C 287.147,415.674 289.147,414.34 291.5,413.5 Z"/></g>
<g><path style="opacity:1" fill="#d4d7d8" d="M 229.5,398.5 C 226.269,401.422 224.269,405.089 223.5,409.5C 225.299,410.788 226.965,410.788 228.5,409.5C 230.737,408.551 233.071,407.884 235.5,407.5C 238.581,418.592 234.914,422.092 224.5,418C 218.474,412.449 215.974,405.616 217,397.5C 221.421,393.544 225.588,393.877 229.5,398.5 Z"/></g>
<g><path style="opacity:1" fill="#434241" d="M 224.5,413.5 C 226.59,413.45 227.923,414.45 228.5,416.5C 226.219,417.262 224.886,416.262 224.5,413.5 Z"/></g>
<g><path style="opacity:1" fill="#3b3a39" d="M 231.5,412.5 C 232.5,412.5 233.5,412.5 234.5,412.5C 233.5,417.833 232.5,417.833 231.5,412.5 Z"/></g>
<g><path style="opacity:1" fill="#4e4d4c" d="M 218.5,403.5 C 221.322,404.789 221.989,406.789 220.5,409.5C 219.232,407.696 218.565,405.696 218.5,403.5 Z"/></g>
<g><path style="opacity:1" fill="#4e4e4d" d="M 221.5,396.5 C 222.5,396.5 223.5,396.5 224.5,396.5C 224.962,403.569 223.296,404.236 219.5,398.5C 220.243,397.818 220.909,397.151 221.5,396.5 Z"/></g>
<g><path style="opacity:1" fill="#f4f4f4" d="M 96.5,388.5 C 100.836,390.332 104.836,392.665 108.5,395.5C 104.833,395.5 101.167,395.5 97.5,395.5C 97.5,400.167 97.5,404.833 97.5,409.5C 101.833,409.5 106.167,409.5 110.5,409.5C 110.5,405.167 110.5,400.833 110.5,396.5C 154.325,421.245 197.992,446.245 241.5,471.5C 241.5,471.833 241.5,472.167 241.5,472.5C 175.833,472.5 110.167,472.5 44.5,472.5C 44.7892,468.894 44.4558,465.394 43.5,462C 39.8484,461.501 36.1817,461.335 32.5,461.5C 32.5,457.167 32.5,452.833 32.5,448.5C 36.5,448.5 40.5,448.5 44.5,448.5C 44.5,452.833 44.5,457.167 44.5,461.5C 49.1667,461.5 53.8333,461.5 58.5,461.5C 58.5,457.167 58.5,452.833 58.5,448.5C 62.5,448.5 66.5,448.5 70.5,448.5C 70.5,444.167 70.5,439.833 70.5,435.5C 75.1667,435.5 79.8333,435.5 84.5,435.5C 84.8256,431.116 84.4922,426.783 83.5,422.5C 79.2351,421.561 74.9017,421.228 70.5,421.5C 70.5,417.5 70.5,413.5 70.5,409.5C 75.1667,409.5 79.8333,409.5 84.5,409.5C 84.5,404.833 84.5,400.167 84.5,395.5C 88.5,395.5 92.5,395.5 96.5,395.5C 96.5,393.167 96.5,390.833 96.5,388.5 Z"/></g>
<g><path style="opacity:1" fill="#f5f5f5" d="M 443.5,159.5 C 446.167,159.5 448.833,159.5 451.5,159.5C 451.335,162.85 451.502,166.183 452,169.5C 452.414,169.957 452.914,170.291 453.5,170.5C 457.142,168.025 460.642,165.358 464,162.5C 464.483,161.552 464.649,160.552 464.5,159.5C 468.833,159.5 473.167,159.5 477.5,159.5C 477.5,263.833 477.5,368.167 477.5,472.5C 460.167,472.5 442.833,472.5 425.5,472.5C 425.5,469.167 425.5,465.833 425.5,462.5C 431.853,462.547 432.02,461.881 426,460.5C 425.501,456.514 425.334,452.514 425.5,448.5C 429.833,448.5 434.167,448.5 438.5,448.5C 438.5,444.167 438.5,439.833 438.5,435.5C 442.833,435.5 447.167,435.5 451.5,435.5C 451.5,430.833 451.5,426.167 451.5,421.5C 447.167,421.5 442.833,421.5 438.5,421.5C 438.5,412.833 438.5,404.167 438.5,395.5C 438.5,391.5 438.5,387.5 438.5,383.5C 442.833,383.5 447.167,383.5 451.5,383.5C 451.5,378.833 451.5,374.167 451.5,369.5C 447.167,369.5 442.833,369.5 438.5,369.5C 438.5,366.167 438.5,362.833 438.5,359.5C 450.69,351.815 463.19,344.482 476,337.5C 476.818,331.651 476.652,325.985 475.5,320.5C 475.611,319.883 475.944,319.383 476.5,319C 465.931,313.159 455.264,307.159 444.5,301C 443.544,297.606 443.211,294.106 443.5,290.5C 446.167,290.5 448.833,290.5 451.5,290.5C 451.5,286.5 451.5,282.5 451.5,278.5C 448.833,278.5 446.167,278.5 443.5,278.5C 443.334,271.825 443.5,265.158 444,258.5C 445.833,256.667 447.667,254.833 449.5,253C 447.299,252.175 445.466,252.675 444,254.5C 443.501,248.843 443.334,243.176 443.5,237.5C 449.619,236.881 452.119,233.547 451,227.5C 448.667,229.833 446.333,232.167 444,234.5C 443.5,227.174 443.334,219.841 443.5,212.5C 446.5,212.5 449.5,212.5 452.5,212.5C 451.92,208.19 451.586,203.857 451.5,199.5C 448.833,199.5 446.167,199.5 443.5,199.5C 443.5,194.833 443.5,190.167 443.5,185.5C 446.167,185.5 448.833,185.5 451.5,185.5C 451.5,181.5 451.5,177.5 451.5,173.5C 448.833,173.5 446.167,173.5 443.5,173.5C 443.5,168.833 443.5,164.167 443.5,159.5 Z"/></g>
<g><path style="opacity:1" fill="#5d673f" d="M 293.5,416.5 C 293.715,414.821 293.048,413.821 291.5,413.5C 293.075,411.886 293.741,409.886 293.5,407.5C 288.894,408.553 284.727,410.553 281,413.5C 280.582,416.817 280.749,419.817 281.5,422.5C 282.5,422.167 283.167,421.5 283.5,420.5C 282.361,418.604 283.027,417.604 285.5,417.5C 285.369,418.376 285.702,419.043 286.5,419.5C 288.075,418.544 289.742,417.877 291.5,417.5C 288.141,420.168 284.475,422.501 280.5,424.5C 279.34,420.541 279.173,416.541 280,412.5C 284.592,409.453 289.426,406.786 294.5,404.5C 295.659,408.122 295.825,411.789 295,415.5C 294.617,416.056 294.117,416.389 293.5,416.5 Z"/></g>
<g><path style="opacity:1" fill="#f4f4f4" d="M 412.5,374.5 C 411.597,377.391 411.264,380.391 411.5,383.5C 407.5,383.5 403.5,383.5 399.5,383.5C 399.5,387.5 399.5,391.5 399.5,395.5C 394.901,395.2 390.401,395.533 386,396.5C 385.501,400.821 385.334,405.154 385.5,409.5C 390.167,409.5 394.833,409.5 399.5,409.5C 399.824,413.555 399.491,417.555 398.5,421.5C 394.235,422.439 389.902,422.772 385.5,422.5C 385.5,426.833 385.5,431.167 385.5,435.5C 390.167,435.5 394.833,435.5 399.5,435.5C 399.5,431.167 399.5,426.833 399.5,422.5C 403.767,422.203 407.934,422.536 412,423.5C 412.499,427.486 412.666,431.486 412.5,435.5C 416.833,435.5 421.167,435.5 425.5,435.5C 425.5,431.167 425.5,426.833 425.5,422.5C 421.233,422.797 417.066,422.464 413,421.5C 412.501,417.514 412.334,413.514 412.5,409.5C 416.833,409.5 421.167,409.5 425.5,409.5C 425.5,404.833 425.5,400.167 425.5,395.5C 429.833,395.5 434.167,395.5 438.5,395.5C 438.5,404.167 438.5,412.833 438.5,421.5C 442.833,421.5 447.167,421.5 451.5,421.5C 451.5,426.167 451.5,430.833 451.5,435.5C 447.167,435.5 442.833,435.5 438.5,435.5C 438.5,439.833 438.5,444.167 438.5,448.5C 434.167,448.5 429.833,448.5 425.5,448.5C 425.334,452.514 425.501,456.514 426,460.5C 432.02,461.881 431.853,462.547 425.5,462.5C 425.5,465.833 425.5,469.167 425.5,472.5C 403.5,472.5 381.5,472.5 359.5,472.5C 359.5,469.167 359.5,465.833 359.5,462.5C 363.846,462.666 368.179,462.499 372.5,462C 373.467,457.599 373.8,453.099 373.5,448.5C 368.833,448.5 364.167,448.5 359.5,448.5C 359.5,444.167 359.5,439.833 359.5,435.5C 355.445,435.824 351.445,435.491 347.5,434.5C 346.567,430.571 346.234,426.571 346.5,422.5C 342.167,422.5 337.833,422.5 333.5,422.5C 333.5,426.833 333.5,431.167 333.5,435.5C 329.167,435.5 324.833,435.5 320.5,435.5C 320.5,439.833 320.5,444.167 320.5,448.5C 316.167,448.5 311.833,448.5 307.5,448.5C 307.073,452.824 306.739,457.158 306.5,461.5C 302.481,461.646 298.481,461.979 294.5,462.5C 294.5,465.833 294.5,469.167 294.5,472.5C 277.833,472.5 261.167,472.5 244.5,472.5C 244.5,472.167 244.5,471.833 244.5,471.5C 290.5,444.833 336.5,418.167 382.5,391.5C 392.517,385.805 402.517,380.139 412.5,374.5 Z"/></g>
<g><path style="opacity:1" fill="#f8f8f8" d="M 359.5,472.5 C 337.833,472.5 316.167,472.5 294.5,472.5C 294.5,469.167 294.5,465.833 294.5,462.5C 298.481,461.979 302.481,461.646 306.5,461.5C 306.739,457.158 307.073,452.824 307.5,448.5C 311.833,448.5 316.167,448.5 320.5,448.5C 320.5,444.167 320.5,439.833 320.5,435.5C 324.833,435.5 329.167,435.5 333.5,435.5C 333.5,431.167 333.5,426.833 333.5,422.5C 337.833,422.5 342.167,422.5 346.5,422.5C 346.234,426.571 346.567,430.571 347.5,434.5C 351.445,435.491 355.445,435.824 359.5,435.5C 359.5,439.833 359.5,444.167 359.5,448.5C 364.167,448.5 368.833,448.5 373.5,448.5C 373.8,453.099 373.467,457.599 372.5,462C 368.179,462.499 363.846,462.666 359.5,462.5C 359.5,465.833 359.5,469.167 359.5,472.5 Z"/></g>
</svg>
