<?xml version="1.0" encoding="UTF-8"?>
<!DOCTYPE svg PUBLIC "-//W3C//DTD SVG 1.1//EN" "http://www.w3.org/Graphics/SVG/1.1/DTD/svg11.dtd">
<svg xmlns="http://www.w3.org/2000/svg" version="1.1" width="633px" height="612px" style="shape-rendering:geometricPrecision; text-rendering:geometricPrecision; image-rendering:optimizeQuality; fill-rule:evenodd; clip-rule:evenodd" xmlns:xlink="http://www.w3.org/1999/xlink">
<g><path style="opacity:1" fill="#e0d7d5" d="M 292.5,-0.5 C 294.167,-0.5 295.833,-0.5 297.5,-0.5C 300.104,1.60004 302.604,3.93337 305,6.5C 305.499,12.4908 305.666,18.4908 305.5,24.5C 304.417,24.5394 303.417,24.8728 302.5,25.5C 299.949,24.3958 297.616,23.0625 295.5,21.5C 294.833,20.8333 294.167,20.1667 293.5,19.5C 294.709,13.233 292.376,9.23302 286.5,7.5C 286.5,6.16667 286.5,4.83333 286.5,3.5C 288.272,1.71039 290.272,0.377058 292.5,-0.5 Z"/></g>
<g><path style="opacity:1" fill="#cd8f8e" d="M 293.5,19.5 C 294.167,20.1667 294.833,20.8333 295.5,21.5C 286.167,21.5 276.833,21.5 267.5,21.5C 275.769,19.5302 284.435,18.8636 293.5,19.5 Z"/></g>
<g><path style="opacity:0.993" fill="#ece8e7" d="M 283.5,10.5 C 284.117,10.6107 284.617,10.944 285,11.5C 285.495,13.4727 285.662,15.4727 285.5,17.5C 273.009,17.7369 260.676,19.2369 248.5,22C 247.183,23.7672 245.516,25.1005 243.5,26C 238.539,27.1385 233.873,28.9718 229.5,31.5C 225.488,31.3782 222.321,29.7116 220,26.5C 219.667,26.8333 219.333,27.1667 219,27.5C 218.517,26.552 218.351,25.552 218.5,24.5C 238.464,12.0936 260.13,7.4269 283.5,10.5 Z"/></g>
<g><path style="opacity:1" fill="#ca4748" d="M 227.5,37.5 C 227.5,38.8333 227.5,40.1667 227.5,41.5C 226.167,41.5 224.833,41.5 223.5,41.5C 223.5,42.8333 223.5,44.1667 223.5,45.5C 227.099,46.5642 230.099,48.7309 232.5,52C 234.762,52.6419 236.929,53.4752 239,54.5C 239.414,54.0426 239.914,53.7093 240.5,53.5C 243.828,56.1667 247.494,58.3334 251.5,60C 251.034,61.2988 251.034,62.7988 251.5,64.5C 253.308,64.4914 254.975,64.9914 256.5,66C 256.167,66.3333 255.833,66.6667 255.5,67C 258.982,68.2436 261.982,70.2436 264.5,73C 270.729,74.4526 276.396,76.9526 281.5,80.5C 285.892,82.7161 289.892,85.5495 293.5,89C 296.618,90.7275 299.951,91.5608 303.5,91.5C 303.5,92.8333 303.5,94.1667 303.5,95.5C 309.345,98.3444 315.345,101.011 321.5,103.5C 324.739,106.087 328.072,108.587 331.5,111C 335.752,111.46 339.085,113.46 341.5,117C 344.607,118.691 347.941,119.858 351.5,120.5C 355.482,125.164 360.482,128.331 366.5,130C 373.981,135.421 382.314,140.255 391.5,144.5C 392.853,145.685 394.02,147.019 395,148.5C 396.507,147.465 398.007,147.632 399.5,149C 408.012,154.087 416.346,159.421 424.5,165C 431.913,169.307 439.579,173.14 447.5,176.5C 451.631,181.642 456.964,183.975 463.5,183.5C 463.238,184.978 463.571,186.311 464.5,187.5C 465.833,188.5 467.167,189.5 468.5,190.5C 473.574,191.331 478.574,192.331 483.5,193.5C 483.497,198.815 486.164,200.815 491.5,199.5C 487.861,202.781 483.861,205.781 479.5,208.5C 468.672,219 458.005,229.334 447.5,239.5C 447.792,237.043 447.792,234.376 447.5,231.5C 448.833,231.5 450.167,231.5 451.5,231.5C 451.521,228.465 452.854,226.132 455.5,224.5C 448.087,221.96 441.42,218.127 435.5,213C 429.445,211.278 424.112,208.278 419.5,204C 392.356,189.812 366.023,174.478 340.5,158C 332.167,153.667 323.833,149.333 315.5,145C 274.657,120.437 233.657,96.437 192.5,73C 190.937,72.2411 189.937,71.0744 189.5,69.5C 189.649,65.6782 191.649,63.3449 195.5,62.5C 199.5,58.5 203.5,54.5 207.5,50.5C 213.892,45.6442 220.559,41.3108 227.5,37.5 Z"/></g>
<g><path style="opacity:0.997" fill="#d1ccca" d="M 286.5,3.5 C 286.5,4.83333 286.5,6.16667 286.5,7.5C 292.376,9.23302 294.709,13.233 293.5,19.5C 284.435,18.8636 275.769,19.5302 267.5,21.5C 264.302,20.9644 261.635,21.631 259.5,23.5C 255.594,24.6098 251.594,25.4431 247.5,26C 240.545,29.6345 233.878,33.4678 227.5,37.5C 220.559,41.3108 213.892,45.6442 207.5,50.5C 203.5,54.5 199.5,58.5 195.5,62.5C 191.649,63.3449 189.649,65.6782 189.5,69.5C 180.585,75.7374 173.919,83.7374 169.5,93.5C 167.469,94.5387 166.136,96.2054 165.5,98.5C 162.446,96.1295 159.113,94.1295 155.5,92.5C 154.478,92.8555 153.811,93.5222 153.5,94.5C 150.399,92.355 149.899,89.6884 152,86.5C 170.214,61.4478 192.381,40.7812 218.5,24.5C 218.351,25.552 218.517,26.552 219,27.5C 219.333,27.1667 219.667,26.8333 220,26.5C 222.321,29.7116 225.488,31.3782 229.5,31.5C 233.873,28.9718 238.539,27.1385 243.5,26C 245.516,25.1005 247.183,23.7672 248.5,22C 260.676,19.2369 273.009,17.7369 285.5,17.5C 285.662,15.4727 285.495,13.4727 285,11.5C 284.617,10.944 284.117,10.6107 283.5,10.5C 282.908,7.36947 283.908,5.03614 286.5,3.5 Z"/></g>
<g><path style="opacity:1" fill="#da4a49" d="M 259.5,23.5 C 260.873,23.3433 262.207,23.51 263.5,24C 262.833,24.3333 262.167,24.6667 261.5,25C 268.707,27.2701 275.373,30.6034 281.5,35C 283.167,35.3333 284.833,35.6667 286.5,36C 287.255,38.1331 288.588,39.7998 290.5,41C 296.003,42.5792 300.67,45.4125 304.5,49.5C 313.337,54.0845 322.337,58.4178 331.5,62.5C 335.035,66.3104 339.368,68.8104 344.5,70C 356.919,78.5416 369.919,86.0416 383.5,92.5C 383.5,93.5 383.5,94.5 383.5,95.5C 385.591,95.3184 387.591,95.6518 389.5,96.5C 398.701,102.868 408.035,109.035 417.5,115C 418.833,115.333 420.167,115.667 421.5,116C 430.447,121.644 439.447,127.144 448.5,132.5C 454.877,134.996 460.544,138.496 465.5,143C 473.056,145.11 479.723,148.777 485.5,154C 493.432,157.3 500.765,161.633 507.5,167C 512.583,169.229 517.583,171.729 522.5,174.5C 523.386,175.325 523.719,176.325 523.5,177.5C 526.327,177.584 528.994,178.25 531.5,179.5C 528.098,182.359 524.098,183.859 519.5,184C 509.736,188.382 500.402,193.549 491.5,199.5C 486.164,200.815 483.497,198.815 483.5,193.5C 478.574,192.331 473.574,191.331 468.5,190.5C 467.167,189.5 465.833,188.5 464.5,187.5C 463.571,186.311 463.238,184.978 463.5,183.5C 456.964,183.975 451.631,181.642 447.5,176.5C 439.579,173.14 431.913,169.307 424.5,165C 416.346,159.421 408.012,154.087 399.5,149C 398.007,147.632 396.507,147.465 395,148.5C 394.02,147.019 392.853,145.685 391.5,144.5C 382.314,140.255 373.981,135.421 366.5,130C 360.482,128.331 355.482,125.164 351.5,120.5C 347.941,119.858 344.607,118.691 341.5,117C 339.085,113.46 335.752,111.46 331.5,111C 328.072,108.587 324.739,106.087 321.5,103.5C 315.345,101.011 309.345,98.3444 303.5,95.5C 303.5,94.1667 303.5,92.8333 303.5,91.5C 299.951,91.5608 296.618,90.7275 293.5,89C 289.892,85.5495 285.892,82.7161 281.5,80.5C 276.396,76.9526 270.729,74.4526 264.5,73C 261.982,70.2436 258.982,68.2436 255.5,67C 255.833,66.6667 256.167,66.3333 256.5,66C 254.975,64.9914 253.308,64.4914 251.5,64.5C 251.034,62.7988 251.034,61.2988 251.5,60C 247.494,58.3334 243.828,56.1667 240.5,53.5C 239.914,53.7093 239.414,54.0426 239,54.5C 236.929,53.4752 234.762,52.6419 232.5,52C 230.099,48.7309 227.099,46.5642 223.5,45.5C 223.5,44.1667 223.5,42.8333 223.5,41.5C 224.833,41.5 226.167,41.5 227.5,41.5C 227.5,40.1667 227.5,38.8333 227.5,37.5C 233.878,33.4678 240.545,29.6345 247.5,26C 251.594,25.4431 255.594,24.6098 259.5,23.5 Z"/></g>
<g><path style="opacity:1" fill="#ef5959" d="M 267.5,21.5 C 276.833,21.5 286.167,21.5 295.5,21.5C 297.616,23.0625 299.949,24.3958 302.5,25.5C 303.417,24.8728 304.417,24.5394 305.5,24.5C 385.067,71.1131 464.734,117.446 544.5,163.5C 549.594,168.222 555.261,172.222 561.5,175.5C 554.324,176.989 546.991,178.322 539.5,179.5C 536.833,179.5 534.167,179.5 531.5,179.5C 528.994,178.25 526.327,177.584 523.5,177.5C 523.719,176.325 523.386,175.325 522.5,174.5C 517.583,171.729 512.583,169.229 507.5,167C 500.765,161.633 493.432,157.3 485.5,154C 479.723,148.777 473.056,145.11 465.5,143C 460.544,138.496 454.877,134.996 448.5,132.5C 439.447,127.144 430.447,121.644 421.5,116C 420.167,115.667 418.833,115.333 417.5,115C 408.035,109.035 398.701,102.868 389.5,96.5C 387.591,95.6518 385.591,95.3184 383.5,95.5C 383.5,94.5 383.5,93.5 383.5,92.5C 369.919,86.0416 356.919,78.5416 344.5,70C 339.368,68.8104 335.035,66.3104 331.5,62.5C 322.337,58.4178 313.337,54.0845 304.5,49.5C 300.67,45.4125 296.003,42.5792 290.5,41C 288.588,39.7998 287.255,38.1331 286.5,36C 284.833,35.6667 283.167,35.3333 281.5,35C 275.373,30.6034 268.707,27.2701 261.5,25C 262.167,24.6667 262.833,24.3333 263.5,24C 262.207,23.51 260.873,23.3433 259.5,23.5C 261.635,21.631 264.302,20.9644 267.5,21.5 Z"/></g>
<g><path style="opacity:1" fill="#e7dddb" d="M 169.5,93.5 C 246.896,137.368 323.896,182.035 400.5,227.5C 413.587,233.85 425.921,241.183 437.5,249.5C 440.001,252.171 439.334,254.171 435.5,255.5C 386.8,227.697 338.133,199.697 289.5,171.5C 273.731,161.959 257.731,152.459 241.5,143C 233.405,139.894 226.072,135.561 219.5,130C 215.983,128.076 212.316,126.409 208.5,125C 194.292,115.582 179.959,106.749 165.5,98.5C 166.136,96.2054 167.469,94.5387 169.5,93.5 Z"/></g>
<g><path style="opacity:0.271" fill="#bca9a8" d="M 165.5,98.5 C 179.959,106.749 194.292,115.582 208.5,125C 212.316,126.409 215.983,128.076 219.5,130C 226.072,135.561 233.405,139.894 241.5,143C 257.731,152.459 273.731,161.959 289.5,171.5C 287.5,172.167 285.5,172.833 283.5,173.5C 243.025,149.426 202.359,125.593 161.5,102C 158.334,99.9999 155.668,97.4999 153.5,94.5C 153.811,93.5222 154.478,92.8555 155.5,92.5C 159.113,94.1295 162.446,96.1295 165.5,98.5 Z"/></g>
<g><path style="opacity:0.875" fill="#d4cdcc" d="M 568.5,176.5 C 565.979,177.75 563.646,177.417 561.5,175.5C 555.261,172.222 549.594,168.222 544.5,163.5C 547.17,158.185 551.503,154.518 557.5,152.5C 561.538,153.601 565.038,155.601 568,158.5C 568.499,164.491 568.666,170.491 568.5,176.5 Z"/></g>
<g><path style="opacity:1" fill="#c24242" d="M 189.5,69.5 C 189.937,71.0744 190.937,72.2411 192.5,73C 233.657,96.437 274.657,120.437 315.5,145C 323.833,149.333 332.167,153.667 340.5,158C 366.023,174.478 392.356,189.812 419.5,204C 424.112,208.278 429.445,211.278 435.5,213C 441.42,218.127 448.087,221.96 455.5,224.5C 452.854,226.132 451.521,228.465 451.5,231.5C 450.167,231.5 448.833,231.5 447.5,231.5C 447.792,234.376 447.792,237.043 447.5,239.5C 446.188,241.806 444.855,244.139 443.5,246.5C 442.012,248.577 440.012,249.577 437.5,249.5C 425.921,241.183 413.587,233.85 400.5,227.5C 323.896,182.035 246.896,137.368 169.5,93.5C 173.919,83.7374 180.585,75.7374 189.5,69.5 Z"/></g>
<g><path style="opacity:1" fill="#dc9b9b" d="M 561.5,175.5 C 563.646,177.417 565.979,177.75 568.5,176.5C 569.167,177.167 569.833,177.833 570.5,178.5C 560.218,179.452 549.885,179.786 539.5,179.5C 546.991,178.322 554.324,176.989 561.5,175.5 Z"/></g>
<g><path style="opacity:0.999" fill="#c2c1c0" d="M 578.5,183.5 C 579.947,184.134 580.613,185.301 580.5,187C 579.491,192.352 577.158,197.018 573.5,201C 571.618,201.198 569.952,201.698 568.5,202.5C 566.896,201.713 566.229,200.38 566.5,198.5C 563.5,198.5 560.5,198.5 557.5,198.5C 558.164,276.174 557.497,353.507 555.5,430.5C 554.508,430.672 553.842,430.338 553.5,429.5C 554.5,429.5 555.5,429.5 556.5,429.5C 556.5,352.167 556.5,274.833 556.5,197.5C 551.481,197.752 546.481,198.252 541.5,199C 543.653,199.099 545.319,199.933 546.5,201.5C 531.608,203.964 517.941,209.464 505.5,218C 500.47,221.842 495.47,225.675 490.5,229.5C 486.57,230.467 483.236,232.467 480.5,235.5C 479.571,236.689 479.238,238.022 479.5,239.5C 478.167,239.5 476.833,239.5 475.5,239.5C 475.771,241.38 475.104,242.713 473.5,243.5C 470.233,246.672 468.566,250.672 468.5,255.5C 467.575,256.641 466.741,256.641 466,255.5C 465.333,288.167 465.333,320.833 466,353.5C 473.648,356.096 473.148,357.429 464.5,357.5C 464.5,323.5 464.5,289.5 464.5,255.5C 460.275,257.234 457.609,260.401 456.5,265C 457.809,284.65 457.809,304.15 456.5,323.5C 456.167,323.5 455.833,323.5 455.5,323.5C 455.5,305.5 455.5,287.5 455.5,269.5C 453.396,269.799 451.396,269.466 449.5,268.5C 447.359,266.796 445.359,265.13 443.5,263.5C 443.5,262.833 443.5,262.167 443.5,261.5C 444.978,261.762 446.311,261.429 447.5,260.5C 460.574,243.922 474.908,228.422 490.5,214C 494.367,211.302 498.367,208.802 502.5,206.5C 503.167,205.5 503.833,204.5 504.5,203.5C 512.768,198.697 521.101,194.197 529.5,190C 539.122,188.076 548.789,186.409 558.5,185C 563.695,184.297 568.861,184.464 574,185.5C 575.607,184.926 577.107,184.26 578.5,183.5 Z M 546.5,201.5 C 546.5,221.5 546.5,241.5 546.5,261.5C 527.436,251.308 508.769,240.641 490.5,229.5C 495.47,225.675 500.47,221.842 505.5,218C 517.941,209.464 531.608,203.964 546.5,201.5 Z"/></g>
<g><path style="opacity:1" fill="#d3cfce" d="M 570.5,178.5 C 573.54,179.68 576.206,181.347 578.5,183.5C 577.107,184.26 575.607,184.926 574,185.5C 568.861,184.464 563.695,184.297 558.5,185C 548.789,186.409 539.122,188.076 529.5,190C 521.101,194.197 512.768,198.697 504.5,203.5C 503.833,204.5 503.167,205.5 502.5,206.5C 498.367,208.802 494.367,211.302 490.5,214C 474.908,228.422 460.574,243.922 447.5,260.5C 446.311,261.429 444.978,261.762 443.5,261.5C 441.641,260.406 439.641,259.573 437.5,259C 436.177,258.184 435.511,257.017 435.5,255.5C 439.334,254.171 440.001,252.171 437.5,249.5C 440.012,249.577 442.012,248.577 443.5,246.5C 444.855,244.139 446.188,241.806 447.5,239.5C 458.005,229.334 468.672,219 479.5,208.5C 483.861,205.781 487.861,202.781 491.5,199.5C 500.402,193.549 509.736,188.382 519.5,184C 524.098,183.859 528.098,182.359 531.5,179.5C 534.167,179.5 536.833,179.5 539.5,179.5C 549.885,179.786 560.218,179.452 570.5,178.5 Z"/></g>
<g><path style="opacity:1" fill="#d2d1d0" d="M 381.5,229.5 C 379.514,246.468 378.847,263.801 379.5,281.5C 380.447,290.78 380.78,300.114 380.5,309.5C 378.092,308.799 375.758,307.799 373.5,306.5C 372.388,305.735 371.721,304.735 371.5,303.5C 371.5,276.833 371.5,250.167 371.5,223.5C 374.628,225.987 377.962,227.987 381.5,229.5 Z"/></g>
<g><path style="opacity:1" fill="#b4b3b2" d="M 289.5,171.5 C 338.133,199.697 386.8,227.697 435.5,255.5C 435.511,257.017 436.177,258.184 437.5,259C 439.641,259.573 441.641,260.406 443.5,261.5C 443.5,262.167 443.5,262.833 443.5,263.5C 439.666,262.456 435.999,260.956 432.5,259C 431.663,257.989 431.33,256.822 431.5,255.5C 426.962,254.563 422.628,253.063 418.5,251C 414.638,246.975 409.972,244.141 404.5,242.5C 403.614,241.675 403.281,240.675 403.5,239.5C 400.657,239.083 397.99,238.083 395.5,236.5C 391.996,234.582 388.663,232.416 385.5,230C 384.207,229.51 382.873,229.343 381.5,229.5C 377.962,227.987 374.628,225.987 371.5,223.5C 371.5,250.167 371.5,276.833 371.5,303.5C 368.194,303.181 365.527,301.847 363.5,299.5C 363.5,289.5 363.5,279.5 363.5,269.5C 363.833,252.154 363.5,234.821 362.5,217.5C 352.248,210.751 341.581,204.584 330.5,199C 322.171,192.876 313.171,187.709 303.5,183.5C 301.135,181.473 298.469,179.807 295.5,178.5C 294.176,204.536 294.176,230.536 295.5,256.5C 294.358,259.399 293.692,262.399 293.5,265.5C 291.641,267.13 289.641,268.796 287.5,270.5C 286.311,271.429 284.978,271.762 283.5,271.5C 286.105,263.54 286.105,255.54 283.5,247.5C 283.5,222.833 283.5,198.167 283.5,173.5C 285.5,172.833 287.5,172.167 289.5,171.5 Z"/></g>
<g><path style="opacity:1" fill="#b4e2f1" d="M 303.5,183.5 C 313.171,187.709 322.171,192.876 330.5,199C 341.581,204.584 352.248,210.751 362.5,217.5C 363.5,234.821 363.833,252.154 363.5,269.5C 360.833,268.833 358.167,268.167 355.5,267.5C 355.5,266.167 355.5,264.833 355.5,263.5C 352.753,263.813 350.086,263.48 347.5,262.5C 339.085,255.957 329.752,250.957 319.5,247.5C 319.5,246.167 319.5,244.833 319.5,243.5C 317.396,243.799 315.396,243.466 313.5,242.5C 310.44,240.259 307.106,238.593 303.5,237.5C 303.5,219.5 303.5,201.5 303.5,183.5 Z"/></g>
<g><path style="opacity:1" fill="#d3d3d2" d="M 303.5,183.5 C 303.5,201.5 303.5,219.5 303.5,237.5C 303.5,246.833 303.5,256.167 303.5,265.5C 301.971,264.653 300.304,263.986 298.5,263.5C 296.696,263.986 295.029,264.653 293.5,265.5C 293.692,262.399 294.358,259.399 295.5,256.5C 294.176,230.536 294.176,204.536 295.5,178.5C 298.469,179.807 301.135,181.473 303.5,183.5 Z"/></g>
<g><path style="opacity:1" fill="#b5e2f1" d="M 381.5,229.5 C 382.873,229.343 384.207,229.51 385.5,230C 388.663,232.416 391.996,234.582 395.5,236.5C 397.99,238.083 400.657,239.083 403.5,239.5C 403.281,240.675 403.614,241.675 404.5,242.5C 409.972,244.141 414.638,246.975 418.5,251C 422.628,253.063 426.962,254.563 431.5,255.5C 431.33,256.822 431.663,257.989 432.5,259C 435.999,260.956 439.666,262.456 443.5,263.5C 445.359,265.13 447.359,266.796 449.5,268.5C 451.396,269.466 453.396,269.799 455.5,269.5C 455.5,287.5 455.5,305.5 455.5,323.5C 451.386,321.28 447.053,319.28 442.5,317.5C 436.658,313.076 430.324,309.409 423.5,306.5C 417.441,301.471 410.774,297.471 403.5,294.5C 395.748,290.209 388.248,285.542 381,280.5C 380.617,281.056 380.117,281.389 379.5,281.5C 378.847,263.801 379.514,246.468 381.5,229.5 Z"/></g>
<g><path style="opacity:0.999" fill="#b4e2f1" d="M 490.5,229.5 C 508.769,240.641 527.436,251.308 546.5,261.5C 545.491,262.939 545.824,264.272 547.5,265.5C 548.5,302.161 548.833,338.827 548.5,375.5C 543.771,374.308 539.104,372.808 534.5,371C 526.043,364.775 517.043,359.608 507.5,355.5C 507.5,354.167 507.5,352.833 507.5,351.5C 506.127,351.657 504.793,351.49 503.5,351C 495.082,346.726 487.082,341.892 479.5,336.5C 477.604,335.534 475.604,335.201 473.5,335.5C 473.5,304.833 473.5,274.167 473.5,243.5C 475.104,242.713 475.771,241.38 475.5,239.5C 476.833,239.5 478.167,239.5 479.5,239.5C 479.238,238.022 479.571,236.689 480.5,235.5C 483.236,232.467 486.57,230.467 490.5,229.5 Z"/></g>
<g><path style="opacity:1" fill="#e8edec" d="M 303.5,237.5 C 307.106,238.593 310.44,240.259 313.5,242.5C 315.396,243.466 317.396,243.799 319.5,243.5C 319.5,244.833 319.5,246.167 319.5,247.5C 329.752,250.957 339.085,255.957 347.5,262.5C 350.086,263.48 352.753,263.813 355.5,263.5C 355.5,264.833 355.5,266.167 355.5,267.5C 358.167,268.167 360.833,268.833 363.5,269.5C 363.5,279.5 363.5,289.5 363.5,299.5C 362.022,299.762 360.689,299.429 359.5,298.5C 347.161,290.662 334.494,283.328 321.5,276.5C 320.167,275.167 318.833,273.833 317.5,272.5C 312.152,271.16 307.485,268.826 303.5,265.5C 303.5,256.167 303.5,246.833 303.5,237.5 Z"/></g>
<g><path style="opacity:1" fill="#e6ede9" d="M 283.5,247.5 C 286.105,255.54 286.105,263.54 283.5,271.5C 275.46,276.231 267.46,280.898 259.5,285.5C 254.611,283.875 249.944,281.875 245.5,279.5C 243.505,276.837 241.505,274.171 239.5,271.5C 254.097,263.532 268.763,255.532 283.5,247.5 Z"/></g>
<g><path style="opacity:1" fill="#41a044" d="M 63.5,275.5 C 65.5273,275.338 67.5273,275.505 69.5,276C 75.0103,280.168 81.0103,283.502 87.5,286C 88.8333,287.333 90.1667,288.667 91.5,290C 95.7193,291.109 99.7193,292.775 103.5,295C 105.037,296.11 105.703,297.61 105.5,299.5C 96.9396,295.22 88.2729,290.886 79.5,286.5C 75.1591,283.328 70.4924,280.661 65.5,278.5C 64.3881,277.735 63.7214,276.735 63.5,275.5 Z"/></g>
<g><path style="opacity:1" fill="#fbd552" d="M 303.5,265.5 C 307.485,268.826 312.152,271.16 317.5,272.5C 318.833,273.833 320.167,275.167 321.5,276.5C 334.494,283.328 347.161,290.662 359.5,298.5C 360.689,299.429 362.022,299.762 363.5,299.5C 365.527,301.847 368.194,303.181 371.5,303.5C 371.721,304.735 372.388,305.735 373.5,306.5C 375.758,307.799 378.092,308.799 380.5,309.5C 382.119,311.119 383.785,312.785 385.5,314.5C 401.158,322.66 416.491,331.327 431.5,340.5C 437.973,344.072 444.64,347.072 451.5,349.5C 451.5,350.833 451.5,352.167 451.5,353.5C 452.833,353.5 454.167,353.5 455.5,353.5C 458.167,354.833 460.833,356.167 463.5,357.5C 465.359,359.13 467.359,360.796 469.5,362.5C 470.689,363.429 472.022,363.762 473.5,363.5C 479.082,367.97 485.082,371.97 491.5,375.5C 491.67,376.822 491.337,377.989 490.5,379C 491.784,379.684 492.951,379.517 494,378.5C 494.483,379.448 494.649,380.448 494.5,381.5C 482.251,387.629 470.584,394.796 459.5,403C 458.167,403.167 456.833,403.333 455.5,403.5C 450.953,402.557 446.62,401.057 442.5,399C 437.262,394.883 431.596,391.55 425.5,389C 423.33,387.202 421.33,385.369 419.5,383.5C 418.729,379.721 416.729,376.721 413.5,374.5C 377.5,353.833 341.5,333.167 305.5,312.5C 304.167,311.167 302.833,309.833 301.5,308.5C 296.601,307.051 291.935,305.051 287.5,302.5C 277.824,297.107 268.491,291.44 259.5,285.5C 267.46,280.898 275.46,276.231 283.5,271.5C 284.978,271.762 286.311,271.429 287.5,270.5C 289.641,268.796 291.641,267.13 293.5,265.5C 295.029,264.653 296.696,263.986 298.5,263.5C 300.304,263.986 301.971,264.653 303.5,265.5 Z"/></g>
<g><path style="opacity:1" fill="#b1b0ae" d="M 464.5,357.5 C 464.167,357.5 463.833,357.5 463.5,357.5C 460.833,356.167 458.167,354.833 455.5,353.5C 456.474,343.582 456.807,333.582 456.5,323.5C 457.809,304.15 457.809,284.65 456.5,265C 457.609,260.401 460.275,257.234 464.5,255.5C 464.5,289.5 464.5,323.5 464.5,357.5 Z"/></g>
<g><path style="opacity:1" fill="#e8edec" d="M 455.5,323.5 C 455.833,323.5 456.167,323.5 456.5,323.5C 456.807,333.582 456.474,343.582 455.5,353.5C 454.167,353.5 452.833,353.5 451.5,353.5C 451.5,352.167 451.5,350.833 451.5,349.5C 444.64,347.072 437.973,344.072 431.5,340.5C 416.491,331.327 401.158,322.66 385.5,314.5C 383.785,312.785 382.119,311.119 380.5,309.5C 380.78,300.114 380.447,290.78 379.5,281.5C 380.117,281.389 380.617,281.056 381,280.5C 388.248,285.542 395.748,290.209 403.5,294.5C 410.774,297.471 417.441,301.471 423.5,306.5C 430.324,309.409 436.658,313.076 442.5,317.5C 447.053,319.28 451.386,321.28 455.5,323.5 Z"/></g>
<g><path style="opacity:1" fill="#7fd36f" d="M 239.5,271.5 C 241.505,274.171 243.505,276.837 245.5,279.5C 249.944,281.875 254.611,283.875 259.5,285.5C 268.491,291.44 277.824,297.107 287.5,302.5C 291.935,305.051 296.601,307.051 301.5,308.5C 302.833,309.833 304.167,311.167 305.5,312.5C 341.5,333.167 377.5,353.833 413.5,374.5C 416.729,376.721 418.729,379.721 419.5,383.5C 418.127,383.343 416.793,383.51 415.5,384C 389.293,400.271 362.626,415.771 335.5,430.5C 334.167,430.5 332.833,430.5 331.5,430.5C 331.321,428.394 330.321,426.728 328.5,425.5C 313.194,417.18 298.194,408.347 283.5,399C 279.101,396.563 274.434,394.73 269.5,393.5C 267.611,391.568 265.611,389.735 263.5,388C 221.298,363.4 178.965,339.067 136.5,315C 135.663,313.989 135.33,312.822 135.5,311.5C 126.668,309.495 118.668,305.662 111.5,300C 109.527,299.505 107.527,299.338 105.5,299.5C 105.703,297.61 105.037,296.11 103.5,295C 99.7193,292.775 95.7193,291.109 91.5,290C 90.1667,288.667 88.8333,287.333 87.5,286C 81.0103,283.502 75.0103,280.168 69.5,276C 67.5273,275.505 65.5273,275.338 63.5,275.5C 62.8333,275.5 62.1667,275.5 61.5,275.5C 61.5,273.833 61.5,272.167 61.5,270.5C 57.6953,269.426 54.0286,268.092 50.5,266.5C 79.2357,249.959 107.902,233.125 136.5,216C 140.909,215.195 144.909,216.195 148.5,219C 178.239,237.536 208.573,255.036 239.5,271.5 Z"/></g>
<g><path style="opacity:1" fill="#3eb442" d="M 243.5,285.5 C 244.957,290.13 247.457,294.13 251,297.5C 251.743,299.441 251.576,301.274 250.5,303C 244.033,305.063 238.367,308.397 233.5,313C 230.639,313.54 227.972,314.54 225.5,316C 224.643,316.689 223.977,317.522 223.5,318.5C 213.561,322.91 204.228,328.243 195.5,334.5C 194.042,335.782 192.708,335.782 191.5,334.5C 191.579,333.07 191.246,331.736 190.5,330.5C 186.648,325.456 183.315,320.123 180.5,314.5C 199.75,304.205 218.75,293.372 237.5,282C 238.944,281.219 240.277,281.386 241.5,282.5C 241.942,283.739 242.609,284.739 243.5,285.5 Z"/></g>
<g><path style="opacity:1" fill="#319c2f" d="M 95.5,265.5 C 123.789,282.137 152.123,298.47 180.5,314.5C 183.315,320.123 186.648,325.456 190.5,330.5C 191.246,331.736 191.579,333.07 191.5,334.5C 156.415,314.328 121.082,294.161 85.5,274C 84.1667,272.667 84.1667,271.333 85.5,270C 89.004,268.746 92.3374,267.246 95.5,265.5 Z"/></g>
<g><path style="opacity:1" fill="#6cc95f" d="M 245.5,279.5 C 244.28,281.282 243.614,283.282 243.5,285.5C 242.609,284.739 241.942,283.739 241.5,282.5C 240.277,281.386 238.944,281.219 237.5,282C 218.75,293.372 199.75,304.205 180.5,314.5C 152.123,298.47 123.789,282.137 95.5,265.5C 108.718,255.465 123.051,247.299 138.5,241C 139.167,240 139.833,239 140.5,238C 145.695,236.323 150.695,234.156 155.5,231.5C 159.276,233.241 162.609,235.741 165.5,239C 170.527,238.86 174.194,241.027 176.5,245.5C 180.44,243.764 182.107,245.097 181.5,249.5C 184.599,249.092 186.933,250.259 188.5,253C 195.453,256.164 202.453,258.997 209.5,261.5C 209.5,262.833 209.5,264.167 209.5,265.5C 211.604,265.201 213.604,265.534 215.5,266.5C 218.638,268.144 221.638,269.977 224.5,272C 223.663,273.011 223.33,274.178 223.5,275.5C 224.873,275.343 226.207,275.51 227.5,276C 226.294,277.018 226.627,277.518 228.5,277.5C 230.577,276.063 232.91,275.396 235.5,275.5C 237.188,280.396 240.522,281.729 245.5,279.5 Z"/></g>
<g><path style="opacity:1" fill="#43a942" d="M 50.5,266.5 C 54.0286,268.092 57.6953,269.426 61.5,270.5C 61.5,272.167 61.5,273.833 61.5,275.5C 59.5355,274.218 57.5355,272.885 55.5,271.5C 54.3279,271.919 53.3279,272.585 52.5,273.5C 47.2448,286.363 45.2448,299.696 46.5,313.5C 51.0026,317.255 56.0026,320.255 61.5,322.5C 62.6119,323.265 63.2786,324.265 63.5,325.5C 60.7406,324.115 57.7406,323.448 54.5,323.5C 52.8333,323.833 51.1667,324.167 49.5,324.5C 50.1667,325.167 50.8333,325.833 51.5,326.5C 46.9981,331.02 47.6647,333.02 53.5,332.5C 51.7475,339.632 50.9142,346.966 51,354.5C 49.2435,355.985 48.0768,355.652 47.5,353.5C 47.5,352.833 47.5,352.167 47.5,351.5C 48.8117,349.257 49.4783,346.59 49.5,343.5C 49.4783,340.41 48.8117,337.743 47.5,335.5C 47.8432,333.517 47.1765,332.183 45.5,331.5C 43.7211,329.656 41.3878,328.99 38.5,329.5C 38.0651,311.582 39.8984,293.916 44,276.5C 45.9417,272.931 48.1084,269.598 50.5,266.5 Z"/></g>
<g><path style="opacity:1" fill="#44a545" d="M 105.5,299.5 C 107.527,299.338 109.527,299.505 111.5,300C 118.668,305.662 126.668,309.495 135.5,311.5C 135.33,312.822 135.663,313.989 136.5,315C 178.965,339.067 221.298,363.4 263.5,388C 265.611,389.735 267.611,391.568 269.5,393.5C 274.434,394.73 279.101,396.563 283.5,399C 298.194,408.347 313.194,417.18 328.5,425.5C 330.321,426.728 331.321,428.394 331.5,430.5C 332.833,430.5 334.167,430.5 335.5,430.5C 334.726,431.147 333.726,431.48 332.5,431.5C 330.051,430.775 327.717,429.775 325.5,428.5C 314.331,421.75 303.331,414.75 292.5,407.5C 289.616,406.184 286.616,405.184 283.5,404.5C 282.167,403.167 280.833,401.833 279.5,400.5C 249.023,384.03 219.023,366.697 189.5,348.5C 183.736,345.284 177.736,342.617 171.5,340.5C 170.167,339.167 168.833,337.833 167.5,336.5C 155.477,329.795 143.477,323.128 131.5,316.5C 122.703,310.786 114.037,305.119 105.5,299.5 Z"/></g>
<g><path style="opacity:1" fill="#3db342" d="M 63.5,325.5 C 67.6864,326.589 71.6864,328.256 75.5,330.5C 118.511,356.521 162.177,381.854 206.5,406.5C 207.386,407.325 207.719,408.325 207.5,409.5C 213.024,411.259 218.358,413.592 223.5,416.5C 237.165,425.668 251.165,434.335 265.5,442.5C 268.675,444.091 272.009,445.091 275.5,445.5C 275.5,446.833 275.5,448.167 275.5,449.5C 277.604,449.201 279.604,449.534 281.5,450.5C 288.908,456.203 296.908,460.87 305.5,464.5C 308.737,469.972 311.737,475.638 314.5,481.5C 315.444,491.659 319.777,499.992 327.5,506.5C 335.814,511.828 343.814,517.495 351.5,523.5C 351.936,527.911 351.936,532.244 351.5,536.5C 352.167,537.167 352.833,537.833 353.5,538.5C 350.833,540.5 350.833,542.5 353.5,544.5C 351.827,546.523 351.16,548.856 351.5,551.5C 349.5,551.5 347.5,551.5 345.5,551.5C 342.657,551.083 339.99,550.083 337.5,548.5C 332.167,545.167 326.833,541.833 321.5,538.5C 319.604,537.534 317.604,537.201 315.5,537.5C 315.5,536.833 315.5,536.167 315.5,535.5C 314.345,530.238 313.512,524.904 313,519.5C 307.531,510.712 301.364,502.546 294.5,495C 287.992,491.292 280.992,489.958 273.5,491C 266.467,493.249 263.133,498.082 263.5,505.5C 246.456,495.489 229.123,485.822 211.5,476.5C 202.818,470.155 193.485,464.822 183.5,460.5C 179.18,457.836 175.18,454.836 171.5,451.5C 171.577,450.25 172.244,449.417 173.5,449C 171.36,447.648 169.193,447.148 167,447.5C 165.667,441.5 164.333,435.5 163,429.5C 158.933,423.837 154.766,418.337 150.5,413C 148.167,411.5 145.833,410 143.5,408.5C 138.395,407.905 133.395,406.905 128.5,405.5C 121.893,406.106 117.226,409.439 114.5,415.5C 112.833,410.167 111.167,404.833 109.5,399.5C 104.091,388.039 95.4238,379.873 83.5,375C 73.5711,372.47 66.2378,375.637 61.5,384.5C 59.604,385.466 57.604,385.799 55.5,385.5C 53.2537,385.064 51.0871,384.397 49,383.5C 48.6174,384.056 48.1174,384.389 47.5,384.5C 46.287,381.775 44.4536,379.441 42,377.5C 40.7246,375.283 39.7246,372.949 39,370.5C 38.5006,364.843 38.3339,359.176 38.5,353.5C 40.1667,353.5 41.8333,353.5 43.5,353.5C 44.8333,353.5 46.1667,353.5 47.5,353.5C 48.0768,355.652 49.2435,355.985 51,354.5C 50.9142,346.966 51.7475,339.632 53.5,332.5C 47.6647,333.02 46.9981,331.02 51.5,326.5C 50.8333,325.833 50.1667,325.167 49.5,324.5C 51.1667,324.167 52.8333,323.833 54.5,323.5C 57.7406,323.448 60.7406,324.115 63.5,325.5 Z"/></g>
<g><path style="opacity:1" fill="#d4d3d1" d="M 473.5,243.5 C 473.5,274.167 473.5,304.833 473.5,335.5C 473.5,344.833 473.5,354.167 473.5,363.5C 472.022,363.762 470.689,363.429 469.5,362.5C 467.359,360.796 465.359,359.13 463.5,357.5C 463.833,357.5 464.167,357.5 464.5,357.5C 473.148,357.429 473.648,356.096 466,353.5C 465.333,320.833 465.333,288.167 466,255.5C 466.741,256.641 467.575,256.641 468.5,255.5C 468.566,250.672 470.233,246.672 473.5,243.5 Z"/></g>
<g><path style="opacity:1" fill="#43b444" d="M 331.5,351.5 C 325.567,347.43 319.234,343.93 312.5,341C 308.755,336.135 303.755,334.468 297.5,336C 284.796,343.349 272.129,350.683 259.5,358C 258.748,358.671 258.414,359.504 258.5,360.5C 255.637,358.902 254.97,356.569 256.5,353.5C 269.873,345.147 283.539,337.314 297.5,330C 300.833,329.333 304.167,329.333 307.5,330C 311.591,332.132 315.258,334.799 318.5,338C 322.622,340.454 326.955,342.454 331.5,344C 335.449,346.642 335.449,349.142 331.5,351.5 Z"/></g>
<g><path style="opacity:0.395" fill="#c57861" d="M 38.5,329.5 C 41.3878,328.99 43.7211,329.656 45.5,331.5C 44.1667,331.5 42.8333,331.5 41.5,331.5C 40.988,339.039 41.6547,346.372 43.5,353.5C 41.8333,353.5 40.1667,353.5 38.5,353.5C 38.5,345.5 38.5,337.5 38.5,329.5 Z"/></g>
<g><path style="opacity:1" fill="#ed5c58" d="M 45.5,331.5 C 47.1765,332.183 47.8432,333.517 47.5,335.5C 47.5,340.833 47.5,346.167 47.5,351.5C 47.5,352.167 47.5,352.833 47.5,353.5C 46.1667,353.5 44.8333,353.5 43.5,353.5C 41.6547,346.372 40.988,339.039 41.5,331.5C 42.8333,331.5 44.1667,331.5 45.5,331.5 Z"/></g>
<g><path style="opacity:1" fill="#3f3f3c" d="M 61.5,275.5 C 62.1667,275.5 62.8333,275.5 63.5,275.5C 63.7214,276.735 64.3881,277.735 65.5,278.5C 70.4924,280.661 75.1591,283.328 79.5,286.5C 88.2729,290.886 96.9396,295.22 105.5,299.5C 114.037,305.119 122.703,310.786 131.5,316.5C 143.477,323.128 155.477,329.795 167.5,336.5C 168.833,337.833 170.167,339.167 171.5,340.5C 177.736,342.617 183.736,345.284 189.5,348.5C 219.023,366.697 249.023,384.03 279.5,400.5C 280.833,401.833 282.167,403.167 283.5,404.5C 286.616,405.184 289.616,406.184 292.5,407.5C 303.331,414.75 314.331,421.75 325.5,428.5C 327.717,429.775 330.051,430.775 332.5,431.5C 333.726,431.48 334.726,431.147 335.5,430.5C 362.626,415.771 389.293,400.271 415.5,384C 416.793,383.51 418.127,383.343 419.5,383.5C 422.254,390.118 424.587,396.785 426.5,403.5C 427.536,409.776 429.202,415.776 431.5,421.5C 430.931,425.329 431.598,428.663 433.5,431.5C 433.768,437.99 434.768,444.323 436.5,450.5C 437.371,458.8 437.705,467.133 437.5,475.5C 415.279,488.977 392.613,501.81 369.5,514C 365.317,516.701 361.317,519.534 357.5,522.5C 355.604,523.466 353.604,523.799 351.5,523.5C 343.814,517.495 335.814,511.828 327.5,506.5C 319.777,499.992 315.444,491.659 314.5,481.5C 311.737,475.638 308.737,469.972 305.5,464.5C 296.908,460.87 288.908,456.203 281.5,450.5C 279.604,449.534 277.604,449.201 275.5,449.5C 275.5,448.167 275.5,446.833 275.5,445.5C 272.009,445.091 268.675,444.091 265.5,442.5C 251.165,434.335 237.165,425.668 223.5,416.5C 218.358,413.592 213.024,411.259 207.5,409.5C 207.719,408.325 207.386,407.325 206.5,406.5C 162.177,381.854 118.511,356.521 75.5,330.5C 71.6864,328.256 67.6864,326.589 63.5,325.5C 63.2786,324.265 62.6119,323.265 61.5,322.5C 56.0026,320.255 51.0026,317.255 46.5,313.5C 45.2448,299.696 47.2448,286.363 52.5,273.5C 53.3279,272.585 54.3279,271.919 55.5,271.5C 57.5355,272.885 59.5355,274.218 61.5,275.5 Z"/></g>
<g><path style="opacity:1" fill="#2d9a2d" d="M 331.5,351.5 C 319.729,358.892 307.729,366.059 295.5,373C 287.159,376.413 279.826,374.747 273.5,368C 268.398,365.449 263.398,362.949 258.5,360.5C 258.414,359.504 258.748,358.671 259.5,358C 272.129,350.683 284.796,343.349 297.5,336C 303.755,334.468 308.755,336.135 312.5,341C 319.234,343.93 325.567,347.43 331.5,351.5 Z"/></g>
<g><path style="opacity:1" fill="#a5804e" d="M 47.5,335.5 C 48.8117,337.743 49.4783,340.41 49.5,343.5C 49.4783,346.59 48.8117,349.257 47.5,351.5C 47.5,346.167 47.5,340.833 47.5,335.5 Z"/></g>
<g><path style="opacity:1" fill="#d4d3d1" d="M 568.5,202.5 C 568.5,263.167 568.5,323.833 568.5,384.5C 566.544,398.589 565.877,412.923 566.5,427.5C 563.86,427.954 561.527,429.121 559.5,431C 557.934,431.765 556.601,431.598 555.5,430.5C 557.497,353.507 558.164,276.174 557.5,198.5C 560.5,198.5 563.5,198.5 566.5,198.5C 566.229,200.38 566.896,201.713 568.5,202.5 Z"/></g>
<g><path style="opacity:1" fill="#b1b1b0" d="M 553.5,429.5 C 551.83,429.249 550.33,428.582 549,427.5C 548.5,410.17 548.333,392.837 548.5,375.5C 548.833,338.827 548.5,302.161 547.5,265.5C 545.824,264.272 545.491,262.939 546.5,261.5C 546.5,241.5 546.5,221.5 546.5,201.5C 545.319,199.933 543.653,199.099 541.5,199C 546.481,198.252 551.481,197.752 556.5,197.5C 556.5,274.833 556.5,352.167 556.5,429.5C 555.5,429.5 554.5,429.5 553.5,429.5 Z"/></g>
<g><path style="opacity:1" fill="#343432" d="M 115.5,419.5 C 115.5,420.167 115.5,420.833 115.5,421.5C 110.076,424.405 104.742,427.572 99.5,431C 92.0707,431.635 85.5707,429.468 80,424.5C 77.3451,420.187 74.3451,416.187 71,412.5C 68.6713,405.7 67.5047,398.7 67.5,391.5C 68.7733,386.226 72.1067,382.893 77.5,381.5C 93.9397,386.947 103.606,398.281 106.5,415.5C 109.159,417.664 112.159,418.998 115.5,419.5 Z"/></g>
<g><path style="opacity:1" fill="#bcbebe" d="M 77.5,390.5 C 94.4453,393.302 101.612,403.302 99,420.5C 95.1581,425.026 90.6581,425.692 85.5,422.5C 82.1465,418.981 78.9798,415.314 76,411.5C 73.871,406.338 73.2044,401.005 74,395.5C 74.9973,393.677 76.1639,392.01 77.5,390.5 Z"/></g>
<g><path style="opacity:1" fill="#494949" d="M 77.5,394.5 C 79.5,394.5 81.5,394.5 83.5,394.5C 84.2145,401.03 82.3812,402.03 78,397.5C 77.5172,396.552 77.3505,395.552 77.5,394.5 Z"/></g>
<g><path style="opacity:1" fill="#dfb446" d="M 491.5,375.5 C 493.766,375.141 495.599,375.808 497,377.5C 497.499,383.491 497.666,389.491 497.5,395.5C 491.838,396.657 487.171,399.324 483.5,403.5C 481.517,403.157 480.183,403.824 479.5,405.5C 472.567,408.634 465.9,412.301 459.5,416.5C 454.892,417.999 450.558,417.666 446.5,415.5C 445.566,414.432 445.232,413.099 445.5,411.5C 444.167,411.5 442.833,411.5 441.5,411.5C 436.333,409.084 431.333,406.418 426.5,403.5C 424.587,396.785 422.254,390.118 419.5,383.5C 421.33,385.369 423.33,387.202 425.5,389C 431.596,391.55 437.262,394.883 442.5,399C 446.62,401.057 450.953,402.557 455.5,403.5C 456.833,403.333 458.167,403.167 459.5,403C 470.584,394.796 482.251,387.629 494.5,381.5C 494.649,380.448 494.483,379.448 494,378.5C 492.951,379.517 491.784,379.684 490.5,379C 491.337,377.989 491.67,376.822 491.5,375.5 Z"/></g>
<g><path style="opacity:0.969" fill="#e7eded" d="M 473.5,335.5 C 475.604,335.201 477.604,335.534 479.5,336.5C 487.082,341.892 495.082,346.726 503.5,351C 504.793,351.49 506.127,351.657 507.5,351.5C 507.5,352.833 507.5,354.167 507.5,355.5C 517.043,359.608 526.043,364.775 534.5,371C 539.104,372.808 543.771,374.308 548.5,375.5C 548.333,392.837 548.5,410.17 549,427.5C 550.33,428.582 551.83,429.249 553.5,429.5C 553.842,430.338 554.508,430.672 555.5,430.5C 556.601,431.598 557.934,431.765 559.5,431C 561.527,429.121 563.86,427.954 566.5,427.5C 565.877,412.923 566.544,398.589 568.5,384.5C 583.045,392.072 597.045,400.406 610.5,409.5C 587.441,424.363 563.774,438.197 539.5,451C 524.187,460.302 508.854,469.635 493.5,479C 491.866,479.494 490.199,479.66 488.5,479.5C 470.978,470.211 453.645,460.544 436.5,450.5C 434.768,444.323 433.768,437.99 433.5,431.5C 434.167,431.5 434.833,431.5 435.5,431.5C 439.306,431.98 442.639,430.98 445.5,428.5C 446.439,424.235 446.772,419.902 446.5,415.5C 450.558,417.666 454.892,417.999 459.5,416.5C 465.9,412.301 472.567,408.634 479.5,405.5C 479.608,414.983 479.775,424.65 480,434.5C 480.671,435.252 481.504,435.586 482.5,435.5C 483.244,437.453 484.744,438.453 487,438.5C 490.186,437.663 493.186,436.33 496,434.5C 496.204,421.455 496.704,408.455 497.5,395.5C 497.666,389.491 497.499,383.491 497,377.5C 495.599,375.808 493.766,375.141 491.5,375.5C 485.082,371.97 479.082,367.97 473.5,363.5C 473.5,354.167 473.5,344.833 473.5,335.5 Z"/></g>
<g><path style="opacity:1" fill="#4a4b4a" d="M 89.5,398.5 C 92.6341,399.714 94.6341,402.047 95.5,405.5C 93.8647,406.681 92.198,406.681 90.5,405.5C 89.5258,403.257 89.1924,400.924 89.5,398.5 Z"/></g>
<g><path style="opacity:1" fill="#424443" d="M 84.5,404.5 C 88.0091,404.808 89.6757,406.808 89.5,410.5C 85.686,410.349 84.0193,408.349 84.5,404.5 Z"/></g>
<g><path style="opacity:1" fill="#2e972e" d="M 171.5,451.5 C 170.167,451.5 168.833,451.5 167.5,451.5C 165.473,449.153 162.806,447.819 159.5,447.5C 158.521,443.526 157.521,439.526 156.5,435.5C 153.713,431.725 151.379,427.725 149.5,423.5C 148.612,420.286 147.279,417.286 145.5,414.5C 140.58,413.213 135.58,412.213 130.5,411.5C 127.46,411.935 124.627,411.935 122,411.5C 120.86,414.102 120.027,416.769 119.5,419.5C 118.167,419.5 116.833,419.5 115.5,419.5C 112.159,418.998 109.159,417.664 106.5,415.5C 103.606,398.281 93.9397,386.947 77.5,381.5C 72.1067,382.893 68.7733,386.226 67.5,391.5C 62.8629,390.515 58.8629,388.515 55.5,385.5C 57.604,385.799 59.604,385.466 61.5,384.5C 66.2378,375.637 73.5711,372.47 83.5,375C 95.4238,379.873 104.091,388.039 109.5,399.5C 111.167,404.833 112.833,410.167 114.5,415.5C 117.226,409.439 121.893,406.106 128.5,405.5C 133.395,406.905 138.395,407.905 143.5,408.5C 145.833,410 148.167,411.5 150.5,413C 154.766,418.337 158.933,423.837 163,429.5C 164.333,435.5 165.667,441.5 167,447.5C 169.193,447.148 171.36,447.648 173.5,449C 172.244,449.417 171.577,450.25 171.5,451.5 Z"/></g>
<g><path style="opacity:1" fill="#dee4dd" d="M 426.5,403.5 C 431.333,406.418 436.333,409.084 441.5,411.5C 440.156,413.035 438.489,414.368 436.5,415.5C 435.534,417.396 435.201,419.396 435.5,421.5C 434.167,421.5 432.833,421.5 431.5,421.5C 429.202,415.776 427.536,409.776 426.5,403.5 Z"/></g>
<g><path style="opacity:1" fill="#62615f" d="M 411.5,389.5 C 412.5,389.5 413.5,389.5 414.5,389.5C 408.233,420.673 401.4,451.673 394,482.5C 393.552,487.53 392.886,492.53 392,497.5C 382.783,502.861 373.616,508.361 364.5,514C 361.691,515.741 358.691,516.908 355.5,517.5C 353.512,508.261 352.678,498.928 353,489.5C 358.907,464.644 364.573,439.644 370,414.5C 384.198,406.809 398.031,398.475 411.5,389.5 Z"/></g>
<g><path style="opacity:1" fill="#317f31" d="M 149.5,423.5 C 146.577,421.585 143.91,419.251 141.5,416.5C 135.426,412.799 129.426,412.799 123.5,416.5C 122.207,418.103 121.207,419.769 120.5,421.5C 118.833,421.5 117.167,421.5 115.5,421.5C 115.5,420.833 115.5,420.167 115.5,419.5C 116.833,419.5 118.167,419.5 119.5,419.5C 120.027,416.769 120.86,414.102 122,411.5C 124.627,411.935 127.46,411.935 130.5,411.5C 135.58,412.213 140.58,413.213 145.5,414.5C 147.279,417.286 148.612,420.286 149.5,423.5 Z"/></g>
<g><path style="opacity:0.991" fill="#cbcdcc" d="M 610.5,409.5 C 611.821,417.676 611.821,426.009 610.5,434.5C 570.91,457.79 531.243,480.79 491.5,503.5C 491.217,502.711 490.717,502.044 490,501.5C 489.5,494.842 489.334,488.175 489.5,481.5C 489.167,480.833 488.833,480.167 488.5,479.5C 490.199,479.66 491.866,479.494 493.5,479C 508.854,469.635 524.187,460.302 539.5,451C 563.774,438.197 587.441,424.363 610.5,409.5 Z"/></g>
<g><path style="opacity:1" fill="#505153" d="M 92.5,413.5 C 96.9028,412.893 98.2361,414.56 96.5,418.5C 95.675,419.386 94.675,419.719 93.5,419.5C 93.1667,417.5 92.8333,415.5 92.5,413.5 Z"/></g>
<g><path style="opacity:1" fill="#4cb74d" d="M 441.5,411.5 C 442.833,411.5 444.167,411.5 445.5,411.5C 445.232,413.099 445.566,414.432 446.5,415.5C 446.772,419.902 446.439,424.235 445.5,428.5C 442.639,430.98 439.306,431.98 435.5,431.5C 435.5,428.167 435.5,424.833 435.5,421.5C 435.201,419.396 435.534,417.396 436.5,415.5C 438.489,414.368 440.156,413.035 441.5,411.5 Z"/></g>
<g><path style="opacity:1" fill="#d3d1cf" d="M 497.5,395.5 C 496.704,408.455 496.204,421.455 496,434.5C 493.186,436.33 490.186,437.663 487,438.5C 484.744,438.453 483.244,437.453 482.5,435.5C 484.117,436.038 485.784,436.371 487.5,436.5C 487.5,425.5 487.5,414.5 487.5,403.5C 486.167,403.5 484.833,403.5 483.5,403.5C 487.171,399.324 491.838,396.657 497.5,395.5 Z"/></g>
<g><path style="opacity:1" fill="#b3b1af" d="M 483.5,403.5 C 484.833,403.5 486.167,403.5 487.5,403.5C 487.5,414.5 487.5,425.5 487.5,436.5C 485.784,436.371 484.117,436.038 482.5,435.5C 481.504,435.586 480.671,435.252 480,434.5C 479.775,424.65 479.608,414.983 479.5,405.5C 480.183,403.824 481.517,403.157 483.5,403.5 Z"/></g>
<g><path style="opacity:1" fill="#87c087" d="M 431.5,421.5 C 432.833,421.5 434.167,421.5 435.5,421.5C 435.5,424.833 435.5,428.167 435.5,431.5C 434.833,431.5 434.167,431.5 433.5,431.5C 431.598,428.663 430.931,425.329 431.5,421.5 Z"/></g>
<g><path style="opacity:1" fill="#61605e" d="M 420.5,405.5 C 421.5,405.5 422.5,405.5 423.5,405.5C 424.324,409.799 424.991,414.133 425.5,418.5C 425.082,422.843 424.582,427.176 424,431.5C 421.667,440.159 419.334,448.826 417,457.5C 415.426,466.853 413.759,476.186 412,485.5C 409.152,488.719 405.652,490.719 401.5,491.5C 407.171,462.805 413.504,434.138 420.5,405.5 Z"/></g>
<g><path style="opacity:1" fill="#343432" d="M 149.5,423.5 C 151.379,427.725 153.713,431.725 156.5,435.5C 157.521,439.526 158.521,443.526 159.5,447.5C 162.806,447.819 165.473,449.153 167.5,451.5C 162.592,455.561 157.259,459.061 151.5,462C 147.739,462.738 144.072,462.405 140.5,461C 126.809,451.452 120.142,438.285 120.5,421.5C 121.207,419.769 122.207,418.103 123.5,416.5C 129.426,412.799 135.426,412.799 141.5,416.5C 143.91,419.251 146.577,421.585 149.5,423.5 Z"/></g>
<g><path style="opacity:1" fill="#444541" d="M 150.5,444.5 C 150.793,448.082 149.46,449.416 146.5,448.5C 145.766,447.292 145.433,445.959 145.5,444.5C 147.167,444.5 148.833,444.5 150.5,444.5 Z"/></g>
<g><path style="opacity:1" fill="#d6dada" d="M 141.5,424.5 C 141.833,425.833 142.167,427.167 142.5,428.5C 141.596,429.209 141.263,430.209 141.5,431.5C 139.381,431.468 138.048,432.468 137.5,434.5C 136.79,437.885 137.956,440.219 141,441.5C 141.765,441.43 142.265,441.097 142.5,440.5C 145.024,439.188 147.691,438.688 150.5,439C 151.807,440.943 151.807,442.777 150.5,444.5C 148.833,444.5 147.167,444.5 145.5,444.5C 145.433,445.959 145.766,447.292 146.5,448.5C 146.461,449.756 146.961,450.756 148,451.5C 148.893,450.289 149.726,450.289 150.5,451.5C 149.473,453.024 147.973,453.691 146,453.5C 143.108,453.923 142.275,453.09 143.5,451C 141.74,445.228 138.407,444.062 133.5,447.5C 127.824,440.803 125.824,433.136 127.5,424.5C 132.126,420.619 136.792,420.619 141.5,424.5 Z"/></g>
<g><path style="opacity:1" fill="#a5a7a7" d="M 141.5,424.5 C 152.485,431.976 155.485,441.81 150.5,454C 143.061,456.208 137.394,454.042 133.5,447.5C 138.407,444.062 141.74,445.228 143.5,451C 142.275,453.09 143.108,453.923 146,453.5C 147.973,453.691 149.473,453.024 150.5,451.5C 149.726,450.289 148.893,450.289 148,451.5C 146.961,450.756 146.461,449.756 146.5,448.5C 149.46,449.416 150.793,448.082 150.5,444.5C 151.807,442.777 151.807,440.943 150.5,439C 147.691,438.688 145.024,439.188 142.5,440.5C 142.288,437.288 140.621,435.288 137.5,434.5C 138.048,432.468 139.381,431.468 141.5,431.5C 141.263,430.209 141.596,429.209 142.5,428.5C 142.167,427.167 141.833,425.833 141.5,424.5 Z"/></g>
<g><path style="opacity:1" fill="#434446" d="M 137.5,434.5 C 140.621,435.288 142.288,437.288 142.5,440.5C 142.265,441.097 141.765,441.43 141,441.5C 137.956,440.219 136.79,437.885 137.5,434.5 Z"/></g>
<g><path style="opacity:1" fill="#515352" d="M 129.5,433.5 C 133.514,435.18 134.181,437.513 131.5,440.5C 130.056,438.392 129.39,436.059 129.5,433.5 Z"/></g>
<g><path style="opacity:1" fill="#444343" d="M 142.5,428.5 C 145.682,430.193 147.348,432.859 147.5,436.5C 145.856,436.714 144.356,436.38 143,435.5C 142.503,433.19 142.337,430.857 142.5,428.5 Z"/></g>
<g><path style="opacity:1" fill="#5a5b5a" d="M 131.5,424.5 C 133.5,424.5 135.5,424.5 137.5,424.5C 137.5,426.833 137.5,429.167 137.5,431.5C 134.737,431.256 132.571,429.923 131,427.5C 130.53,426.423 130.697,425.423 131.5,424.5 Z"/></g>
<g><path style="opacity:1" fill="#9a9da4" d="M 310.5,585.5 C 310.171,591.537 310.504,597.537 311.5,603.5C 314.421,601.122 317.587,599.122 321,597.5C 322.011,597.892 322.511,598.559 322.5,599.5C 326.059,596.719 330.059,595.052 334.5,594.5C 334.5,593.5 334.5,592.5 334.5,591.5C 336.415,591.216 338.081,591.549 339.5,592.5C 331.194,597.322 322.861,602.155 314.5,607C 311.167,607.667 307.833,607.667 304.5,607C 204.507,549.672 104.841,491.839 5.5,433.5C 6.55198,433.649 7.55198,433.483 8.5,433C 7.18894,426.223 7.18894,419.39 8.5,412.5C 100.763,465.441 192.763,518.774 284.5,572.5C 292.879,576.773 301.045,581.44 309,586.5C 309.383,585.944 309.883,585.611 310.5,585.5 Z"/></g>
<g><path style="opacity:1" fill="#8c8f96" d="M 489.5,481.5 C 489.334,488.175 489.5,494.842 490,501.5C 490.717,502.044 491.217,502.711 491.5,503.5C 441.197,533.656 390.531,563.323 339.5,592.5C 338.081,591.549 336.415,591.216 334.5,591.5C 334.5,592.5 334.5,593.5 334.5,594.5C 330.059,595.052 326.059,596.719 322.5,599.5C 322.511,598.559 322.011,597.892 321,597.5C 317.587,599.122 314.421,601.122 311.5,603.5C 310.504,597.537 310.171,591.537 310.5,585.5C 369.972,550.331 429.638,515.665 489.5,481.5 Z"/></g>
<g><path style="opacity:1" fill="#a9acb5" d="M 55.5,385.5 C 58.8629,388.515 62.8629,390.515 67.5,391.5C 67.5047,398.7 68.6713,405.7 71,412.5C 74.3451,416.187 77.3451,420.187 80,424.5C 85.5707,429.468 92.0707,431.635 99.5,431C 104.742,427.572 110.076,424.405 115.5,421.5C 117.167,421.5 118.833,421.5 120.5,421.5C 120.142,438.285 126.809,451.452 140.5,461C 144.072,462.405 147.739,462.738 151.5,462C 157.259,459.061 162.592,455.561 167.5,451.5C 168.833,451.5 170.167,451.5 171.5,451.5C 175.18,454.836 179.18,457.836 183.5,460.5C 193.485,464.822 202.818,470.155 211.5,476.5C 229.123,485.822 246.456,495.489 263.5,505.5C 264.552,507.256 266.219,507.923 268.5,507.5C 269.002,524.209 276.002,537.376 289.5,547C 292.702,548.483 296.036,548.817 299.5,548C 305.379,545.234 310.712,541.734 315.5,537.5C 317.604,537.201 319.604,537.534 321.5,538.5C 326.833,541.833 332.167,545.167 337.5,548.5C 339.99,550.083 342.657,551.083 345.5,551.5C 346.122,553.456 347.455,554.789 349.5,555.5C 356.168,552.837 362.168,549.171 367.5,544.5C 377.823,540.831 387.157,535.498 395.5,528.5C 408.081,522.876 420.081,516.21 431.5,508.5C 433.99,506.917 436.657,505.917 439.5,505.5C 439.666,496.161 439.5,486.827 439,477.5C 438.722,476.584 438.222,475.918 437.5,475.5C 437.705,467.133 437.371,458.8 436.5,450.5C 453.645,460.544 470.978,470.211 488.5,479.5C 488.833,480.167 489.167,480.833 489.5,481.5C 429.638,515.665 369.972,550.331 310.5,585.5C 309.883,585.611 309.383,585.944 309,586.5C 301.045,581.44 292.879,576.773 284.5,572.5C 192.763,518.774 100.763,465.441 8.5,412.5C 7.18894,419.39 7.18894,426.223 8.5,433C 7.55198,433.483 6.55198,433.649 5.5,433.5C 4.34387,425.677 4.17721,417.677 5,409.5C 18.9474,400.777 33.1141,392.444 47.5,384.5C 48.1174,384.389 48.6174,384.056 49,383.5C 51.0871,384.397 53.2537,385.064 55.5,385.5 Z"/></g>
<g><path style="opacity:1" fill="#70c164" d="M 437.5,475.5 C 438.222,475.918 438.722,476.584 439,477.5C 439.5,486.827 439.666,496.161 439.5,505.5C 436.657,505.917 433.99,506.917 431.5,508.5C 420.081,516.21 408.081,522.876 395.5,528.5C 387.157,535.498 377.823,540.831 367.5,544.5C 362.168,549.171 356.168,552.837 349.5,555.5C 347.455,554.789 346.122,553.456 345.5,551.5C 347.5,551.5 349.5,551.5 351.5,551.5C 351.16,548.856 351.827,546.523 353.5,544.5C 350.833,542.5 350.833,540.5 353.5,538.5C 352.833,537.833 352.167,537.167 351.5,536.5C 351.936,532.244 351.936,527.911 351.5,523.5C 353.604,523.799 355.604,523.466 357.5,522.5C 361.317,519.534 365.317,516.701 369.5,514C 392.613,501.81 415.279,488.977 437.5,475.5 Z"/></g>
<g><path style="opacity:1" fill="#56713b" d="M 359.5,529.5 C 358.413,531.984 357.747,534.651 357.5,537.5C 357.539,539.952 358.206,541.952 359.5,543.5C 358.817,545.176 357.483,545.843 355.5,545.5C 355.334,540.821 355.501,536.155 356,531.5C 356.816,530.177 357.983,529.511 359.5,529.5 Z"/></g>
<g><path style="opacity:1" fill="#c2c7ae" d="M 373.5,531.5 C 374.791,532.542 374.791,533.708 373.5,535C 370.222,536.809 366.889,538.309 363.5,539.5C 363.5,538.5 363.5,537.5 363.5,536.5C 366.258,533.788 369.591,532.121 373.5,531.5 Z"/></g>
<g><path style="opacity:1" fill="#debe4c" d="M 373.5,531.5 C 369.591,532.121 366.258,533.788 363.5,536.5C 361.656,538.279 360.99,540.612 361.5,543.5C 360.833,543.5 360.167,543.5 359.5,543.5C 358.206,541.952 357.539,539.952 357.5,537.5C 357.747,534.651 358.413,531.984 359.5,529.5C 364.632,527.765 369.632,525.765 374.5,523.5C 374.599,526.237 374.265,528.904 373.5,531.5 Z"/></g>
<g><path style="opacity:1" fill="#5f7b44" d="M 361.5,543.5 C 360.99,540.612 361.656,538.279 363.5,536.5C 363.5,537.5 363.5,538.5 363.5,539.5C 366.889,538.309 370.222,536.809 373.5,535C 374.791,533.708 374.791,532.542 373.5,531.5C 374.265,528.904 374.599,526.237 374.5,523.5C 369.632,525.765 364.632,527.765 359.5,529.5C 359.369,528.624 359.702,527.957 360.5,527.5C 363.847,526.391 366.847,524.724 369.5,522.5C 371.99,520.917 374.657,519.917 377.5,519.5C 377.828,524.875 377.495,530.208 376.5,535.5C 371.5,538.167 366.5,540.833 361.5,543.5 Z"/></g>
<g><path style="opacity:1" fill="#98b092" d="M 409.5,501.5 C 410.794,503.048 411.461,505.048 411.5,507.5C 411.72,511.248 410.387,514.248 407.5,516.5C 401.088,520.039 394.422,523.039 387.5,525.5C 394.175,520.863 401.175,516.53 408.5,512.5C 409.489,508.893 409.823,505.226 409.5,501.5 Z"/></g>
<g><path style="opacity:1" fill="#30312c" d="M 409.5,501.5 C 409.823,505.226 409.489,508.893 408.5,512.5C 401.175,516.53 394.175,520.863 387.5,525.5C 385.742,525.877 384.075,526.544 382.5,527.5C 381.167,524.167 381.167,520.833 382.5,517.5C 390.73,510.884 399.73,505.551 409.5,501.5 Z"/></g>
<g><path style="opacity:1" fill="#527034" d="M 425.5,491.5 C 423.298,493.954 420.632,495.954 417.5,497.5C 415.577,501.029 414.911,505.029 415.5,509.5C 416.833,509.5 418.167,509.5 419.5,509.5C 418.082,511.308 416.082,511.975 413.5,511.5C 413.334,506.821 413.501,502.155 414,497.5C 417.516,494.826 421.349,492.826 425.5,491.5 Z"/></g>
<g><path style="opacity:1" fill="#333531" d="M 315.5,535.5 C 315.5,536.167 315.5,536.833 315.5,537.5C 310.712,541.734 305.379,545.234 299.5,548C 296.036,548.817 292.702,548.483 289.5,547C 276.002,537.376 269.002,524.209 268.5,507.5C 269.417,503.916 271.751,501.582 275.5,500.5C 279.5,499.167 283.5,499.167 287.5,500.5C 291.277,504.879 295.61,508.546 300.5,511.5C 304.387,518.369 306.721,525.702 307.5,533.5C 310.167,534.167 312.833,534.833 315.5,535.5 Z"/></g>
<g><path style="opacity:1" fill="#898a8b" d="M 289.5,539.5 C 286.331,538.517 283.998,536.517 282.5,533.5C 283.857,532.315 285.357,531.315 287,530.5C 289.137,532.461 290.637,534.794 291.5,537.5C 289.007,537.131 288.34,537.797 289.5,539.5 Z"/></g>
<g><path style="opacity:1" fill="#d7d9da" d="M 287.5,527.5 C 292.974,527.508 293.974,526.008 290.5,523C 291.448,522.517 292.448,522.351 293.5,522.5C 294.568,523.434 295.901,523.768 297.5,523.5C 297.263,522.209 297.596,521.209 298.5,520.5C 300.773,526.451 300.94,532.451 299,538.5C 295.997,540.641 292.831,540.974 289.5,539.5C 288.34,537.797 289.007,537.131 291.5,537.5C 290.637,534.794 289.137,532.461 287,530.5C 285.357,531.315 283.857,532.315 282.5,533.5C 280.674,531.853 279.34,529.853 278.5,527.5C 279.531,526.751 280.698,526.085 282,525.5C 282.216,523.616 282.883,521.949 284,520.5C 284.182,523.226 284.682,525.893 285.5,528.5C 286.183,528.137 286.85,527.804 287.5,527.5 Z"/></g>
<g><path style="opacity:1" fill="#535456" d="M 293.5,529.5 C 298.159,529.015 299.492,530.848 297.5,535C 296.551,535.617 295.718,535.451 295,534.5C 293.991,532.975 293.491,531.308 293.5,529.5 Z"/></g>
<g><path style="opacity:1" fill="#6b6b69" d="M 293.5,522.5 C 292.448,522.351 291.448,522.517 290.5,523C 293.974,526.008 292.974,527.508 287.5,527.5C 286.067,525.442 285.4,523.108 285.5,520.5C 286.93,520.421 288.264,520.754 289.5,521.5C 290.872,512.623 293.206,512.623 296.5,521.5C 295.675,522.386 294.675,522.719 293.5,522.5 Z"/></g>
<g><path style="opacity:1" fill="#b5b7b7" d="M 298.5,520.5 C 297.596,521.209 297.263,522.209 297.5,523.5C 295.901,523.768 294.568,523.434 293.5,522.5C 294.675,522.719 295.675,522.386 296.5,521.5C 293.206,512.623 290.872,512.623 289.5,521.5C 288.264,520.754 286.93,520.421 285.5,520.5C 285.4,523.108 286.067,525.442 287.5,527.5C 286.85,527.804 286.183,528.137 285.5,528.5C 284.682,525.893 284.182,523.226 284,520.5C 282.883,521.949 282.216,523.616 282,525.5C 280.698,526.085 279.531,526.751 278.5,527.5C 275.147,522.746 273.981,517.413 275,511.5C 277.435,506.776 281.269,505.276 286.5,507C 291.765,510.428 295.765,514.928 298.5,520.5 Z"/></g>
<g><path style="opacity:1" fill="#5d5e5e" d="M 280.5,509.5 C 282.167,509.5 283.833,509.5 285.5,509.5C 285.5,511.833 285.5,514.167 285.5,516.5C 279.864,516.273 278.197,513.939 280.5,509.5 Z"/></g>
<g><path style="opacity:1" fill="#c0c5ae" d="M 421.5,503.5 C 423.843,501.811 426.51,500.477 429.5,499.5C 431.374,497.905 432.207,498.239 432,500.5C 428.918,502.625 425.751,504.625 422.5,506.5C 421.614,505.675 421.281,504.675 421.5,503.5 Z"/></g>
<g><path style="opacity:1" fill="#637e54" d="M 419.5,509.5 C 419.5,507.5 419.5,505.5 419.5,503.5C 420.167,503.5 420.833,503.5 421.5,503.5C 421.281,504.675 421.614,505.675 422.5,506.5C 425.751,504.625 428.918,502.625 432,500.5C 432.207,498.239 431.374,497.905 429.5,499.5C 430.066,497.922 431.066,496.588 432.5,495.5C 433.466,493.604 433.799,491.604 433.5,489.5C 430.833,490.167 428.167,490.833 425.5,491.5C 428.144,488.505 431.477,486.505 435.5,485.5C 435.828,490.875 435.495,496.208 434.5,501.5C 429.888,504.971 424.888,507.638 419.5,509.5 Z"/></g>
<g><path style="opacity:1" fill="#ab8d2d" d="M 417.5,497.5 C 416.659,499.379 416.325,501.379 416.5,503.5C 417.5,503.5 418.5,503.5 419.5,503.5C 419.5,505.5 419.5,507.5 419.5,509.5C 418.167,509.5 416.833,509.5 415.5,509.5C 414.911,505.029 415.577,501.029 417.5,497.5 Z"/></g>
<g><path style="opacity:1" fill="#2d962e" d="M 315.5,535.5 C 312.833,534.833 310.167,534.167 307.5,533.5C 306.721,525.702 304.387,518.369 300.5,511.5C 295.61,508.546 291.277,504.879 287.5,500.5C 283.5,499.167 279.5,499.167 275.5,500.5C 271.751,501.582 269.417,503.916 268.5,507.5C 266.219,507.923 264.552,507.256 263.5,505.5C 263.133,498.082 266.467,493.249 273.5,491C 280.992,489.958 287.992,491.292 294.5,495C 301.364,502.546 307.531,510.712 313,519.5C 313.512,524.904 314.345,530.238 315.5,535.5 Z"/></g>
<g><path style="opacity:1" fill="#e2c653" d="M 429.5,499.5 C 426.51,500.477 423.843,501.811 421.5,503.5C 420.833,503.5 420.167,503.5 419.5,503.5C 418.5,503.5 417.5,503.5 416.5,503.5C 416.325,501.379 416.659,499.379 417.5,497.5C 420.632,495.954 423.298,493.954 425.5,491.5C 428.167,490.833 430.833,490.167 433.5,489.5C 433.799,491.604 433.466,493.604 432.5,495.5C 431.066,496.588 430.066,497.922 429.5,499.5 Z"/></g>
<g><path style="opacity:1" fill="#529550" d="M 331.5,473.5 C 332.833,473.5 334.167,473.5 335.5,473.5C 334.257,475.753 332.59,477.753 330.5,479.5C 329.507,484.12 329.173,488.786 329.5,493.5C 330.833,493.5 332.167,493.5 333.5,493.5C 331.898,495.074 329.898,495.741 327.5,495.5C 327.171,489.463 327.504,483.463 328.5,477.5C 329.934,476.412 330.934,475.078 331.5,473.5 Z"/></g>
<g><path style="opacity:1" fill="#3faf42" d="M 335.5,473.5 C 337.456,474.122 338.789,475.455 339.5,477.5C 338.832,482.186 338.166,486.852 337.5,491.5C 336.167,492.167 334.833,492.833 333.5,493.5C 332.167,493.5 330.833,493.5 329.5,493.5C 329.173,488.786 329.507,484.12 330.5,479.5C 332.59,477.753 334.257,475.753 335.5,473.5 Z"/></g>
<g><path style="opacity:1" fill="#3e5b3a" d="M 337.5,491.5 C 338.166,486.852 338.832,482.186 339.5,477.5C 338.789,475.455 337.456,474.122 335.5,473.5C 334.167,473.5 332.833,473.5 331.5,473.5C 333.56,471.846 336.06,470.846 339,470.5C 341.041,471.423 343.208,471.756 345.5,471.5C 345.865,474.746 344.865,477.412 342.5,479.5C 344.046,480.684 345.713,481.684 347.5,482.5C 345.604,483.466 343.604,483.799 341.5,483.5C 342.042,487.259 340.708,489.926 337.5,491.5 Z"/></g>
</svg>
